M48
; DRILL file KiCad 10.0.5 date 2026-08-27T16:41:22
; FORMAT={-:-/ absolute / metric / decimal}
; #@! TF.CreationDate,2026-08-27T16:41:22+05:30
; #@! TF.GenerationSoftware,Kicad,Pcbnew,10.0.5
; #@! TF.FileFunction,MixedPlating,1,2
FMAT,2
METRIC
; #@! TA.AperFunction,Plated,PTH,ViaDrill
T1C0.300
; #@! TA.AperFunction,Plated,PTH,ComponentDrill
T2C0.800
; #@! TA.AperFunction,Plated,PTH,ComponentDrill
T3C1.000
; #@! TA.AperFunction,Plated,PTH,ComponentDrill
T4C1.500
; #@! TA.AperFunction,Plated,PTH,ComponentDrill
T5C1.524
; #@! TA.AperFunction,NonPlated,NPTH,ComponentDrill
T6C1.750
; #@! TA.AperFunction,NonPlated,NPTH,ComponentDrill
T7C3.988
%
G90
G05
T1
X82.358Y-40.559
X99.836Y-118.167
X107.788Y-128.677
X122.064Y-30.767
X122.454Y-26.314
X136.178Y-101.036
X136.374Y-101.858
X140.434Y-102.045
X152.653Y-102.083
X172.433Y-119.8
X180.143Y-31.52
X182.737Y-26.33
X182.876Y-128.19
X184.757Y-86.015
X188.022Y-41.545
X190.371Y-127.782
X209.945Y-97.796
X227.136Y-130.686
X229.842Y-98.868
X262.26Y-81.421
X263.777Y-97.762
X264.46Y-80.816
X277.882Y-62.458
X298.615Y-60.992
T2
X43.18Y-34.48
X43.18Y-42.1
X45.561Y-110.68
X45.561Y-118.3
X47.942Y-53.53
X47.942Y-61.15
X50.324Y-72.58
X50.324Y-80.2
X55.086Y-91.63
X55.086Y-99.25
X62.23Y-34.48
X62.23Y-42.1
X69.374Y-110.68
X69.374Y-118.3
X71.755Y-53.53
X71.755Y-61.15
X76.517Y-72.58
X76.517Y-80.2
X81.28Y-34.48
X81.28Y-42.1
X86.042Y-91.63
X86.042Y-99.25
X90.805Y-53.53
X90.805Y-61.15
X93.186Y-110.68
X93.186Y-118.3
X95.567Y-72.58
X95.567Y-80.2
X100.33Y-34.48
X100.33Y-42.1
X105.093Y-91.63
X105.093Y-99.25
X109.855Y-53.53
X109.855Y-61.15
X114.617Y-72.58
X114.617Y-80.2
X119.38Y-34.48
X119.38Y-42.1
X124.142Y-91.63
X124.142Y-99.25
X128.905Y-53.53
X128.905Y-61.15
X133.667Y-72.58
X133.667Y-80.2
X138.43Y-34.48
X138.43Y-42.1
X143.192Y-91.63
X143.192Y-99.25
X147.955Y-53.53
X147.955Y-61.15
X152.718Y-72.58
X152.718Y-80.2
X157.48Y-34.48
X157.48Y-42.1
X162.243Y-91.63
X162.243Y-99.25
X167.005Y-53.53
X167.005Y-61.15
X171.767Y-72.58
X171.767Y-80.2
X174.149Y-110.68
X174.149Y-118.3
X176.53Y-34.48
X176.53Y-42.1
X181.292Y-91.63
X181.292Y-99.25
X186.055Y-53.53
X186.055Y-61.15
X190.817Y-72.58
X190.817Y-80.2
X195.58Y-34.48
X195.58Y-42.1
X200.343Y-91.63
X200.343Y-99.25
X205.105Y-53.53
X205.105Y-61.15
X209.867Y-72.58
X209.867Y-80.2
X214.63Y-34.48
X214.63Y-42.1
X219.392Y-91.63
X219.392Y-99.25
X224.155Y-53.53
X224.155Y-61.15
X228.917Y-72.58
X228.917Y-80.2
X233.68Y-34.48
X233.68Y-42.1
X238.442Y-91.63
X238.442Y-99.25
X243.205Y-53.53
X243.205Y-61.15
X247.968Y-72.58
X247.968Y-80.2
X252.73Y-34.48
X252.73Y-42.1
X252.73Y-110.68
X252.73Y-118.3
X257.493Y-91.63
X257.493Y-99.25
X262.255Y-53.53
X262.255Y-61.15
X267.017Y-72.58
X267.017Y-80.2
X271.78Y-34.48
X271.78Y-42.1
X271.78Y-110.68
X271.78Y-118.3
X281.305Y-53.53
X281.305Y-61.15
X283.686Y-91.63
X283.686Y-99.25
X290.83Y-110.68
X290.83Y-118.3
X297.974Y-72.58
X297.974Y-80.2
X300.355Y-34.48
X300.355Y-42.1
X305.118Y-53.53
X305.118Y-61.15
X309.88Y-91.63
X309.88Y-99.25
X309.88Y-110.68
X309.88Y-118.3
X328.93Y-34.48
X328.93Y-42.1
X328.93Y-53.53
X328.93Y-61.15
X328.93Y-72.58
X328.93Y-80.2
X328.93Y-91.63
X328.93Y-99.25
X328.93Y-110.68
X328.93Y-118.3
T3
X95.0Y-26.0
X95.0Y-28.54
X95.0Y-31.08
X95.0Y-33.62
X181.0Y-114.22
X181.0Y-132.0
X183.54Y-114.22
X183.54Y-132.0
X186.08Y-114.22
X186.08Y-132.0
X188.62Y-114.22
X188.62Y-132.0
X191.16Y-114.22
X191.16Y-132.0
X193.7Y-114.22
X193.7Y-132.0
X196.24Y-114.22
X196.24Y-132.0
X198.78Y-114.22
X198.78Y-132.0
X201.32Y-114.22
X201.32Y-132.0
X203.86Y-114.22
X203.86Y-132.0
X206.4Y-114.22
X206.4Y-132.0
X208.94Y-114.22
X208.94Y-132.0
X211.48Y-114.22
X211.48Y-132.0
X214.02Y-114.22
X214.02Y-132.0
X216.56Y-114.22
X216.56Y-132.0
X219.1Y-114.22
X219.1Y-132.0
X221.64Y-114.22
X221.64Y-132.0
X224.18Y-114.22
X224.18Y-132.0
X226.72Y-114.22
X226.72Y-132.0
X229.26Y-114.22
X229.26Y-132.0
X315.0Y-24.0
X315.0Y-26.5
X315.0Y-29.0
X329.5Y-24.0
X329.5Y-29.0
T5
X34.29Y-35.56
X36.671Y-111.76
X39.052Y-54.61
X40.64Y-33.02
X41.434Y-73.66
X43.021Y-109.22
X45.402Y-52.07
X46.196Y-92.71
X47.784Y-71.12
X52.546Y-90.17
X53.34Y-35.56
X59.69Y-33.02
X60.484Y-111.76
X62.865Y-54.61
X66.834Y-109.22
X67.627Y-73.66
X69.215Y-52.07
X72.39Y-35.56
X73.977Y-71.12
X77.153Y-92.71
X78.74Y-33.02
X81.915Y-54.61
X83.502Y-90.17
X84.296Y-111.76
X86.677Y-73.66
X88.265Y-52.07
X90.646Y-109.22
X91.44Y-35.56
X93.027Y-71.12
X96.203Y-92.71
X97.79Y-33.02
X100.965Y-54.61
X102.552Y-90.17
X105.727Y-73.66
X107.315Y-52.07
X110.49Y-35.56
X112.078Y-71.12
X115.252Y-92.71
X116.84Y-33.02
X120.015Y-54.61
X121.602Y-90.17
X124.777Y-73.66
X126.365Y-52.07
X129.54Y-35.56
X131.127Y-71.12
X134.302Y-92.71
X135.89Y-33.02
X139.065Y-54.61
X140.653Y-90.17
X143.827Y-73.66
X145.415Y-52.07
X148.59Y-35.56
X150.177Y-71.12
X153.352Y-92.71
X154.94Y-33.02
X158.115Y-54.61
X159.702Y-90.17
X162.877Y-73.66
X164.465Y-52.07
X165.259Y-111.76
X167.64Y-35.56
X169.227Y-71.12
X171.609Y-109.22
X172.403Y-92.71
X173.99Y-33.02
X177.165Y-54.61
X178.752Y-90.17
X181.927Y-73.66
X183.515Y-52.07
X186.69Y-35.56
X188.278Y-71.12
X191.452Y-92.71
X193.04Y-33.02
X196.215Y-54.61
X197.802Y-90.17
X200.977Y-73.66
X202.565Y-52.07
X205.74Y-35.56
X207.327Y-71.12
X210.502Y-92.71
X212.09Y-33.02
X215.265Y-54.61
X216.852Y-90.17
X220.028Y-73.66
X221.615Y-52.07
X224.79Y-35.56
X226.377Y-71.12
X229.552Y-92.71
X231.14Y-33.02
X234.315Y-54.61
X235.903Y-90.17
X239.077Y-73.66
X240.665Y-52.07
X243.84Y-35.56
X243.84Y-111.76
X245.427Y-71.12
X248.602Y-92.71
X250.19Y-33.02
X250.19Y-109.22
X253.365Y-54.61
X254.952Y-90.17
X258.127Y-73.66
X259.715Y-52.07
X262.89Y-35.56
X262.89Y-111.76
X264.477Y-71.12
X269.24Y-33.02
X269.24Y-109.22
X272.415Y-54.61
X274.796Y-92.71
X278.765Y-52.07
X281.146Y-90.17
X281.94Y-111.76
X288.29Y-109.22
X289.084Y-73.66
X291.465Y-35.56
X295.434Y-71.12
X296.227Y-54.61
X297.815Y-33.02
X300.99Y-92.71
X300.99Y-111.76
X302.577Y-52.07
X307.34Y-90.17
X307.34Y-109.22
X320.04Y-35.56
X320.04Y-54.61
X320.04Y-73.66
X320.04Y-92.71
X320.04Y-111.76
X326.39Y-33.02
X326.39Y-52.07
X326.39Y-71.12
X326.39Y-90.17
X326.39Y-109.22
T6
X33.02Y-38.1
X35.401Y-114.3
X37.782Y-57.15
X40.164Y-76.2
X43.18Y-38.1
X44.926Y-95.25
X45.561Y-114.3
X47.942Y-57.15
X50.324Y-76.2
X52.07Y-38.1
X55.086Y-95.25
X59.214Y-114.3
X61.595Y-57.15
X62.23Y-38.1
X66.358Y-76.2
X69.374Y-114.3
X71.12Y-38.1
X71.755Y-57.15
X75.882Y-95.25
X76.517Y-76.2
X80.645Y-57.15
X81.28Y-38.1
X83.026Y-114.3
X85.407Y-76.2
X86.042Y-95.25
X90.17Y-38.1
X90.805Y-57.15
X93.186Y-114.3
X94.932Y-95.25
X95.567Y-76.2
X99.695Y-57.15
X100.33Y-38.1
X104.457Y-76.2
X105.093Y-95.25
X109.22Y-38.1
X109.855Y-57.15
X113.983Y-95.25
X114.617Y-76.2
X118.745Y-57.15
X119.38Y-38.1
X123.507Y-76.2
X124.142Y-95.25
X128.27Y-38.1
X128.905Y-57.15
X133.032Y-95.25
X133.667Y-76.2
X137.795Y-57.15
X138.43Y-38.1
X142.558Y-76.2
X143.192Y-95.25
X147.32Y-38.1
X147.955Y-57.15
X152.082Y-95.25
X152.718Y-76.2
X156.845Y-57.15
X157.48Y-38.1
X161.607Y-76.2
X162.243Y-95.25
X163.989Y-114.3
X166.37Y-38.1
X167.005Y-57.15
X171.132Y-95.25
X171.767Y-76.2
X174.149Y-114.3
X175.895Y-57.15
X176.53Y-38.1
X180.657Y-76.2
X181.292Y-95.25
X185.42Y-38.1
X186.055Y-57.15
X190.183Y-95.25
X190.817Y-76.2
X194.945Y-57.15
X195.58Y-38.1
X199.707Y-76.2
X200.343Y-95.25
X204.47Y-38.1
X205.105Y-57.15
X209.232Y-95.25
X209.867Y-76.2
X213.995Y-57.15
X214.63Y-38.1
X218.757Y-76.2
X219.392Y-95.25
X223.52Y-38.1
X224.155Y-57.15
X228.282Y-95.25
X228.917Y-76.2
X233.045Y-57.15
X233.68Y-38.1
X237.807Y-76.2
X238.442Y-95.25
X242.57Y-38.1
X242.57Y-114.3
X243.205Y-57.15
X247.332Y-95.25
X247.968Y-76.2
X252.095Y-57.15
X252.73Y-38.1
X252.73Y-114.3
X256.858Y-76.2
X257.493Y-95.25
X261.62Y-38.1
X261.62Y-114.3
X262.255Y-57.15
X267.017Y-76.2
X271.145Y-57.15
X271.78Y-38.1
X271.78Y-114.3
X273.526Y-95.25
X280.67Y-114.3
X281.305Y-57.15
X283.686Y-95.25
X287.814Y-76.2
X290.195Y-38.1
X290.83Y-114.3
X294.957Y-57.15
X297.974Y-76.2
X299.72Y-95.25
X299.72Y-114.3
X300.355Y-38.1
X305.118Y-57.15
X309.88Y-95.25
X309.88Y-114.3
X318.77Y-38.1
X318.77Y-57.15
X318.77Y-76.2
X318.77Y-95.25
X318.77Y-114.3
X328.93Y-38.1
X328.93Y-57.15
X328.93Y-76.2
X328.93Y-95.25
X328.93Y-114.3
T7
X38.1Y-38.1
X40.481Y-114.3
X42.862Y-57.15
X45.244Y-76.2
X50.006Y-95.25
X57.15Y-38.1
X64.294Y-114.3
X66.675Y-57.15
X71.438Y-76.2
X76.2Y-38.1
X80.962Y-95.25
X85.725Y-57.15
X88.106Y-114.3
X90.487Y-76.2
X95.25Y-38.1
X100.012Y-95.25
X104.775Y-57.15
X109.537Y-76.2
X114.3Y-38.1
X119.062Y-95.25
X123.825Y-57.15
X128.588Y-76.2
X133.35Y-38.1
X138.112Y-95.25
X142.875Y-57.15
X147.637Y-76.2
X152.4Y-38.1
X157.162Y-95.25
X161.925Y-57.15
X166.688Y-76.2
X169.069Y-114.3
X171.45Y-38.1
X176.213Y-95.25
X180.975Y-57.15
X185.737Y-76.2
X190.5Y-38.1
X195.262Y-95.25
X200.025Y-57.15
X204.787Y-76.2
X209.55Y-38.1
X214.312Y-95.25
X219.075Y-57.15
X223.837Y-76.2
X228.6Y-38.1
X233.362Y-95.25
X238.125Y-57.15
X242.887Y-76.2
X247.65Y-38.1
X247.65Y-114.3
X252.412Y-95.25
X257.175Y-57.15
X261.938Y-76.2
X266.7Y-38.1
X266.7Y-114.3
X276.225Y-57.15
X278.606Y-95.25
X285.75Y-114.3
X292.894Y-76.2
X295.275Y-38.1
X300.037Y-57.15
X304.8Y-95.25
X304.8Y-114.3
X323.85Y-38.1
X323.85Y-57.15
X323.85Y-76.2
X323.85Y-95.25
X323.85Y-114.3
T4
X321.85Y-20.9G85X323.15Y-20.9
G05
X321.85Y-32.1G85X323.15Y-32.1
G05
M30
