%TF.GenerationSoftware,KiCad,Pcbnew,10.0.5*%
%TF.CreationDate,2026-08-27T16:41:21+05:30*%
%TF.ProjectId,dream-keyboard,64726561-6d2d-46b6-9579-626f6172642e,rev?*%
%TF.SameCoordinates,Original*%
%TF.FileFunction,Paste,Top*%
%TF.FilePolarity,Positive*%
%FSLAX46Y46*%
G04 Gerber Fmt 4.6, Leading zero omitted, Abs format (unit mm)*
G04 Created by KiCad (PCBNEW 10.0.5) date 2026-08-27 16:41:21*
%MOMM*%
%LPD*%
G01*
G04 APERTURE LIST*
G04 Aperture macros list*
%AMRoundRect*
0 Rectangle with rounded corners*
0 $1 Rounding radius*
0 $2 $3 $4 $5 $6 $7 $8 $9 X,Y pos of 4 corners*
0 Add a 4 corners polygon primitive as box body*
4,1,4,$2,$3,$4,$5,$6,$7,$8,$9,$2,$3,0*
0 Add four circle primitives for the rounded corners*
1,1,$1+$1,$2,$3*
1,1,$1+$1,$4,$5*
1,1,$1+$1,$6,$7*
1,1,$1+$1,$8,$9*
0 Add four rect primitives between the rounded corners*
20,1,$1+$1,$2,$3,$4,$5,0*
20,1,$1+$1,$4,$5,$6,$7,0*
20,1,$1+$1,$6,$7,$8,$9,0*
20,1,$1+$1,$8,$9,$2,$3,0*%
G04 Aperture macros list end*
%ADD10RoundRect,0.250000X-0.250000X-0.475000X0.250000X-0.475000X0.250000X0.475000X-0.250000X0.475000X0*%
%ADD11RoundRect,0.250000X-0.262500X-0.450000X0.262500X-0.450000X0.262500X0.450000X-0.262500X0.450000X0*%
%ADD12RoundRect,0.205000X-0.470000X-0.205000X0.470000X-0.205000X0.470000X0.205000X-0.470000X0.205000X0*%
%ADD13RoundRect,0.150000X-0.825000X-0.150000X0.825000X-0.150000X0.825000X0.150000X-0.825000X0.150000X0*%
G04 APERTURE END LIST*
D10*
%TO.C,C103*%
X182050000Y-32000000D03*
X183950000Y-32000000D03*
%TD*%
D11*
%TO.C,R1*%
X79087500Y-20000000D03*
X80912500Y-20000000D03*
%TD*%
D12*
%TO.C,D102*%
X117275000Y-28750000D03*
X117275000Y-27250000D03*
X122725000Y-27250000D03*
X122725000Y-28750000D03*
%TD*%
D10*
%TO.C,C102*%
X122050000Y-32000000D03*
X123950000Y-32000000D03*
%TD*%
%TO.C,C101*%
X62050000Y-32000000D03*
X63950000Y-32000000D03*
%TD*%
%TO.C,C104*%
X242050000Y-32000000D03*
X243950000Y-32000000D03*
%TD*%
D13*
%TO.C,U2*%
X109525000Y-128190000D03*
X109525000Y-129460000D03*
X109525000Y-130730000D03*
X109525000Y-132000000D03*
X109525000Y-133270000D03*
X109525000Y-134540000D03*
X109525000Y-135810000D03*
X114475000Y-135810000D03*
X114475000Y-134540000D03*
X114475000Y-133270000D03*
X114475000Y-132000000D03*
X114475000Y-130730000D03*
X114475000Y-129460000D03*
X114475000Y-128190000D03*
%TD*%
D12*
%TO.C,D105*%
X297275000Y-28750000D03*
X297275000Y-27250000D03*
X302725000Y-27250000D03*
X302725000Y-28750000D03*
%TD*%
D10*
%TO.C,C105*%
X302050000Y-32000000D03*
X303950000Y-32000000D03*
%TD*%
%TO.C,C106*%
X111050000Y-138000000D03*
X112950000Y-138000000D03*
%TD*%
D12*
%TO.C,D103*%
X177275000Y-28750000D03*
X177275000Y-27250000D03*
X182725000Y-27250000D03*
X182725000Y-28750000D03*
%TD*%
%TO.C,D101*%
X57275000Y-28750000D03*
X57275000Y-27250000D03*
X62725000Y-27250000D03*
X62725000Y-28750000D03*
%TD*%
D11*
%TO.C,R2*%
X85087500Y-20000000D03*
X86912500Y-20000000D03*
%TD*%
D12*
%TO.C,D104*%
X237275000Y-28750000D03*
X237275000Y-27250000D03*
X242725000Y-27250000D03*
X242725000Y-28750000D03*
%TD*%
M02*
