%TF.GenerationSoftware,KiCad,Pcbnew,10.0.5*%
%TF.CreationDate,2026-08-27T16:41:21+05:30*%
%TF.ProjectId,dream-keyboard,64726561-6d2d-46b6-9579-626f6172642e,rev?*%
%TF.SameCoordinates,Original*%
%TF.FileFunction,Legend,Top*%
%TF.FilePolarity,Positive*%
%FSLAX46Y46*%
G04 Gerber Fmt 4.6, Leading zero omitted, Abs format (unit mm)*
G04 Created by KiCad (PCBNEW 10.0.5) date 2026-08-27 16:41:21*
%MOMM*%
%LPD*%
G01*
G04 APERTURE LIST*
%ADD10C,0.150000*%
%ADD11C,0.120000*%
G04 APERTURE END LIST*
D10*
X229349819Y-111025720D02*
X230159342Y-111025720D01*
X230159342Y-111025720D02*
X230254580Y-110978101D01*
X230254580Y-110978101D02*
X230302200Y-110930482D01*
X230302200Y-110930482D02*
X230349819Y-110835244D01*
X230349819Y-110835244D02*
X230349819Y-110644768D01*
X230349819Y-110644768D02*
X230302200Y-110549530D01*
X230302200Y-110549530D02*
X230254580Y-110501911D01*
X230254580Y-110501911D02*
X230159342Y-110454292D01*
X230159342Y-110454292D02*
X229349819Y-110454292D01*
X230349819Y-109454292D02*
X230349819Y-110025720D01*
X230349819Y-109740006D02*
X229349819Y-109740006D01*
X229349819Y-109740006D02*
X229492676Y-109835244D01*
X229492676Y-109835244D02*
X229587914Y-109930482D01*
X229587914Y-109930482D02*
X229635533Y-110025720D01*
X181880952Y-30679580D02*
X181833333Y-30727200D01*
X181833333Y-30727200D02*
X181690476Y-30774819D01*
X181690476Y-30774819D02*
X181595238Y-30774819D01*
X181595238Y-30774819D02*
X181452381Y-30727200D01*
X181452381Y-30727200D02*
X181357143Y-30631961D01*
X181357143Y-30631961D02*
X181309524Y-30536723D01*
X181309524Y-30536723D02*
X181261905Y-30346247D01*
X181261905Y-30346247D02*
X181261905Y-30203390D01*
X181261905Y-30203390D02*
X181309524Y-30012914D01*
X181309524Y-30012914D02*
X181357143Y-29917676D01*
X181357143Y-29917676D02*
X181452381Y-29822438D01*
X181452381Y-29822438D02*
X181595238Y-29774819D01*
X181595238Y-29774819D02*
X181690476Y-29774819D01*
X181690476Y-29774819D02*
X181833333Y-29822438D01*
X181833333Y-29822438D02*
X181880952Y-29870057D01*
X182833333Y-30774819D02*
X182261905Y-30774819D01*
X182547619Y-30774819D02*
X182547619Y-29774819D01*
X182547619Y-29774819D02*
X182452381Y-29917676D01*
X182452381Y-29917676D02*
X182357143Y-30012914D01*
X182357143Y-30012914D02*
X182261905Y-30060533D01*
X183452381Y-29774819D02*
X183547619Y-29774819D01*
X183547619Y-29774819D02*
X183642857Y-29822438D01*
X183642857Y-29822438D02*
X183690476Y-29870057D01*
X183690476Y-29870057D02*
X183738095Y-29965295D01*
X183738095Y-29965295D02*
X183785714Y-30155771D01*
X183785714Y-30155771D02*
X183785714Y-30393866D01*
X183785714Y-30393866D02*
X183738095Y-30584342D01*
X183738095Y-30584342D02*
X183690476Y-30679580D01*
X183690476Y-30679580D02*
X183642857Y-30727200D01*
X183642857Y-30727200D02*
X183547619Y-30774819D01*
X183547619Y-30774819D02*
X183452381Y-30774819D01*
X183452381Y-30774819D02*
X183357143Y-30727200D01*
X183357143Y-30727200D02*
X183309524Y-30679580D01*
X183309524Y-30679580D02*
X183261905Y-30584342D01*
X183261905Y-30584342D02*
X183214286Y-30393866D01*
X183214286Y-30393866D02*
X183214286Y-30155771D01*
X183214286Y-30155771D02*
X183261905Y-29965295D01*
X183261905Y-29965295D02*
X183309524Y-29870057D01*
X183309524Y-29870057D02*
X183357143Y-29822438D01*
X183357143Y-29822438D02*
X183452381Y-29774819D01*
X184119048Y-29774819D02*
X184738095Y-29774819D01*
X184738095Y-29774819D02*
X184404762Y-30155771D01*
X184404762Y-30155771D02*
X184547619Y-30155771D01*
X184547619Y-30155771D02*
X184642857Y-30203390D01*
X184642857Y-30203390D02*
X184690476Y-30251009D01*
X184690476Y-30251009D02*
X184738095Y-30346247D01*
X184738095Y-30346247D02*
X184738095Y-30584342D01*
X184738095Y-30584342D02*
X184690476Y-30679580D01*
X184690476Y-30679580D02*
X184642857Y-30727200D01*
X184642857Y-30727200D02*
X184547619Y-30774819D01*
X184547619Y-30774819D02*
X184261905Y-30774819D01*
X184261905Y-30774819D02*
X184166667Y-30727200D01*
X184166667Y-30727200D02*
X184119048Y-30679580D01*
X79833333Y-18804819D02*
X79500000Y-18328628D01*
X79261905Y-18804819D02*
X79261905Y-17804819D01*
X79261905Y-17804819D02*
X79642857Y-17804819D01*
X79642857Y-17804819D02*
X79738095Y-17852438D01*
X79738095Y-17852438D02*
X79785714Y-17900057D01*
X79785714Y-17900057D02*
X79833333Y-17995295D01*
X79833333Y-17995295D02*
X79833333Y-18138152D01*
X79833333Y-18138152D02*
X79785714Y-18233390D01*
X79785714Y-18233390D02*
X79738095Y-18281009D01*
X79738095Y-18281009D02*
X79642857Y-18328628D01*
X79642857Y-18328628D02*
X79261905Y-18328628D01*
X80785714Y-18804819D02*
X80214286Y-18804819D01*
X80500000Y-18804819D02*
X80500000Y-17804819D01*
X80500000Y-17804819D02*
X80404762Y-17947676D01*
X80404762Y-17947676D02*
X80309524Y-18042914D01*
X80309524Y-18042914D02*
X80214286Y-18090533D01*
X118309524Y-25854819D02*
X118309524Y-24854819D01*
X118309524Y-24854819D02*
X118547619Y-24854819D01*
X118547619Y-24854819D02*
X118690476Y-24902438D01*
X118690476Y-24902438D02*
X118785714Y-24997676D01*
X118785714Y-24997676D02*
X118833333Y-25092914D01*
X118833333Y-25092914D02*
X118880952Y-25283390D01*
X118880952Y-25283390D02*
X118880952Y-25426247D01*
X118880952Y-25426247D02*
X118833333Y-25616723D01*
X118833333Y-25616723D02*
X118785714Y-25711961D01*
X118785714Y-25711961D02*
X118690476Y-25807200D01*
X118690476Y-25807200D02*
X118547619Y-25854819D01*
X118547619Y-25854819D02*
X118309524Y-25854819D01*
X119833333Y-25854819D02*
X119261905Y-25854819D01*
X119547619Y-25854819D02*
X119547619Y-24854819D01*
X119547619Y-24854819D02*
X119452381Y-24997676D01*
X119452381Y-24997676D02*
X119357143Y-25092914D01*
X119357143Y-25092914D02*
X119261905Y-25140533D01*
X120452381Y-24854819D02*
X120547619Y-24854819D01*
X120547619Y-24854819D02*
X120642857Y-24902438D01*
X120642857Y-24902438D02*
X120690476Y-24950057D01*
X120690476Y-24950057D02*
X120738095Y-25045295D01*
X120738095Y-25045295D02*
X120785714Y-25235771D01*
X120785714Y-25235771D02*
X120785714Y-25473866D01*
X120785714Y-25473866D02*
X120738095Y-25664342D01*
X120738095Y-25664342D02*
X120690476Y-25759580D01*
X120690476Y-25759580D02*
X120642857Y-25807200D01*
X120642857Y-25807200D02*
X120547619Y-25854819D01*
X120547619Y-25854819D02*
X120452381Y-25854819D01*
X120452381Y-25854819D02*
X120357143Y-25807200D01*
X120357143Y-25807200D02*
X120309524Y-25759580D01*
X120309524Y-25759580D02*
X120261905Y-25664342D01*
X120261905Y-25664342D02*
X120214286Y-25473866D01*
X120214286Y-25473866D02*
X120214286Y-25235771D01*
X120214286Y-25235771D02*
X120261905Y-25045295D01*
X120261905Y-25045295D02*
X120309524Y-24950057D01*
X120309524Y-24950057D02*
X120357143Y-24902438D01*
X120357143Y-24902438D02*
X120452381Y-24854819D01*
X121166667Y-24950057D02*
X121214286Y-24902438D01*
X121214286Y-24902438D02*
X121309524Y-24854819D01*
X121309524Y-24854819D02*
X121547619Y-24854819D01*
X121547619Y-24854819D02*
X121642857Y-24902438D01*
X121642857Y-24902438D02*
X121690476Y-24950057D01*
X121690476Y-24950057D02*
X121738095Y-25045295D01*
X121738095Y-25045295D02*
X121738095Y-25140533D01*
X121738095Y-25140533D02*
X121690476Y-25283390D01*
X121690476Y-25283390D02*
X121119048Y-25854819D01*
X121119048Y-25854819D02*
X121738095Y-25854819D01*
X121880952Y-30679580D02*
X121833333Y-30727200D01*
X121833333Y-30727200D02*
X121690476Y-30774819D01*
X121690476Y-30774819D02*
X121595238Y-30774819D01*
X121595238Y-30774819D02*
X121452381Y-30727200D01*
X121452381Y-30727200D02*
X121357143Y-30631961D01*
X121357143Y-30631961D02*
X121309524Y-30536723D01*
X121309524Y-30536723D02*
X121261905Y-30346247D01*
X121261905Y-30346247D02*
X121261905Y-30203390D01*
X121261905Y-30203390D02*
X121309524Y-30012914D01*
X121309524Y-30012914D02*
X121357143Y-29917676D01*
X121357143Y-29917676D02*
X121452381Y-29822438D01*
X121452381Y-29822438D02*
X121595238Y-29774819D01*
X121595238Y-29774819D02*
X121690476Y-29774819D01*
X121690476Y-29774819D02*
X121833333Y-29822438D01*
X121833333Y-29822438D02*
X121880952Y-29870057D01*
X122833333Y-30774819D02*
X122261905Y-30774819D01*
X122547619Y-30774819D02*
X122547619Y-29774819D01*
X122547619Y-29774819D02*
X122452381Y-29917676D01*
X122452381Y-29917676D02*
X122357143Y-30012914D01*
X122357143Y-30012914D02*
X122261905Y-30060533D01*
X123452381Y-29774819D02*
X123547619Y-29774819D01*
X123547619Y-29774819D02*
X123642857Y-29822438D01*
X123642857Y-29822438D02*
X123690476Y-29870057D01*
X123690476Y-29870057D02*
X123738095Y-29965295D01*
X123738095Y-29965295D02*
X123785714Y-30155771D01*
X123785714Y-30155771D02*
X123785714Y-30393866D01*
X123785714Y-30393866D02*
X123738095Y-30584342D01*
X123738095Y-30584342D02*
X123690476Y-30679580D01*
X123690476Y-30679580D02*
X123642857Y-30727200D01*
X123642857Y-30727200D02*
X123547619Y-30774819D01*
X123547619Y-30774819D02*
X123452381Y-30774819D01*
X123452381Y-30774819D02*
X123357143Y-30727200D01*
X123357143Y-30727200D02*
X123309524Y-30679580D01*
X123309524Y-30679580D02*
X123261905Y-30584342D01*
X123261905Y-30584342D02*
X123214286Y-30393866D01*
X123214286Y-30393866D02*
X123214286Y-30155771D01*
X123214286Y-30155771D02*
X123261905Y-29965295D01*
X123261905Y-29965295D02*
X123309524Y-29870057D01*
X123309524Y-29870057D02*
X123357143Y-29822438D01*
X123357143Y-29822438D02*
X123452381Y-29774819D01*
X124166667Y-29870057D02*
X124214286Y-29822438D01*
X124214286Y-29822438D02*
X124309524Y-29774819D01*
X124309524Y-29774819D02*
X124547619Y-29774819D01*
X124547619Y-29774819D02*
X124642857Y-29822438D01*
X124642857Y-29822438D02*
X124690476Y-29870057D01*
X124690476Y-29870057D02*
X124738095Y-29965295D01*
X124738095Y-29965295D02*
X124738095Y-30060533D01*
X124738095Y-30060533D02*
X124690476Y-30203390D01*
X124690476Y-30203390D02*
X124119048Y-30774819D01*
X124119048Y-30774819D02*
X124738095Y-30774819D01*
X61880952Y-30679580D02*
X61833333Y-30727200D01*
X61833333Y-30727200D02*
X61690476Y-30774819D01*
X61690476Y-30774819D02*
X61595238Y-30774819D01*
X61595238Y-30774819D02*
X61452381Y-30727200D01*
X61452381Y-30727200D02*
X61357143Y-30631961D01*
X61357143Y-30631961D02*
X61309524Y-30536723D01*
X61309524Y-30536723D02*
X61261905Y-30346247D01*
X61261905Y-30346247D02*
X61261905Y-30203390D01*
X61261905Y-30203390D02*
X61309524Y-30012914D01*
X61309524Y-30012914D02*
X61357143Y-29917676D01*
X61357143Y-29917676D02*
X61452381Y-29822438D01*
X61452381Y-29822438D02*
X61595238Y-29774819D01*
X61595238Y-29774819D02*
X61690476Y-29774819D01*
X61690476Y-29774819D02*
X61833333Y-29822438D01*
X61833333Y-29822438D02*
X61880952Y-29870057D01*
X62833333Y-30774819D02*
X62261905Y-30774819D01*
X62547619Y-30774819D02*
X62547619Y-29774819D01*
X62547619Y-29774819D02*
X62452381Y-29917676D01*
X62452381Y-29917676D02*
X62357143Y-30012914D01*
X62357143Y-30012914D02*
X62261905Y-30060533D01*
X63452381Y-29774819D02*
X63547619Y-29774819D01*
X63547619Y-29774819D02*
X63642857Y-29822438D01*
X63642857Y-29822438D02*
X63690476Y-29870057D01*
X63690476Y-29870057D02*
X63738095Y-29965295D01*
X63738095Y-29965295D02*
X63785714Y-30155771D01*
X63785714Y-30155771D02*
X63785714Y-30393866D01*
X63785714Y-30393866D02*
X63738095Y-30584342D01*
X63738095Y-30584342D02*
X63690476Y-30679580D01*
X63690476Y-30679580D02*
X63642857Y-30727200D01*
X63642857Y-30727200D02*
X63547619Y-30774819D01*
X63547619Y-30774819D02*
X63452381Y-30774819D01*
X63452381Y-30774819D02*
X63357143Y-30727200D01*
X63357143Y-30727200D02*
X63309524Y-30679580D01*
X63309524Y-30679580D02*
X63261905Y-30584342D01*
X63261905Y-30584342D02*
X63214286Y-30393866D01*
X63214286Y-30393866D02*
X63214286Y-30155771D01*
X63214286Y-30155771D02*
X63261905Y-29965295D01*
X63261905Y-29965295D02*
X63309524Y-29870057D01*
X63309524Y-29870057D02*
X63357143Y-29822438D01*
X63357143Y-29822438D02*
X63452381Y-29774819D01*
X64738095Y-30774819D02*
X64166667Y-30774819D01*
X64452381Y-30774819D02*
X64452381Y-29774819D01*
X64452381Y-29774819D02*
X64357143Y-29917676D01*
X64357143Y-29917676D02*
X64261905Y-30012914D01*
X64261905Y-30012914D02*
X64166667Y-30060533D01*
X241880952Y-30679580D02*
X241833333Y-30727200D01*
X241833333Y-30727200D02*
X241690476Y-30774819D01*
X241690476Y-30774819D02*
X241595238Y-30774819D01*
X241595238Y-30774819D02*
X241452381Y-30727200D01*
X241452381Y-30727200D02*
X241357143Y-30631961D01*
X241357143Y-30631961D02*
X241309524Y-30536723D01*
X241309524Y-30536723D02*
X241261905Y-30346247D01*
X241261905Y-30346247D02*
X241261905Y-30203390D01*
X241261905Y-30203390D02*
X241309524Y-30012914D01*
X241309524Y-30012914D02*
X241357143Y-29917676D01*
X241357143Y-29917676D02*
X241452381Y-29822438D01*
X241452381Y-29822438D02*
X241595238Y-29774819D01*
X241595238Y-29774819D02*
X241690476Y-29774819D01*
X241690476Y-29774819D02*
X241833333Y-29822438D01*
X241833333Y-29822438D02*
X241880952Y-29870057D01*
X242833333Y-30774819D02*
X242261905Y-30774819D01*
X242547619Y-30774819D02*
X242547619Y-29774819D01*
X242547619Y-29774819D02*
X242452381Y-29917676D01*
X242452381Y-29917676D02*
X242357143Y-30012914D01*
X242357143Y-30012914D02*
X242261905Y-30060533D01*
X243452381Y-29774819D02*
X243547619Y-29774819D01*
X243547619Y-29774819D02*
X243642857Y-29822438D01*
X243642857Y-29822438D02*
X243690476Y-29870057D01*
X243690476Y-29870057D02*
X243738095Y-29965295D01*
X243738095Y-29965295D02*
X243785714Y-30155771D01*
X243785714Y-30155771D02*
X243785714Y-30393866D01*
X243785714Y-30393866D02*
X243738095Y-30584342D01*
X243738095Y-30584342D02*
X243690476Y-30679580D01*
X243690476Y-30679580D02*
X243642857Y-30727200D01*
X243642857Y-30727200D02*
X243547619Y-30774819D01*
X243547619Y-30774819D02*
X243452381Y-30774819D01*
X243452381Y-30774819D02*
X243357143Y-30727200D01*
X243357143Y-30727200D02*
X243309524Y-30679580D01*
X243309524Y-30679580D02*
X243261905Y-30584342D01*
X243261905Y-30584342D02*
X243214286Y-30393866D01*
X243214286Y-30393866D02*
X243214286Y-30155771D01*
X243214286Y-30155771D02*
X243261905Y-29965295D01*
X243261905Y-29965295D02*
X243309524Y-29870057D01*
X243309524Y-29870057D02*
X243357143Y-29822438D01*
X243357143Y-29822438D02*
X243452381Y-29774819D01*
X244642857Y-30108152D02*
X244642857Y-30774819D01*
X244404762Y-29727200D02*
X244166667Y-30441485D01*
X244166667Y-30441485D02*
X244785714Y-30441485D01*
X111238095Y-126174819D02*
X111238095Y-126984342D01*
X111238095Y-126984342D02*
X111285714Y-127079580D01*
X111285714Y-127079580D02*
X111333333Y-127127200D01*
X111333333Y-127127200D02*
X111428571Y-127174819D01*
X111428571Y-127174819D02*
X111619047Y-127174819D01*
X111619047Y-127174819D02*
X111714285Y-127127200D01*
X111714285Y-127127200D02*
X111761904Y-127079580D01*
X111761904Y-127079580D02*
X111809523Y-126984342D01*
X111809523Y-126984342D02*
X111809523Y-126174819D01*
X112238095Y-126270057D02*
X112285714Y-126222438D01*
X112285714Y-126222438D02*
X112380952Y-126174819D01*
X112380952Y-126174819D02*
X112619047Y-126174819D01*
X112619047Y-126174819D02*
X112714285Y-126222438D01*
X112714285Y-126222438D02*
X112761904Y-126270057D01*
X112761904Y-126270057D02*
X112809523Y-126365295D01*
X112809523Y-126365295D02*
X112809523Y-126460533D01*
X112809523Y-126460533D02*
X112761904Y-126603390D01*
X112761904Y-126603390D02*
X112190476Y-127174819D01*
X112190476Y-127174819D02*
X112809523Y-127174819D01*
X298309524Y-25854819D02*
X298309524Y-24854819D01*
X298309524Y-24854819D02*
X298547619Y-24854819D01*
X298547619Y-24854819D02*
X298690476Y-24902438D01*
X298690476Y-24902438D02*
X298785714Y-24997676D01*
X298785714Y-24997676D02*
X298833333Y-25092914D01*
X298833333Y-25092914D02*
X298880952Y-25283390D01*
X298880952Y-25283390D02*
X298880952Y-25426247D01*
X298880952Y-25426247D02*
X298833333Y-25616723D01*
X298833333Y-25616723D02*
X298785714Y-25711961D01*
X298785714Y-25711961D02*
X298690476Y-25807200D01*
X298690476Y-25807200D02*
X298547619Y-25854819D01*
X298547619Y-25854819D02*
X298309524Y-25854819D01*
X299833333Y-25854819D02*
X299261905Y-25854819D01*
X299547619Y-25854819D02*
X299547619Y-24854819D01*
X299547619Y-24854819D02*
X299452381Y-24997676D01*
X299452381Y-24997676D02*
X299357143Y-25092914D01*
X299357143Y-25092914D02*
X299261905Y-25140533D01*
X300452381Y-24854819D02*
X300547619Y-24854819D01*
X300547619Y-24854819D02*
X300642857Y-24902438D01*
X300642857Y-24902438D02*
X300690476Y-24950057D01*
X300690476Y-24950057D02*
X300738095Y-25045295D01*
X300738095Y-25045295D02*
X300785714Y-25235771D01*
X300785714Y-25235771D02*
X300785714Y-25473866D01*
X300785714Y-25473866D02*
X300738095Y-25664342D01*
X300738095Y-25664342D02*
X300690476Y-25759580D01*
X300690476Y-25759580D02*
X300642857Y-25807200D01*
X300642857Y-25807200D02*
X300547619Y-25854819D01*
X300547619Y-25854819D02*
X300452381Y-25854819D01*
X300452381Y-25854819D02*
X300357143Y-25807200D01*
X300357143Y-25807200D02*
X300309524Y-25759580D01*
X300309524Y-25759580D02*
X300261905Y-25664342D01*
X300261905Y-25664342D02*
X300214286Y-25473866D01*
X300214286Y-25473866D02*
X300214286Y-25235771D01*
X300214286Y-25235771D02*
X300261905Y-25045295D01*
X300261905Y-25045295D02*
X300309524Y-24950057D01*
X300309524Y-24950057D02*
X300357143Y-24902438D01*
X300357143Y-24902438D02*
X300452381Y-24854819D01*
X301690476Y-24854819D02*
X301214286Y-24854819D01*
X301214286Y-24854819D02*
X301166667Y-25331009D01*
X301166667Y-25331009D02*
X301214286Y-25283390D01*
X301214286Y-25283390D02*
X301309524Y-25235771D01*
X301309524Y-25235771D02*
X301547619Y-25235771D01*
X301547619Y-25235771D02*
X301642857Y-25283390D01*
X301642857Y-25283390D02*
X301690476Y-25331009D01*
X301690476Y-25331009D02*
X301738095Y-25426247D01*
X301738095Y-25426247D02*
X301738095Y-25664342D01*
X301738095Y-25664342D02*
X301690476Y-25759580D01*
X301690476Y-25759580D02*
X301642857Y-25807200D01*
X301642857Y-25807200D02*
X301547619Y-25854819D01*
X301547619Y-25854819D02*
X301309524Y-25854819D01*
X301309524Y-25854819D02*
X301214286Y-25807200D01*
X301214286Y-25807200D02*
X301166667Y-25759580D01*
X301880952Y-30679580D02*
X301833333Y-30727200D01*
X301833333Y-30727200D02*
X301690476Y-30774819D01*
X301690476Y-30774819D02*
X301595238Y-30774819D01*
X301595238Y-30774819D02*
X301452381Y-30727200D01*
X301452381Y-30727200D02*
X301357143Y-30631961D01*
X301357143Y-30631961D02*
X301309524Y-30536723D01*
X301309524Y-30536723D02*
X301261905Y-30346247D01*
X301261905Y-30346247D02*
X301261905Y-30203390D01*
X301261905Y-30203390D02*
X301309524Y-30012914D01*
X301309524Y-30012914D02*
X301357143Y-29917676D01*
X301357143Y-29917676D02*
X301452381Y-29822438D01*
X301452381Y-29822438D02*
X301595238Y-29774819D01*
X301595238Y-29774819D02*
X301690476Y-29774819D01*
X301690476Y-29774819D02*
X301833333Y-29822438D01*
X301833333Y-29822438D02*
X301880952Y-29870057D01*
X302833333Y-30774819D02*
X302261905Y-30774819D01*
X302547619Y-30774819D02*
X302547619Y-29774819D01*
X302547619Y-29774819D02*
X302452381Y-29917676D01*
X302452381Y-29917676D02*
X302357143Y-30012914D01*
X302357143Y-30012914D02*
X302261905Y-30060533D01*
X303452381Y-29774819D02*
X303547619Y-29774819D01*
X303547619Y-29774819D02*
X303642857Y-29822438D01*
X303642857Y-29822438D02*
X303690476Y-29870057D01*
X303690476Y-29870057D02*
X303738095Y-29965295D01*
X303738095Y-29965295D02*
X303785714Y-30155771D01*
X303785714Y-30155771D02*
X303785714Y-30393866D01*
X303785714Y-30393866D02*
X303738095Y-30584342D01*
X303738095Y-30584342D02*
X303690476Y-30679580D01*
X303690476Y-30679580D02*
X303642857Y-30727200D01*
X303642857Y-30727200D02*
X303547619Y-30774819D01*
X303547619Y-30774819D02*
X303452381Y-30774819D01*
X303452381Y-30774819D02*
X303357143Y-30727200D01*
X303357143Y-30727200D02*
X303309524Y-30679580D01*
X303309524Y-30679580D02*
X303261905Y-30584342D01*
X303261905Y-30584342D02*
X303214286Y-30393866D01*
X303214286Y-30393866D02*
X303214286Y-30155771D01*
X303214286Y-30155771D02*
X303261905Y-29965295D01*
X303261905Y-29965295D02*
X303309524Y-29870057D01*
X303309524Y-29870057D02*
X303357143Y-29822438D01*
X303357143Y-29822438D02*
X303452381Y-29774819D01*
X304690476Y-29774819D02*
X304214286Y-29774819D01*
X304214286Y-29774819D02*
X304166667Y-30251009D01*
X304166667Y-30251009D02*
X304214286Y-30203390D01*
X304214286Y-30203390D02*
X304309524Y-30155771D01*
X304309524Y-30155771D02*
X304547619Y-30155771D01*
X304547619Y-30155771D02*
X304642857Y-30203390D01*
X304642857Y-30203390D02*
X304690476Y-30251009D01*
X304690476Y-30251009D02*
X304738095Y-30346247D01*
X304738095Y-30346247D02*
X304738095Y-30584342D01*
X304738095Y-30584342D02*
X304690476Y-30679580D01*
X304690476Y-30679580D02*
X304642857Y-30727200D01*
X304642857Y-30727200D02*
X304547619Y-30774819D01*
X304547619Y-30774819D02*
X304309524Y-30774819D01*
X304309524Y-30774819D02*
X304214286Y-30727200D01*
X304214286Y-30727200D02*
X304166667Y-30679580D01*
X94666666Y-23074819D02*
X94666666Y-23789104D01*
X94666666Y-23789104D02*
X94619047Y-23931961D01*
X94619047Y-23931961D02*
X94523809Y-24027200D01*
X94523809Y-24027200D02*
X94380952Y-24074819D01*
X94380952Y-24074819D02*
X94285714Y-24074819D01*
X95666666Y-24074819D02*
X95095238Y-24074819D01*
X95380952Y-24074819D02*
X95380952Y-23074819D01*
X95380952Y-23074819D02*
X95285714Y-23217676D01*
X95285714Y-23217676D02*
X95190476Y-23312914D01*
X95190476Y-23312914D02*
X95095238Y-23360533D01*
X110880952Y-136679580D02*
X110833333Y-136727200D01*
X110833333Y-136727200D02*
X110690476Y-136774819D01*
X110690476Y-136774819D02*
X110595238Y-136774819D01*
X110595238Y-136774819D02*
X110452381Y-136727200D01*
X110452381Y-136727200D02*
X110357143Y-136631961D01*
X110357143Y-136631961D02*
X110309524Y-136536723D01*
X110309524Y-136536723D02*
X110261905Y-136346247D01*
X110261905Y-136346247D02*
X110261905Y-136203390D01*
X110261905Y-136203390D02*
X110309524Y-136012914D01*
X110309524Y-136012914D02*
X110357143Y-135917676D01*
X110357143Y-135917676D02*
X110452381Y-135822438D01*
X110452381Y-135822438D02*
X110595238Y-135774819D01*
X110595238Y-135774819D02*
X110690476Y-135774819D01*
X110690476Y-135774819D02*
X110833333Y-135822438D01*
X110833333Y-135822438D02*
X110880952Y-135870057D01*
X111833333Y-136774819D02*
X111261905Y-136774819D01*
X111547619Y-136774819D02*
X111547619Y-135774819D01*
X111547619Y-135774819D02*
X111452381Y-135917676D01*
X111452381Y-135917676D02*
X111357143Y-136012914D01*
X111357143Y-136012914D02*
X111261905Y-136060533D01*
X112452381Y-135774819D02*
X112547619Y-135774819D01*
X112547619Y-135774819D02*
X112642857Y-135822438D01*
X112642857Y-135822438D02*
X112690476Y-135870057D01*
X112690476Y-135870057D02*
X112738095Y-135965295D01*
X112738095Y-135965295D02*
X112785714Y-136155771D01*
X112785714Y-136155771D02*
X112785714Y-136393866D01*
X112785714Y-136393866D02*
X112738095Y-136584342D01*
X112738095Y-136584342D02*
X112690476Y-136679580D01*
X112690476Y-136679580D02*
X112642857Y-136727200D01*
X112642857Y-136727200D02*
X112547619Y-136774819D01*
X112547619Y-136774819D02*
X112452381Y-136774819D01*
X112452381Y-136774819D02*
X112357143Y-136727200D01*
X112357143Y-136727200D02*
X112309524Y-136679580D01*
X112309524Y-136679580D02*
X112261905Y-136584342D01*
X112261905Y-136584342D02*
X112214286Y-136393866D01*
X112214286Y-136393866D02*
X112214286Y-136155771D01*
X112214286Y-136155771D02*
X112261905Y-135965295D01*
X112261905Y-135965295D02*
X112309524Y-135870057D01*
X112309524Y-135870057D02*
X112357143Y-135822438D01*
X112357143Y-135822438D02*
X112452381Y-135774819D01*
X113642857Y-135774819D02*
X113452381Y-135774819D01*
X113452381Y-135774819D02*
X113357143Y-135822438D01*
X113357143Y-135822438D02*
X113309524Y-135870057D01*
X113309524Y-135870057D02*
X113214286Y-136012914D01*
X113214286Y-136012914D02*
X113166667Y-136203390D01*
X113166667Y-136203390D02*
X113166667Y-136584342D01*
X113166667Y-136584342D02*
X113214286Y-136679580D01*
X113214286Y-136679580D02*
X113261905Y-136727200D01*
X113261905Y-136727200D02*
X113357143Y-136774819D01*
X113357143Y-136774819D02*
X113547619Y-136774819D01*
X113547619Y-136774819D02*
X113642857Y-136727200D01*
X113642857Y-136727200D02*
X113690476Y-136679580D01*
X113690476Y-136679580D02*
X113738095Y-136584342D01*
X113738095Y-136584342D02*
X113738095Y-136346247D01*
X113738095Y-136346247D02*
X113690476Y-136251009D01*
X113690476Y-136251009D02*
X113642857Y-136203390D01*
X113642857Y-136203390D02*
X113547619Y-136155771D01*
X113547619Y-136155771D02*
X113357143Y-136155771D01*
X113357143Y-136155771D02*
X113261905Y-136203390D01*
X113261905Y-136203390D02*
X113214286Y-136251009D01*
X113214286Y-136251009D02*
X113166667Y-136346247D01*
X316085714Y-19231009D02*
X316419047Y-19231009D01*
X316561904Y-19754819D02*
X316085714Y-19754819D01*
X316085714Y-19754819D02*
X316085714Y-18754819D01*
X316085714Y-18754819D02*
X316561904Y-18754819D01*
X316990476Y-19754819D02*
X316990476Y-18754819D01*
X316990476Y-18754819D02*
X317561904Y-19754819D01*
X317561904Y-19754819D02*
X317561904Y-18754819D01*
X318609523Y-19659580D02*
X318561904Y-19707200D01*
X318561904Y-19707200D02*
X318419047Y-19754819D01*
X318419047Y-19754819D02*
X318323809Y-19754819D01*
X318323809Y-19754819D02*
X318180952Y-19707200D01*
X318180952Y-19707200D02*
X318085714Y-19611961D01*
X318085714Y-19611961D02*
X318038095Y-19516723D01*
X318038095Y-19516723D02*
X317990476Y-19326247D01*
X317990476Y-19326247D02*
X317990476Y-19183390D01*
X317990476Y-19183390D02*
X318038095Y-18992914D01*
X318038095Y-18992914D02*
X318085714Y-18897676D01*
X318085714Y-18897676D02*
X318180952Y-18802438D01*
X318180952Y-18802438D02*
X318323809Y-18754819D01*
X318323809Y-18754819D02*
X318419047Y-18754819D01*
X318419047Y-18754819D02*
X318561904Y-18802438D01*
X318561904Y-18802438D02*
X318609523Y-18850057D01*
X319561904Y-19754819D02*
X318990476Y-19754819D01*
X319276190Y-19754819D02*
X319276190Y-18754819D01*
X319276190Y-18754819D02*
X319180952Y-18897676D01*
X319180952Y-18897676D02*
X319085714Y-18992914D01*
X319085714Y-18992914D02*
X318990476Y-19040533D01*
X178309524Y-25854819D02*
X178309524Y-24854819D01*
X178309524Y-24854819D02*
X178547619Y-24854819D01*
X178547619Y-24854819D02*
X178690476Y-24902438D01*
X178690476Y-24902438D02*
X178785714Y-24997676D01*
X178785714Y-24997676D02*
X178833333Y-25092914D01*
X178833333Y-25092914D02*
X178880952Y-25283390D01*
X178880952Y-25283390D02*
X178880952Y-25426247D01*
X178880952Y-25426247D02*
X178833333Y-25616723D01*
X178833333Y-25616723D02*
X178785714Y-25711961D01*
X178785714Y-25711961D02*
X178690476Y-25807200D01*
X178690476Y-25807200D02*
X178547619Y-25854819D01*
X178547619Y-25854819D02*
X178309524Y-25854819D01*
X179833333Y-25854819D02*
X179261905Y-25854819D01*
X179547619Y-25854819D02*
X179547619Y-24854819D01*
X179547619Y-24854819D02*
X179452381Y-24997676D01*
X179452381Y-24997676D02*
X179357143Y-25092914D01*
X179357143Y-25092914D02*
X179261905Y-25140533D01*
X180452381Y-24854819D02*
X180547619Y-24854819D01*
X180547619Y-24854819D02*
X180642857Y-24902438D01*
X180642857Y-24902438D02*
X180690476Y-24950057D01*
X180690476Y-24950057D02*
X180738095Y-25045295D01*
X180738095Y-25045295D02*
X180785714Y-25235771D01*
X180785714Y-25235771D02*
X180785714Y-25473866D01*
X180785714Y-25473866D02*
X180738095Y-25664342D01*
X180738095Y-25664342D02*
X180690476Y-25759580D01*
X180690476Y-25759580D02*
X180642857Y-25807200D01*
X180642857Y-25807200D02*
X180547619Y-25854819D01*
X180547619Y-25854819D02*
X180452381Y-25854819D01*
X180452381Y-25854819D02*
X180357143Y-25807200D01*
X180357143Y-25807200D02*
X180309524Y-25759580D01*
X180309524Y-25759580D02*
X180261905Y-25664342D01*
X180261905Y-25664342D02*
X180214286Y-25473866D01*
X180214286Y-25473866D02*
X180214286Y-25235771D01*
X180214286Y-25235771D02*
X180261905Y-25045295D01*
X180261905Y-25045295D02*
X180309524Y-24950057D01*
X180309524Y-24950057D02*
X180357143Y-24902438D01*
X180357143Y-24902438D02*
X180452381Y-24854819D01*
X181119048Y-24854819D02*
X181738095Y-24854819D01*
X181738095Y-24854819D02*
X181404762Y-25235771D01*
X181404762Y-25235771D02*
X181547619Y-25235771D01*
X181547619Y-25235771D02*
X181642857Y-25283390D01*
X181642857Y-25283390D02*
X181690476Y-25331009D01*
X181690476Y-25331009D02*
X181738095Y-25426247D01*
X181738095Y-25426247D02*
X181738095Y-25664342D01*
X181738095Y-25664342D02*
X181690476Y-25759580D01*
X181690476Y-25759580D02*
X181642857Y-25807200D01*
X181642857Y-25807200D02*
X181547619Y-25854819D01*
X181547619Y-25854819D02*
X181261905Y-25854819D01*
X181261905Y-25854819D02*
X181166667Y-25807200D01*
X181166667Y-25807200D02*
X181119048Y-25759580D01*
X58309524Y-25854819D02*
X58309524Y-24854819D01*
X58309524Y-24854819D02*
X58547619Y-24854819D01*
X58547619Y-24854819D02*
X58690476Y-24902438D01*
X58690476Y-24902438D02*
X58785714Y-24997676D01*
X58785714Y-24997676D02*
X58833333Y-25092914D01*
X58833333Y-25092914D02*
X58880952Y-25283390D01*
X58880952Y-25283390D02*
X58880952Y-25426247D01*
X58880952Y-25426247D02*
X58833333Y-25616723D01*
X58833333Y-25616723D02*
X58785714Y-25711961D01*
X58785714Y-25711961D02*
X58690476Y-25807200D01*
X58690476Y-25807200D02*
X58547619Y-25854819D01*
X58547619Y-25854819D02*
X58309524Y-25854819D01*
X59833333Y-25854819D02*
X59261905Y-25854819D01*
X59547619Y-25854819D02*
X59547619Y-24854819D01*
X59547619Y-24854819D02*
X59452381Y-24997676D01*
X59452381Y-24997676D02*
X59357143Y-25092914D01*
X59357143Y-25092914D02*
X59261905Y-25140533D01*
X60452381Y-24854819D02*
X60547619Y-24854819D01*
X60547619Y-24854819D02*
X60642857Y-24902438D01*
X60642857Y-24902438D02*
X60690476Y-24950057D01*
X60690476Y-24950057D02*
X60738095Y-25045295D01*
X60738095Y-25045295D02*
X60785714Y-25235771D01*
X60785714Y-25235771D02*
X60785714Y-25473866D01*
X60785714Y-25473866D02*
X60738095Y-25664342D01*
X60738095Y-25664342D02*
X60690476Y-25759580D01*
X60690476Y-25759580D02*
X60642857Y-25807200D01*
X60642857Y-25807200D02*
X60547619Y-25854819D01*
X60547619Y-25854819D02*
X60452381Y-25854819D01*
X60452381Y-25854819D02*
X60357143Y-25807200D01*
X60357143Y-25807200D02*
X60309524Y-25759580D01*
X60309524Y-25759580D02*
X60261905Y-25664342D01*
X60261905Y-25664342D02*
X60214286Y-25473866D01*
X60214286Y-25473866D02*
X60214286Y-25235771D01*
X60214286Y-25235771D02*
X60261905Y-25045295D01*
X60261905Y-25045295D02*
X60309524Y-24950057D01*
X60309524Y-24950057D02*
X60357143Y-24902438D01*
X60357143Y-24902438D02*
X60452381Y-24854819D01*
X61738095Y-25854819D02*
X61166667Y-25854819D01*
X61452381Y-25854819D02*
X61452381Y-24854819D01*
X61452381Y-24854819D02*
X61357143Y-24997676D01*
X61357143Y-24997676D02*
X61261905Y-25092914D01*
X61261905Y-25092914D02*
X61166667Y-25140533D01*
X85833333Y-18804819D02*
X85500000Y-18328628D01*
X85261905Y-18804819D02*
X85261905Y-17804819D01*
X85261905Y-17804819D02*
X85642857Y-17804819D01*
X85642857Y-17804819D02*
X85738095Y-17852438D01*
X85738095Y-17852438D02*
X85785714Y-17900057D01*
X85785714Y-17900057D02*
X85833333Y-17995295D01*
X85833333Y-17995295D02*
X85833333Y-18138152D01*
X85833333Y-18138152D02*
X85785714Y-18233390D01*
X85785714Y-18233390D02*
X85738095Y-18281009D01*
X85738095Y-18281009D02*
X85642857Y-18328628D01*
X85642857Y-18328628D02*
X85261905Y-18328628D01*
X86214286Y-17900057D02*
X86261905Y-17852438D01*
X86261905Y-17852438D02*
X86357143Y-17804819D01*
X86357143Y-17804819D02*
X86595238Y-17804819D01*
X86595238Y-17804819D02*
X86690476Y-17852438D01*
X86690476Y-17852438D02*
X86738095Y-17900057D01*
X86738095Y-17900057D02*
X86785714Y-17995295D01*
X86785714Y-17995295D02*
X86785714Y-18090533D01*
X86785714Y-18090533D02*
X86738095Y-18233390D01*
X86738095Y-18233390D02*
X86166667Y-18804819D01*
X86166667Y-18804819D02*
X86785714Y-18804819D01*
X238309524Y-25854819D02*
X238309524Y-24854819D01*
X238309524Y-24854819D02*
X238547619Y-24854819D01*
X238547619Y-24854819D02*
X238690476Y-24902438D01*
X238690476Y-24902438D02*
X238785714Y-24997676D01*
X238785714Y-24997676D02*
X238833333Y-25092914D01*
X238833333Y-25092914D02*
X238880952Y-25283390D01*
X238880952Y-25283390D02*
X238880952Y-25426247D01*
X238880952Y-25426247D02*
X238833333Y-25616723D01*
X238833333Y-25616723D02*
X238785714Y-25711961D01*
X238785714Y-25711961D02*
X238690476Y-25807200D01*
X238690476Y-25807200D02*
X238547619Y-25854819D01*
X238547619Y-25854819D02*
X238309524Y-25854819D01*
X239833333Y-25854819D02*
X239261905Y-25854819D01*
X239547619Y-25854819D02*
X239547619Y-24854819D01*
X239547619Y-24854819D02*
X239452381Y-24997676D01*
X239452381Y-24997676D02*
X239357143Y-25092914D01*
X239357143Y-25092914D02*
X239261905Y-25140533D01*
X240452381Y-24854819D02*
X240547619Y-24854819D01*
X240547619Y-24854819D02*
X240642857Y-24902438D01*
X240642857Y-24902438D02*
X240690476Y-24950057D01*
X240690476Y-24950057D02*
X240738095Y-25045295D01*
X240738095Y-25045295D02*
X240785714Y-25235771D01*
X240785714Y-25235771D02*
X240785714Y-25473866D01*
X240785714Y-25473866D02*
X240738095Y-25664342D01*
X240738095Y-25664342D02*
X240690476Y-25759580D01*
X240690476Y-25759580D02*
X240642857Y-25807200D01*
X240642857Y-25807200D02*
X240547619Y-25854819D01*
X240547619Y-25854819D02*
X240452381Y-25854819D01*
X240452381Y-25854819D02*
X240357143Y-25807200D01*
X240357143Y-25807200D02*
X240309524Y-25759580D01*
X240309524Y-25759580D02*
X240261905Y-25664342D01*
X240261905Y-25664342D02*
X240214286Y-25473866D01*
X240214286Y-25473866D02*
X240214286Y-25235771D01*
X240214286Y-25235771D02*
X240261905Y-25045295D01*
X240261905Y-25045295D02*
X240309524Y-24950057D01*
X240309524Y-24950057D02*
X240357143Y-24902438D01*
X240357143Y-24902438D02*
X240452381Y-24854819D01*
X241642857Y-25188152D02*
X241642857Y-25854819D01*
X241404762Y-24807200D02*
X241166667Y-25521485D01*
X241166667Y-25521485D02*
X241785714Y-25521485D01*
%TO.C,U1*%
D11*
X178220000Y-119000000D02*
X179040000Y-119000000D01*
X178220000Y-127220000D02*
X178220000Y-119000000D01*
X178220000Y-127220000D02*
X179040000Y-127220000D01*
X179040000Y-119000000D02*
X179040000Y-119210000D01*
X179040000Y-119210000D02*
X180436000Y-119210000D01*
X179040000Y-127010000D02*
X180436000Y-127010000D01*
X179040000Y-127220000D02*
X179040000Y-127010000D01*
X179520000Y-113110000D02*
X179520000Y-115600000D01*
X179520000Y-115600000D02*
X180433520Y-115600000D01*
X179520000Y-116947939D02*
X179520000Y-115600000D01*
X179520000Y-118875000D02*
X179520000Y-117872061D01*
X179520000Y-127345000D02*
X179520000Y-118875000D01*
X179520000Y-128347939D02*
X179520000Y-127345000D01*
X179520000Y-130620000D02*
X179520000Y-129272060D01*
X179520000Y-130620000D02*
X180433520Y-130620000D01*
X179520000Y-133110000D02*
X179520000Y-130620000D01*
X179583000Y-133380000D02*
X230677000Y-133380000D01*
X180130000Y-112500000D02*
X230130000Y-112500000D01*
X180130000Y-133720000D02*
X230130000Y-133720000D01*
X181800000Y-134040000D02*
X180200000Y-134040000D01*
X182824000Y-119210000D02*
X184040000Y-119210000D01*
X182824000Y-127010000D02*
X184040000Y-127010000D01*
X182826480Y-115600000D02*
X227433520Y-115600000D01*
X182826480Y-130620000D02*
X227433520Y-130620000D01*
X184040000Y-119210000D02*
X184040000Y-127010000D01*
X229826480Y-115600000D02*
X230740000Y-115600000D01*
X229826480Y-130620000D02*
X230740000Y-130620000D01*
X230677000Y-112840000D02*
X179583000Y-112840000D01*
X230740000Y-116947939D02*
X230740000Y-113110000D01*
X230740000Y-117872061D02*
X230740000Y-119510000D01*
X230740000Y-119510000D02*
X230740000Y-126710000D01*
X230740000Y-126710000D02*
X230740000Y-128347939D01*
X230740000Y-133110000D02*
X230740000Y-129272061D01*
X179520000Y-113110000D02*
G75*
G02*
X180130000Y-112500000I610000J0D01*
G01*
X180130000Y-133720000D02*
G75*
G02*
X179520000Y-133110000I0J610000D01*
G01*
X230130000Y-112500000D02*
G75*
G02*
X230740000Y-113110000I0J-610000D01*
G01*
X230740000Y-133110000D02*
G75*
G02*
X230130000Y-133720000I-609901J-99D01*
G01*
%TO.C,C103*%
X182738748Y-31265000D02*
X183261252Y-31265000D01*
X182738748Y-32735000D02*
X183261252Y-32735000D01*
%TO.C,R1*%
X79772936Y-19265000D02*
X80227064Y-19265000D01*
X79772936Y-20735000D02*
X80227064Y-20735000D01*
%TO.C,D102*%
X116350000Y-26125000D02*
X123650000Y-26125000D01*
X116350000Y-29150000D02*
X116350000Y-26125000D01*
X116350000Y-29150000D02*
X117075000Y-29875000D01*
X123650000Y-26125000D02*
X123650000Y-29875000D01*
X123650000Y-29875000D02*
X117075000Y-29875000D01*
X117275000Y-29450000D02*
X117425000Y-29650000D01*
X117125000Y-29650000D01*
X117275000Y-29450000D01*
G36*
X117425000Y-29650000D02*
G01*
X117125000Y-29650000D01*
X117275000Y-29450000D01*
X117425000Y-29650000D01*
G37*
%TO.C,C102*%
X122738748Y-31265000D02*
X123261252Y-31265000D01*
X122738748Y-32735000D02*
X123261252Y-32735000D01*
%TO.C,C101*%
X62738748Y-31265000D02*
X63261252Y-31265000D01*
X62738748Y-32735000D02*
X63261252Y-32735000D01*
%TO.C,C104*%
X242738748Y-31265000D02*
X243261252Y-31265000D01*
X242738748Y-32735000D02*
X243261252Y-32735000D01*
%TO.C,U2*%
X109940000Y-127565000D02*
X114060000Y-127565000D01*
X109940000Y-127630000D02*
X109940000Y-127565000D01*
X109940000Y-136435000D02*
X109940000Y-136370000D01*
X114060000Y-127565000D02*
X114060000Y-127630000D01*
X114060000Y-136370000D02*
X114060000Y-136435000D01*
X114060000Y-136435000D02*
X109940000Y-136435000D01*
X109400000Y-127630000D02*
X109160000Y-127300000D01*
X109640000Y-127300000D01*
X109400000Y-127630000D01*
G36*
X109400000Y-127630000D02*
G01*
X109160000Y-127300000D01*
X109640000Y-127300000D01*
X109400000Y-127630000D01*
G37*
%TO.C,D105*%
X296350000Y-26125000D02*
X303650000Y-26125000D01*
X296350000Y-29150000D02*
X296350000Y-26125000D01*
X296350000Y-29150000D02*
X297075000Y-29875000D01*
X303650000Y-26125000D02*
X303650000Y-29875000D01*
X303650000Y-29875000D02*
X297075000Y-29875000D01*
X297275000Y-29450000D02*
X297425000Y-29650000D01*
X297125000Y-29650000D01*
X297275000Y-29450000D01*
G36*
X297425000Y-29650000D02*
G01*
X297125000Y-29650000D01*
X297275000Y-29450000D01*
X297425000Y-29650000D01*
G37*
%TO.C,C105*%
X302738748Y-31265000D02*
X303261252Y-31265000D01*
X302738748Y-32735000D02*
X303261252Y-32735000D01*
%TO.C,J1*%
X93620000Y-24620000D02*
X95000000Y-24620000D01*
X93620000Y-26000000D02*
X93620000Y-24620000D01*
X93620000Y-27270000D02*
X93620000Y-35000000D01*
X93620000Y-27270000D02*
X96380000Y-27270000D01*
X93620000Y-35000000D02*
X96380000Y-35000000D01*
X96380000Y-27270000D02*
X96380000Y-35000000D01*
%TO.C,C106*%
X111738748Y-137265000D02*
X112261252Y-137265000D01*
X111738748Y-138735000D02*
X112261252Y-138735000D01*
%TO.C,ENC1*%
X314700000Y-22400000D02*
X315300000Y-22400000D01*
X315000000Y-22700000D02*
X314700000Y-22400000D01*
X315300000Y-22400000D02*
X315000000Y-22700000D01*
X316400000Y-20600000D02*
X316400000Y-32400000D01*
X320500000Y-20600000D02*
X316400000Y-20600000D01*
X320500000Y-32400000D02*
X316400000Y-32400000D01*
X322000000Y-26500000D02*
X323000000Y-26500000D01*
X322500000Y-26000000D02*
X322500000Y-27000000D01*
X324500000Y-20600000D02*
X328600000Y-20600000D01*
X328600000Y-20600000D02*
X328600000Y-23000000D01*
X328600000Y-25200000D02*
X328600000Y-27800000D01*
X328600000Y-30000000D02*
X328600000Y-32400000D01*
X328600000Y-32400000D02*
X324500000Y-32400000D01*
X325500000Y-26500000D02*
G75*
G02*
X319500000Y-26500000I-3000000J0D01*
G01*
X319500000Y-26500000D02*
G75*
G02*
X325500000Y-26500000I3000000J0D01*
G01*
%TO.C,D103*%
X176350000Y-26125000D02*
X183650000Y-26125000D01*
X176350000Y-29150000D02*
X176350000Y-26125000D01*
X176350000Y-29150000D02*
X177075000Y-29875000D01*
X183650000Y-26125000D02*
X183650000Y-29875000D01*
X183650000Y-29875000D02*
X177075000Y-29875000D01*
X177275000Y-29450000D02*
X177425000Y-29650000D01*
X177125000Y-29650000D01*
X177275000Y-29450000D01*
G36*
X177425000Y-29650000D02*
G01*
X177125000Y-29650000D01*
X177275000Y-29450000D01*
X177425000Y-29650000D01*
G37*
%TO.C,D101*%
X56350000Y-26125000D02*
X63650000Y-26125000D01*
X56350000Y-29150000D02*
X56350000Y-26125000D01*
X56350000Y-29150000D02*
X57075000Y-29875000D01*
X63650000Y-26125000D02*
X63650000Y-29875000D01*
X63650000Y-29875000D02*
X57075000Y-29875000D01*
X57275000Y-29450000D02*
X57425000Y-29650000D01*
X57125000Y-29650000D01*
X57275000Y-29450000D01*
G36*
X57425000Y-29650000D02*
G01*
X57125000Y-29650000D01*
X57275000Y-29450000D01*
X57425000Y-29650000D01*
G37*
%TO.C,R2*%
X85772936Y-19265000D02*
X86227064Y-19265000D01*
X85772936Y-20735000D02*
X86227064Y-20735000D01*
%TO.C,D104*%
X236350000Y-26125000D02*
X243650000Y-26125000D01*
X236350000Y-29150000D02*
X236350000Y-26125000D01*
X236350000Y-29150000D02*
X237075000Y-29875000D01*
X243650000Y-26125000D02*
X243650000Y-29875000D01*
X243650000Y-29875000D02*
X237075000Y-29875000D01*
X237275000Y-29450000D02*
X237425000Y-29650000D01*
X237125000Y-29650000D01*
X237275000Y-29450000D01*
G36*
X237425000Y-29650000D02*
G01*
X237125000Y-29650000D01*
X237275000Y-29450000D01*
X237425000Y-29650000D01*
G37*
%TD*%
M02*
