%TF.GenerationSoftware,KiCad,Pcbnew,10.0.5*%
%TF.CreationDate,2026-08-27T16:41:22+05:30*%
%TF.ProjectId,dream-keyboard,64726561-6d2d-46b6-9579-626f6172642e,rev?*%
%TF.SameCoordinates,Original*%
%TF.FileFunction,Other,User*%
%FSLAX46Y46*%
G04 Gerber Fmt 4.6, Leading zero omitted, Abs format (unit mm)*
G04 Created by KiCad (PCBNEW 10.0.5) date 2026-08-27 16:41:22*
%MOMM*%
%LPD*%
G01*
G04 APERTURE LIST*
%ADD10C,0.050000*%
G04 APERTURE END LIST*
%TO.C,SW2*%
D10*
X50150000Y-31100000D02*
X50150000Y-45100000D01*
X50150000Y-45100000D02*
X64150000Y-45100000D01*
X64150000Y-31100000D02*
X50150000Y-31100000D01*
X64150000Y-45100000D02*
X64150000Y-31100000D01*
%TO.C,SW32*%
X64437500Y-69200000D02*
X64437500Y-83200000D01*
X64437500Y-83200000D02*
X78437500Y-83200000D01*
X78437500Y-69200000D02*
X64437500Y-69200000D01*
X78437500Y-83200000D02*
X78437500Y-69200000D01*
%TO.C,U1*%
X177830000Y-127610000D02*
X177830000Y-118610000D01*
X179380000Y-118610000D01*
X179380000Y-111570000D01*
X231680000Y-111570000D01*
X231680000Y-134650000D01*
X179380000Y-134650000D01*
X179380000Y-127610000D01*
X177830000Y-127610000D01*
%TO.C,SW23*%
X173975000Y-50150000D02*
X173975000Y-64150000D01*
X173975000Y-64150000D02*
X187975000Y-64150000D01*
X187975000Y-50150000D02*
X173975000Y-50150000D01*
X187975000Y-64150000D02*
X187975000Y-50150000D01*
%TO.C,SW58*%
X316850000Y-88250000D02*
X316850000Y-102250000D01*
X316850000Y-102250000D02*
X330850000Y-102250000D01*
X330850000Y-88250000D02*
X316850000Y-88250000D01*
X330850000Y-102250000D02*
X330850000Y-88250000D01*
%TO.C,SW45*%
X43006300Y-88250000D02*
X43006300Y-102250000D01*
X43006300Y-102250000D02*
X57006300Y-102250000D01*
X57006300Y-88250000D02*
X43006300Y-88250000D01*
X57006300Y-102250000D02*
X57006300Y-88250000D01*
%TO.C,SW41*%
X235887500Y-69200000D02*
X235887500Y-83200000D01*
X235887500Y-83200000D02*
X249887500Y-83200000D01*
X249887500Y-69200000D02*
X235887500Y-69200000D01*
X249887500Y-83200000D02*
X249887500Y-69200000D01*
%TO.C,SW50*%
X150162500Y-88250000D02*
X150162500Y-102250000D01*
X150162500Y-102250000D02*
X164162500Y-102250000D01*
X164162500Y-88250000D02*
X150162500Y-88250000D01*
X164162500Y-102250000D02*
X164162500Y-88250000D01*
%TO.C,SW43*%
X285893800Y-69200000D02*
X285893800Y-83200000D01*
X285893800Y-83200000D02*
X299893800Y-83200000D01*
X299893800Y-69200000D02*
X285893800Y-69200000D01*
X299893800Y-83200000D02*
X299893800Y-69200000D01*
%TO.C,SW56*%
X271606300Y-88250000D02*
X271606300Y-102250000D01*
X271606300Y-102250000D02*
X285606300Y-102250000D01*
X285606300Y-88250000D02*
X271606300Y-88250000D01*
X285606300Y-102250000D02*
X285606300Y-88250000D01*
%TO.C,SW6*%
X126350000Y-31100000D02*
X126350000Y-45100000D01*
X126350000Y-45100000D02*
X140350000Y-45100000D01*
X140350000Y-31100000D02*
X126350000Y-31100000D01*
X140350000Y-45100000D02*
X140350000Y-31100000D01*
%TO.C,SW39*%
X197787500Y-69200000D02*
X197787500Y-83200000D01*
X197787500Y-83200000D02*
X211787500Y-83200000D01*
X211787500Y-69200000D02*
X197787500Y-69200000D01*
X211787500Y-83200000D02*
X211787500Y-69200000D01*
%TO.C,SW3*%
X69200000Y-31100000D02*
X69200000Y-45100000D01*
X69200000Y-45100000D02*
X83200000Y-45100000D01*
X83200000Y-31100000D02*
X69200000Y-31100000D01*
X83200000Y-45100000D02*
X83200000Y-31100000D01*
%TO.C,SW55*%
X245412500Y-88250000D02*
X245412500Y-102250000D01*
X245412500Y-102250000D02*
X259412500Y-102250000D01*
X259412500Y-88250000D02*
X245412500Y-88250000D01*
X259412500Y-102250000D02*
X259412500Y-88250000D01*
%TO.C,C103*%
X181300000Y-31020000D02*
X184700000Y-31020000D01*
X184700000Y-32980000D01*
X181300000Y-32980000D01*
X181300000Y-31020000D01*
%TO.C,SW67*%
X316850000Y-107300000D02*
X316850000Y-121300000D01*
X316850000Y-121300000D02*
X330850000Y-121300000D01*
X330850000Y-107300000D02*
X316850000Y-107300000D01*
X330850000Y-121300000D02*
X330850000Y-107300000D01*
%TO.C,SW21*%
X135875000Y-50150000D02*
X135875000Y-64150000D01*
X135875000Y-64150000D02*
X149875000Y-64150000D01*
X149875000Y-50150000D02*
X135875000Y-50150000D01*
X149875000Y-64150000D02*
X149875000Y-50150000D01*
%TO.C,R1*%
X78320000Y-19050000D02*
X81680000Y-19050000D01*
X81680000Y-20950000D01*
X78320000Y-20950000D01*
X78320000Y-19050000D01*
%TO.C,SW13*%
X259700000Y-31100000D02*
X259700000Y-45100000D01*
X259700000Y-45100000D02*
X273700000Y-45100000D01*
X273700000Y-31100000D02*
X259700000Y-31100000D01*
X273700000Y-45100000D02*
X273700000Y-31100000D01*
%TO.C,D102*%
X116350000Y-26130000D02*
X123650000Y-26130000D01*
X123650000Y-29870000D01*
X116350000Y-29870000D01*
X116350000Y-26130000D01*
%TO.C,SW53*%
X207312500Y-88250000D02*
X207312500Y-102250000D01*
X207312500Y-102250000D02*
X221312500Y-102250000D01*
X221312500Y-88250000D02*
X207312500Y-88250000D01*
X221312500Y-102250000D02*
X221312500Y-88250000D01*
%TO.C,SW12*%
X240650000Y-31100000D02*
X240650000Y-45100000D01*
X240650000Y-45100000D02*
X254650000Y-45100000D01*
X254650000Y-31100000D02*
X240650000Y-31100000D01*
X254650000Y-45100000D02*
X254650000Y-31100000D01*
%TO.C,C102*%
X121300000Y-31020000D02*
X124700000Y-31020000D01*
X124700000Y-32980000D01*
X121300000Y-32980000D01*
X121300000Y-31020000D01*
%TO.C,SW36*%
X140637500Y-69200000D02*
X140637500Y-83200000D01*
X140637500Y-83200000D02*
X154637500Y-83200000D01*
X154637500Y-69200000D02*
X140637500Y-69200000D01*
X154637500Y-83200000D02*
X154637500Y-69200000D01*
%TO.C,SW46*%
X73962500Y-88250000D02*
X73962500Y-102250000D01*
X73962500Y-102250000D02*
X87962500Y-102250000D01*
X87962500Y-88250000D02*
X73962500Y-88250000D01*
X87962500Y-102250000D02*
X87962500Y-88250000D01*
%TO.C,SW29*%
X293037500Y-50150000D02*
X293037500Y-64150000D01*
X293037500Y-64150000D02*
X307037500Y-64150000D01*
X307037500Y-50150000D02*
X293037500Y-50150000D01*
X307037500Y-64150000D02*
X307037500Y-50150000D01*
%TO.C,SW42*%
X254937500Y-69200000D02*
X254937500Y-83200000D01*
X254937500Y-83200000D02*
X268937500Y-83200000D01*
X268937500Y-69200000D02*
X254937500Y-69200000D01*
X268937500Y-83200000D02*
X268937500Y-69200000D01*
%TO.C,C101*%
X61300000Y-31020000D02*
X64700000Y-31020000D01*
X64700000Y-32980000D01*
X61300000Y-32980000D01*
X61300000Y-31020000D01*
%TO.C,SW7*%
X145400000Y-31100000D02*
X145400000Y-45100000D01*
X145400000Y-45100000D02*
X159400000Y-45100000D01*
X159400000Y-31100000D02*
X145400000Y-31100000D01*
X159400000Y-45100000D02*
X159400000Y-31100000D01*
%TO.C,SW20*%
X116825000Y-50150000D02*
X116825000Y-64150000D01*
X116825000Y-64150000D02*
X130825000Y-64150000D01*
X130825000Y-50150000D02*
X116825000Y-50150000D01*
X130825000Y-64150000D02*
X130825000Y-50150000D01*
%TO.C,C104*%
X241300000Y-31020000D02*
X244700000Y-31020000D01*
X244700000Y-32980000D01*
X241300000Y-32980000D01*
X241300000Y-31020000D01*
%TO.C,SW27*%
X250175000Y-50150000D02*
X250175000Y-64150000D01*
X250175000Y-64150000D02*
X264175000Y-64150000D01*
X264175000Y-50150000D02*
X250175000Y-50150000D01*
X264175000Y-64150000D02*
X264175000Y-50150000D01*
%TO.C,SW1*%
X31100000Y-31100000D02*
X31100000Y-45100000D01*
X31100000Y-45100000D02*
X45100000Y-45100000D01*
X45100000Y-31100000D02*
X31100000Y-31100000D01*
X45100000Y-45100000D02*
X45100000Y-31100000D01*
%TO.C,SW5*%
X107300000Y-31100000D02*
X107300000Y-45100000D01*
X107300000Y-45100000D02*
X121300000Y-45100000D01*
X121300000Y-31100000D02*
X107300000Y-31100000D01*
X121300000Y-45100000D02*
X121300000Y-31100000D01*
%TO.C,SW61*%
X81106300Y-107300000D02*
X81106300Y-121300000D01*
X81106300Y-121300000D02*
X95106300Y-121300000D01*
X95106300Y-107300000D02*
X81106300Y-107300000D01*
X95106300Y-121300000D02*
X95106300Y-107300000D01*
%TO.C,U2*%
X108300000Y-127640000D02*
X109800000Y-127640000D01*
X108300000Y-136360000D02*
X108300000Y-127640000D01*
X109800000Y-127420000D02*
X114200000Y-127420000D01*
X109800000Y-127640000D02*
X109800000Y-127420000D01*
X109800000Y-136360000D02*
X108300000Y-136360000D01*
X109800000Y-136580000D02*
X109800000Y-136360000D01*
X114200000Y-127420000D02*
X114200000Y-127640000D01*
X114200000Y-127640000D02*
X115700000Y-127640000D01*
X114200000Y-136360000D02*
X114200000Y-136580000D01*
X114200000Y-136580000D02*
X109800000Y-136580000D01*
X115700000Y-127640000D02*
X115700000Y-136360000D01*
X115700000Y-136360000D02*
X114200000Y-136360000D01*
%TO.C,SW24*%
X193025000Y-50150000D02*
X193025000Y-64150000D01*
X193025000Y-64150000D02*
X207025000Y-64150000D01*
X207025000Y-50150000D02*
X193025000Y-50150000D01*
X207025000Y-64150000D02*
X207025000Y-50150000D01*
%TO.C,SW62*%
X162068800Y-107300000D02*
X162068800Y-121300000D01*
X162068800Y-121300000D02*
X176068800Y-121300000D01*
X176068800Y-107300000D02*
X162068800Y-107300000D01*
X176068800Y-121300000D02*
X176068800Y-107300000D01*
%TO.C,D105*%
X296350000Y-26130000D02*
X303650000Y-26130000D01*
X303650000Y-29870000D01*
X296350000Y-29870000D01*
X296350000Y-26130000D01*
%TO.C,C105*%
X301300000Y-31020000D02*
X304700000Y-31020000D01*
X304700000Y-32980000D01*
X301300000Y-32980000D01*
X301300000Y-31020000D01*
%TO.C,SW40*%
X216837500Y-69200000D02*
X216837500Y-83200000D01*
X216837500Y-83200000D02*
X230837500Y-83200000D01*
X230837500Y-69200000D02*
X216837500Y-69200000D01*
X230837500Y-83200000D02*
X230837500Y-69200000D01*
%TO.C,SW65*%
X278750000Y-107300000D02*
X278750000Y-121300000D01*
X278750000Y-121300000D02*
X292750000Y-121300000D01*
X292750000Y-107300000D02*
X278750000Y-107300000D01*
X292750000Y-121300000D02*
X292750000Y-107300000D01*
%TO.C,J1*%
X93230000Y-24230000D02*
X96770000Y-24230000D01*
X96770000Y-35390000D01*
X93230000Y-35390000D01*
X93230000Y-24230000D01*
%TO.C,C106*%
X110300000Y-137020000D02*
X113700000Y-137020000D01*
X113700000Y-138980000D01*
X110300000Y-138980000D01*
X110300000Y-137020000D01*
%TO.C,ENC1*%
X313500000Y-19400000D02*
X313500000Y-33600000D01*
X313500000Y-19400000D02*
X331000000Y-19400000D01*
X331000000Y-33600000D02*
X313500000Y-33600000D01*
X331000000Y-33600000D02*
X331000000Y-19400000D01*
%TO.C,SW44*%
X316850000Y-69200000D02*
X316850000Y-83200000D01*
X316850000Y-83200000D02*
X330850000Y-83200000D01*
X330850000Y-69200000D02*
X316850000Y-69200000D01*
X330850000Y-83200000D02*
X330850000Y-69200000D01*
%TO.C,SW64*%
X259700000Y-107300000D02*
X259700000Y-121300000D01*
X259700000Y-121300000D02*
X273700000Y-121300000D01*
X273700000Y-107300000D02*
X259700000Y-107300000D01*
X273700000Y-121300000D02*
X273700000Y-107300000D01*
%TO.C,SW38*%
X178737500Y-69200000D02*
X178737500Y-83200000D01*
X178737500Y-83200000D02*
X192737500Y-83200000D01*
X192737500Y-69200000D02*
X178737500Y-69200000D01*
X192737500Y-83200000D02*
X192737500Y-69200000D01*
%TO.C,SW49*%
X131112500Y-88250000D02*
X131112500Y-102250000D01*
X131112500Y-102250000D02*
X145112500Y-102250000D01*
X145112500Y-88250000D02*
X131112500Y-88250000D01*
X145112500Y-102250000D02*
X145112500Y-88250000D01*
%TO.C,SW14*%
X288275000Y-31100000D02*
X288275000Y-45100000D01*
X288275000Y-45100000D02*
X302275000Y-45100000D01*
X302275000Y-31100000D02*
X288275000Y-31100000D01*
X302275000Y-45100000D02*
X302275000Y-31100000D01*
%TO.C,SW51*%
X169212500Y-88250000D02*
X169212500Y-102250000D01*
X169212500Y-102250000D02*
X183212500Y-102250000D01*
X183212500Y-88250000D02*
X169212500Y-88250000D01*
X183212500Y-102250000D02*
X183212500Y-88250000D01*
%TO.C,SW9*%
X183500000Y-31100000D02*
X183500000Y-45100000D01*
X183500000Y-45100000D02*
X197500000Y-45100000D01*
X197500000Y-31100000D02*
X183500000Y-31100000D01*
X197500000Y-45100000D02*
X197500000Y-31100000D01*
%TO.C,SW54*%
X226362500Y-88250000D02*
X226362500Y-102250000D01*
X226362500Y-102250000D02*
X240362500Y-102250000D01*
X240362500Y-88250000D02*
X226362500Y-88250000D01*
X240362500Y-102250000D02*
X240362500Y-88250000D01*
%TO.C,SW37*%
X159687500Y-69200000D02*
X159687500Y-83200000D01*
X159687500Y-83200000D02*
X173687500Y-83200000D01*
X173687500Y-69200000D02*
X159687500Y-69200000D01*
X173687500Y-83200000D02*
X173687500Y-69200000D01*
%TO.C,D103*%
X176350000Y-26130000D02*
X183650000Y-26130000D01*
X183650000Y-29870000D01*
X176350000Y-29870000D01*
X176350000Y-26130000D01*
%TO.C,SW48*%
X112062500Y-88250000D02*
X112062500Y-102250000D01*
X112062500Y-102250000D02*
X126062500Y-102250000D01*
X126062500Y-88250000D02*
X112062500Y-88250000D01*
X126062500Y-102250000D02*
X126062500Y-88250000D01*
%TO.C,SW19*%
X97775000Y-50150000D02*
X97775000Y-64150000D01*
X97775000Y-64150000D02*
X111775000Y-64150000D01*
X111775000Y-50150000D02*
X97775000Y-50150000D01*
X111775000Y-64150000D02*
X111775000Y-50150000D01*
%TO.C,D101*%
X56350000Y-26130000D02*
X63650000Y-26130000D01*
X63650000Y-29870000D01*
X56350000Y-29870000D01*
X56350000Y-26130000D01*
%TO.C,SW31*%
X38243800Y-69200000D02*
X38243800Y-83200000D01*
X38243800Y-83200000D02*
X52243800Y-83200000D01*
X52243800Y-69200000D02*
X38243800Y-69200000D01*
X52243800Y-83200000D02*
X52243800Y-69200000D01*
%TO.C,R2*%
X84320000Y-19050000D02*
X87680000Y-19050000D01*
X87680000Y-20950000D01*
X84320000Y-20950000D01*
X84320000Y-19050000D01*
%TO.C,SW34*%
X102537500Y-69200000D02*
X102537500Y-83200000D01*
X102537500Y-83200000D02*
X116537500Y-83200000D01*
X116537500Y-69200000D02*
X102537500Y-69200000D01*
X116537500Y-83200000D02*
X116537500Y-69200000D01*
%TO.C,SW8*%
X164450000Y-31100000D02*
X164450000Y-45100000D01*
X164450000Y-45100000D02*
X178450000Y-45100000D01*
X178450000Y-31100000D02*
X164450000Y-31100000D01*
X178450000Y-45100000D02*
X178450000Y-31100000D01*
%TO.C,SW57*%
X297800000Y-88250000D02*
X297800000Y-102250000D01*
X297800000Y-102250000D02*
X311800000Y-102250000D01*
X311800000Y-88250000D02*
X297800000Y-88250000D01*
X311800000Y-102250000D02*
X311800000Y-88250000D01*
%TO.C,SW25*%
X212075000Y-50150000D02*
X212075000Y-64150000D01*
X212075000Y-64150000D02*
X226075000Y-64150000D01*
X226075000Y-50150000D02*
X212075000Y-50150000D01*
X226075000Y-64150000D02*
X226075000Y-50150000D01*
%TO.C,SW16*%
X35862500Y-50150000D02*
X35862500Y-64150000D01*
X35862500Y-64150000D02*
X49862500Y-64150000D01*
X49862500Y-50150000D02*
X35862500Y-50150000D01*
X49862500Y-64150000D02*
X49862500Y-50150000D01*
%TO.C,SW63*%
X240650000Y-107300000D02*
X240650000Y-121300000D01*
X240650000Y-121300000D02*
X254650000Y-121300000D01*
X254650000Y-107300000D02*
X240650000Y-107300000D01*
X254650000Y-121300000D02*
X254650000Y-107300000D01*
%TO.C,SW26*%
X231125000Y-50150000D02*
X231125000Y-64150000D01*
X231125000Y-64150000D02*
X245125000Y-64150000D01*
X245125000Y-50150000D02*
X231125000Y-50150000D01*
X245125000Y-64150000D02*
X245125000Y-50150000D01*
%TO.C,SW35*%
X121587500Y-69200000D02*
X121587500Y-83200000D01*
X121587500Y-83200000D02*
X135587500Y-83200000D01*
X135587500Y-69200000D02*
X121587500Y-69200000D01*
X135587500Y-83200000D02*
X135587500Y-69200000D01*
%TO.C,SW18*%
X78725000Y-50150000D02*
X78725000Y-64150000D01*
X78725000Y-64150000D02*
X92725000Y-64150000D01*
X92725000Y-50150000D02*
X78725000Y-50150000D01*
X92725000Y-64150000D02*
X92725000Y-50150000D01*
%TO.C,SW22*%
X154925000Y-50150000D02*
X154925000Y-64150000D01*
X154925000Y-64150000D02*
X168925000Y-64150000D01*
X168925000Y-50150000D02*
X154925000Y-50150000D01*
X168925000Y-64150000D02*
X168925000Y-50150000D01*
%TO.C,SW4*%
X88250000Y-31100000D02*
X88250000Y-45100000D01*
X88250000Y-45100000D02*
X102250000Y-45100000D01*
X102250000Y-31100000D02*
X88250000Y-31100000D01*
X102250000Y-45100000D02*
X102250000Y-31100000D01*
%TO.C,SW33*%
X83487500Y-69200000D02*
X83487500Y-83200000D01*
X83487500Y-83200000D02*
X97487500Y-83200000D01*
X97487500Y-69200000D02*
X83487500Y-69200000D01*
X97487500Y-83200000D02*
X97487500Y-69200000D01*
%TO.C,SW17*%
X59675000Y-50150000D02*
X59675000Y-64150000D01*
X59675000Y-64150000D02*
X73675000Y-64150000D01*
X73675000Y-50150000D02*
X59675000Y-50150000D01*
X73675000Y-64150000D02*
X73675000Y-50150000D01*
%TO.C,SW60*%
X57293800Y-107300000D02*
X57293800Y-121300000D01*
X57293800Y-121300000D02*
X71293800Y-121300000D01*
X71293800Y-107300000D02*
X57293800Y-107300000D01*
X71293800Y-121300000D02*
X71293800Y-107300000D01*
%TO.C,SW59*%
X33481300Y-107300000D02*
X33481300Y-121300000D01*
X33481300Y-121300000D02*
X47481300Y-121300000D01*
X47481300Y-107300000D02*
X33481300Y-107300000D01*
X47481300Y-121300000D02*
X47481300Y-107300000D01*
%TO.C,SW28*%
X269225000Y-50150000D02*
X269225000Y-64150000D01*
X269225000Y-64150000D02*
X283225000Y-64150000D01*
X283225000Y-50150000D02*
X269225000Y-50150000D01*
X283225000Y-64150000D02*
X283225000Y-50150000D01*
%TO.C,SW10*%
X202550000Y-31100000D02*
X202550000Y-45100000D01*
X202550000Y-45100000D02*
X216550000Y-45100000D01*
X216550000Y-31100000D02*
X202550000Y-31100000D01*
X216550000Y-45100000D02*
X216550000Y-31100000D01*
%TO.C,SW15*%
X316850000Y-31100000D02*
X316850000Y-45100000D01*
X316850000Y-45100000D02*
X330850000Y-45100000D01*
X330850000Y-31100000D02*
X316850000Y-31100000D01*
X330850000Y-45100000D02*
X330850000Y-31100000D01*
%TO.C,SW30*%
X316850000Y-50150000D02*
X316850000Y-64150000D01*
X316850000Y-64150000D02*
X330850000Y-64150000D01*
X330850000Y-50150000D02*
X316850000Y-50150000D01*
X330850000Y-64150000D02*
X330850000Y-50150000D01*
%TO.C,D104*%
X236350000Y-26130000D02*
X243650000Y-26130000D01*
X243650000Y-29870000D01*
X236350000Y-29870000D01*
X236350000Y-26130000D01*
%TO.C,SW66*%
X297800000Y-107300000D02*
X297800000Y-121300000D01*
X297800000Y-121300000D02*
X311800000Y-121300000D01*
X311800000Y-107300000D02*
X297800000Y-107300000D01*
X311800000Y-121300000D02*
X311800000Y-107300000D01*
%TO.C,SW47*%
X93012500Y-88250000D02*
X93012500Y-102250000D01*
X93012500Y-102250000D02*
X107012500Y-102250000D01*
X107012500Y-88250000D02*
X93012500Y-88250000D01*
X107012500Y-102250000D02*
X107012500Y-88250000D01*
%TO.C,SW52*%
X188262500Y-88250000D02*
X188262500Y-102250000D01*
X188262500Y-102250000D02*
X202262500Y-102250000D01*
X202262500Y-88250000D02*
X188262500Y-88250000D01*
X202262500Y-102250000D02*
X202262500Y-88250000D01*
%TO.C,SW11*%
X221600000Y-31100000D02*
X221600000Y-45100000D01*
X221600000Y-45100000D02*
X235600000Y-45100000D01*
X235600000Y-31100000D02*
X221600000Y-31100000D01*
X235600000Y-45100000D02*
X235600000Y-31100000D01*
%TD*%
M02*
