%TF.GenerationSoftware,KiCad,Pcbnew,10.0.5*%
%TF.CreationDate,2026-08-27T16:41:21+05:30*%
%TF.ProjectId,dream-keyboard,64726561-6d2d-46b6-9579-626f6172642e,rev?*%
%TF.SameCoordinates,Original*%
%TF.FileFunction,Copper,L1,Top*%
%TF.FilePolarity,Positive*%
%FSLAX46Y46*%
G04 Gerber Fmt 4.6, Leading zero omitted, Abs format (unit mm)*
G04 Created by KiCad (PCBNEW 10.0.5) date 2026-08-27 16:41:21*
%MOMM*%
%LPD*%
G01*
G04 APERTURE LIST*
G04 Aperture macros list*
%AMRoundRect*
0 Rectangle with rounded corners*
0 $1 Rounding radius*
0 $2 $3 $4 $5 $6 $7 $8 $9 X,Y pos of 4 corners*
0 Add a 4 corners polygon primitive as box body*
4,1,4,$2,$3,$4,$5,$6,$7,$8,$9,$2,$3,0*
0 Add four circle primitives for the rounded corners*
1,1,$1+$1,$2,$3*
1,1,$1+$1,$4,$5*
1,1,$1+$1,$6,$7*
1,1,$1+$1,$8,$9*
0 Add four rect primitives between the rounded corners*
20,1,$1+$1,$2,$3,$4,$5,0*
20,1,$1+$1,$4,$5,$6,$7,0*
20,1,$1+$1,$6,$7,$8,$9,0*
20,1,$1+$1,$8,$9,$2,$3,0*%
%AMFreePoly0*
4,1,37,0.603843,0.796157,0.639018,0.796157,0.711114,0.766294,0.766294,0.711114,0.796157,0.639018,0.796157,0.603843,0.800000,0.600000,0.800000,-0.600000,0.796157,-0.603843,0.796157,-0.639018,0.766294,-0.711114,0.711114,-0.766294,0.639018,-0.796157,0.603843,-0.796157,0.600000,-0.800000,0.000000,-0.800000,0.000000,-0.796148,-0.078414,-0.796148,-0.232228,-0.765552,-0.377117,-0.705537,
-0.507515,-0.618408,-0.618408,-0.507515,-0.705537,-0.377117,-0.765552,-0.232228,-0.796148,-0.078414,-0.796148,0.078414,-0.765552,0.232228,-0.705537,0.377117,-0.618408,0.507515,-0.507515,0.618408,-0.377117,0.705537,-0.232228,0.765552,-0.078414,0.796148,0.000000,0.796148,0.000000,0.800000,0.600000,0.800000,0.603843,0.796157,0.603843,0.796157,$1*%
%AMFreePoly1*
4,1,37,0.000000,0.796148,0.078414,0.796148,0.232228,0.765552,0.377117,0.705537,0.507515,0.618408,0.618408,0.507515,0.705537,0.377117,0.765552,0.232228,0.796148,0.078414,0.796148,-0.078414,0.765552,-0.232228,0.705537,-0.377117,0.618408,-0.507515,0.507515,-0.618408,0.377117,-0.705537,0.232228,-0.765552,0.078414,-0.796148,0.000000,-0.796148,0.000000,-0.800000,-0.600000,-0.800000,
-0.603843,-0.796157,-0.639018,-0.796157,-0.711114,-0.766294,-0.766294,-0.711114,-0.796157,-0.639018,-0.796157,-0.603843,-0.800000,-0.600000,-0.800000,0.600000,-0.796157,0.603843,-0.796157,0.639018,-0.766294,0.711114,-0.711114,0.766294,-0.639018,0.796157,-0.603843,0.796157,-0.600000,0.800000,0.000000,0.800000,0.000000,0.796148,0.000000,0.796148,$1*%
G04 Aperture macros list end*
%TA.AperFunction,ComponentPad*%
%ADD10C,2.300000*%
%TD*%
%TA.AperFunction,ComponentPad*%
%ADD11RoundRect,0.200000X0.600000X-0.600000X0.600000X0.600000X-0.600000X0.600000X-0.600000X-0.600000X0*%
%TD*%
%TA.AperFunction,ComponentPad*%
%ADD12C,1.600000*%
%TD*%
%TA.AperFunction,ComponentPad*%
%ADD13FreePoly0,90.000000*%
%TD*%
%TA.AperFunction,ComponentPad*%
%ADD14FreePoly1,90.000000*%
%TD*%
%TA.AperFunction,SMDPad,CuDef*%
%ADD15RoundRect,0.250000X-0.250000X-0.475000X0.250000X-0.475000X0.250000X0.475000X-0.250000X0.475000X0*%
%TD*%
%TA.AperFunction,SMDPad,CuDef*%
%ADD16RoundRect,0.250000X-0.262500X-0.450000X0.262500X-0.450000X0.262500X0.450000X-0.262500X0.450000X0*%
%TD*%
%TA.AperFunction,SMDPad,CuDef*%
%ADD17RoundRect,0.205000X-0.470000X-0.205000X0.470000X-0.205000X0.470000X0.205000X-0.470000X0.205000X0*%
%TD*%
%TA.AperFunction,SMDPad,CuDef*%
%ADD18RoundRect,0.150000X-0.825000X-0.150000X0.825000X-0.150000X0.825000X0.150000X-0.825000X0.150000X0*%
%TD*%
%TA.AperFunction,ComponentPad*%
%ADD19R,1.700000X1.700000*%
%TD*%
%TA.AperFunction,ComponentPad*%
%ADD20C,1.700000*%
%TD*%
%TA.AperFunction,ComponentPad*%
%ADD21R,2.000000X2.000000*%
%TD*%
%TA.AperFunction,ComponentPad*%
%ADD22C,2.000000*%
%TD*%
%TA.AperFunction,ComponentPad*%
%ADD23R,3.200000X2.000000*%
%TD*%
%TA.AperFunction,ComponentPad*%
%ADD24RoundRect,0.250000X0.550000X-0.550000X0.550000X0.550000X-0.550000X0.550000X-0.550000X-0.550000X0*%
%TD*%
%TA.AperFunction,ViaPad*%
%ADD25C,0.600000*%
%TD*%
%TA.AperFunction,Conductor*%
%ADD26C,0.200000*%
%TD*%
G04 APERTURE END LIST*
D10*
%TO.P,SW2,1*%
%TO.N,COL1*%
X53340000Y-35560000D03*
%TO.P,SW2,2*%
%TO.N,N$2*%
X59690000Y-33020000D03*
%TD*%
%TO.P,SW32,1*%
%TO.N,COL1*%
X67627500Y-73660000D03*
%TO.P,SW32,2*%
%TO.N,N$32*%
X73977500Y-71120000D03*
%TD*%
D11*
%TO.P,U1,1*%
%TO.N,ROW0*%
X181000000Y-132000000D03*
D12*
%TO.P,U1,2*%
%TO.N,ROW1*%
X183540000Y-132000000D03*
D13*
%TO.P,U1,3*%
%TO.N,GND*%
X186080000Y-132000000D03*
D12*
%TO.P,U1,4*%
%TO.N,ROW2*%
X188620000Y-132000000D03*
%TO.P,U1,5*%
%TO.N,ROW3*%
X191160000Y-132000000D03*
%TO.P,U1,6*%
%TO.N,ROW4*%
X193700000Y-132000000D03*
%TO.P,U1,7*%
%TO.N,COL0*%
X196240000Y-132000000D03*
D13*
%TO.P,U1,8*%
%TO.N,GND*%
X198780000Y-132000000D03*
D12*
%TO.P,U1,9*%
%TO.N,COL1*%
X201320000Y-132000000D03*
%TO.P,U1,10*%
%TO.N,COL2*%
X203860000Y-132000000D03*
%TO.P,U1,11*%
%TO.N,COL3*%
X206400000Y-132000000D03*
%TO.P,U1,12*%
%TO.N,COL4*%
X208940000Y-132000000D03*
D13*
%TO.P,U1,13*%
%TO.N,GND*%
X211480000Y-132000000D03*
D12*
%TO.P,U1,14*%
%TO.N,COL5*%
X214020000Y-132000000D03*
%TO.P,U1,15*%
%TO.N,COL6*%
X216560000Y-132000000D03*
%TO.P,U1,16*%
%TO.N,COL7*%
X219100000Y-132000000D03*
%TO.P,U1,17*%
%TO.N,COL8*%
X221640000Y-132000000D03*
D13*
%TO.P,U1,18*%
%TO.N,GND*%
X224180000Y-132000000D03*
D12*
%TO.P,U1,19*%
%TO.N,COL9*%
X226720000Y-132000000D03*
%TO.P,U1,20*%
%TO.N,COL10*%
X229260000Y-132000000D03*
%TO.P,U1,21*%
%TO.N,COL11*%
X229260000Y-114220000D03*
%TO.P,U1,22*%
%TO.N,COL12*%
X226720000Y-114220000D03*
D14*
%TO.P,U1,23*%
%TO.N,GND*%
X224180000Y-114220000D03*
D12*
%TO.P,U1,24*%
%TO.N,COL13*%
X221640000Y-114220000D03*
%TO.P,U1,25*%
%TO.N,COL14*%
X219100000Y-114220000D03*
%TO.P,U1,26*%
%TO.N,ENC_A*%
X216560000Y-114220000D03*
%TO.P,U1,27*%
%TO.N,ENC_B*%
X214020000Y-114220000D03*
D14*
%TO.P,U1,28*%
%TO.N,GND*%
X211480000Y-114220000D03*
D12*
%TO.P,U1,29*%
%TO.N,RGB_IN*%
X208940000Y-114220000D03*
%TO.P,U1,30*%
%TO.N,N/C*%
X206400000Y-114220000D03*
%TO.P,U1,31*%
%TO.N,I2C_SDA*%
X203860000Y-114220000D03*
%TO.P,U1,32*%
%TO.N,I2C_SCL*%
X201320000Y-114220000D03*
D14*
%TO.P,U1,33*%
%TO.N,GND*%
X198780000Y-114220000D03*
D12*
%TO.P,U1,34*%
%TO.N,N/C*%
X196240000Y-114220000D03*
%TO.P,U1,35*%
X193700000Y-114220000D03*
%TO.P,U1,36*%
%TO.N,+3V3*%
X191160000Y-114220000D03*
%TO.P,U1,37*%
%TO.N,N/C*%
X188620000Y-114220000D03*
D14*
%TO.P,U1,38*%
%TO.N,GND*%
X186080000Y-114220000D03*
D12*
%TO.P,U1,39*%
%TO.N,N/C*%
X183540000Y-114220000D03*
%TO.P,U1,40*%
%TO.N,+5V*%
X181000000Y-114220000D03*
%TD*%
D10*
%TO.P,SW23,1*%
%TO.N,COL7*%
X177165000Y-54610000D03*
%TO.P,SW23,2*%
%TO.N,N$23*%
X183515000Y-52070000D03*
%TD*%
%TO.P,SW58,1*%
%TO.N,COL13*%
X320040000Y-92710000D03*
%TO.P,SW58,2*%
%TO.N,N$58*%
X326390000Y-90170000D03*
%TD*%
%TO.P,SW45,1*%
%TO.N,COL0*%
X46196300Y-92710000D03*
%TO.P,SW45,2*%
%TO.N,N$45*%
X52546300Y-90170000D03*
%TD*%
%TO.P,SW41,1*%
%TO.N,COL10*%
X239077500Y-73660000D03*
%TO.P,SW41,2*%
%TO.N,N$41*%
X245427500Y-71120000D03*
%TD*%
%TO.P,SW50,1*%
%TO.N,COL5*%
X153352500Y-92710000D03*
%TO.P,SW50,2*%
%TO.N,N$50*%
X159702500Y-90170000D03*
%TD*%
%TO.P,SW43,1*%
%TO.N,COL12*%
X289083800Y-73660000D03*
%TO.P,SW43,2*%
%TO.N,N$43*%
X295433800Y-71120000D03*
%TD*%
%TO.P,SW56,1*%
%TO.N,COL11*%
X274796300Y-92710000D03*
%TO.P,SW56,2*%
%TO.N,N$56*%
X281146300Y-90170000D03*
%TD*%
%TO.P,SW6,1*%
%TO.N,COL5*%
X129540000Y-35560000D03*
%TO.P,SW6,2*%
%TO.N,N$6*%
X135890000Y-33020000D03*
%TD*%
%TO.P,SW39,1*%
%TO.N,COL8*%
X200977500Y-73660000D03*
%TO.P,SW39,2*%
%TO.N,N$39*%
X207327500Y-71120000D03*
%TD*%
%TO.P,SW3,1*%
%TO.N,COL2*%
X72390000Y-35560000D03*
%TO.P,SW3,2*%
%TO.N,N$3*%
X78740000Y-33020000D03*
%TD*%
%TO.P,SW55,1*%
%TO.N,COL10*%
X248602500Y-92710000D03*
%TO.P,SW55,2*%
%TO.N,N$55*%
X254952500Y-90170000D03*
%TD*%
D15*
%TO.P,C103,1*%
%TO.N,+5V*%
X182050000Y-32000000D03*
%TO.P,C103,2*%
%TO.N,GND*%
X183950000Y-32000000D03*
%TD*%
D10*
%TO.P,SW67,1*%
%TO.N,COL8*%
X320040000Y-111760000D03*
%TO.P,SW67,2*%
%TO.N,N$67*%
X326390000Y-109220000D03*
%TD*%
%TO.P,SW21,1*%
%TO.N,COL5*%
X139065000Y-54610000D03*
%TO.P,SW21,2*%
%TO.N,N$21*%
X145415000Y-52070000D03*
%TD*%
D16*
%TO.P,R1,1*%
%TO.N,I2C_SDA*%
X79087500Y-20000000D03*
%TO.P,R1,2*%
%TO.N,+3V3*%
X80912500Y-20000000D03*
%TD*%
D10*
%TO.P,SW13,1*%
%TO.N,COL12*%
X262890000Y-35560000D03*
%TO.P,SW13,2*%
%TO.N,N$13*%
X269240000Y-33020000D03*
%TD*%
D17*
%TO.P,D102,1*%
%TO.N,GND*%
X117275000Y-28750000D03*
%TO.P,D102,2*%
%TO.N,LED_D1*%
X117275000Y-27250000D03*
%TO.P,D102,3*%
%TO.N,+5V*%
X122725000Y-27250000D03*
%TO.P,D102,4*%
%TO.N,LED_D2*%
X122725000Y-28750000D03*
%TD*%
D10*
%TO.P,SW53,1*%
%TO.N,COL8*%
X210502500Y-92710000D03*
%TO.P,SW53,2*%
%TO.N,N$53*%
X216852500Y-90170000D03*
%TD*%
%TO.P,SW12,1*%
%TO.N,COL11*%
X243840000Y-35560000D03*
%TO.P,SW12,2*%
%TO.N,N$12*%
X250190000Y-33020000D03*
%TD*%
D15*
%TO.P,C102,1*%
%TO.N,+5V*%
X122050000Y-32000000D03*
%TO.P,C102,2*%
%TO.N,GND*%
X123950000Y-32000000D03*
%TD*%
D10*
%TO.P,SW36,1*%
%TO.N,COL5*%
X143827500Y-73660000D03*
%TO.P,SW36,2*%
%TO.N,N$36*%
X150177500Y-71120000D03*
%TD*%
%TO.P,SW46,1*%
%TO.N,COL1*%
X77152500Y-92710000D03*
%TO.P,SW46,2*%
%TO.N,N$46*%
X83502500Y-90170000D03*
%TD*%
%TO.P,SW29,1*%
%TO.N,COL13*%
X296227500Y-54610000D03*
%TO.P,SW29,2*%
%TO.N,N$29*%
X302577500Y-52070000D03*
%TD*%
%TO.P,SW42,1*%
%TO.N,COL11*%
X258127500Y-73660000D03*
%TO.P,SW42,2*%
%TO.N,N$42*%
X264477500Y-71120000D03*
%TD*%
D15*
%TO.P,C101,1*%
%TO.N,+5V*%
X62050000Y-32000000D03*
%TO.P,C101,2*%
%TO.N,GND*%
X63950000Y-32000000D03*
%TD*%
D10*
%TO.P,SW7,1*%
%TO.N,COL6*%
X148590000Y-35560000D03*
%TO.P,SW7,2*%
%TO.N,N$7*%
X154940000Y-33020000D03*
%TD*%
%TO.P,SW20,1*%
%TO.N,COL4*%
X120015000Y-54610000D03*
%TO.P,SW20,2*%
%TO.N,N$20*%
X126365000Y-52070000D03*
%TD*%
D15*
%TO.P,C104,1*%
%TO.N,+5V*%
X242050000Y-32000000D03*
%TO.P,C104,2*%
%TO.N,GND*%
X243950000Y-32000000D03*
%TD*%
D10*
%TO.P,SW27,1*%
%TO.N,COL11*%
X253365000Y-54610000D03*
%TO.P,SW27,2*%
%TO.N,N$27*%
X259715000Y-52070000D03*
%TD*%
%TO.P,SW1,1*%
%TO.N,COL0*%
X34290000Y-35560000D03*
%TO.P,SW1,2*%
%TO.N,N$1*%
X40640000Y-33020000D03*
%TD*%
%TO.P,SW5,1*%
%TO.N,COL4*%
X110490000Y-35560000D03*
%TO.P,SW5,2*%
%TO.N,N$5*%
X116840000Y-33020000D03*
%TD*%
%TO.P,SW61,1*%
%TO.N,COL2*%
X84296300Y-111760000D03*
%TO.P,SW61,2*%
%TO.N,N$61*%
X90646300Y-109220000D03*
%TD*%
D18*
%TO.P,U2,1*%
%TO.N,GND*%
X109525000Y-128190000D03*
%TO.P,U2,2*%
%TO.N,RGB_IN*%
X109525000Y-129460000D03*
%TO.P,U2,3*%
%TO.N,LED_D0*%
X109525000Y-130730000D03*
%TO.P,U2,4*%
%TO.N,GND*%
X109525000Y-132000000D03*
%TO.P,U2,5*%
X109525000Y-133270000D03*
%TO.P,U2,6*%
%TO.N,N/C*%
X109525000Y-134540000D03*
%TO.P,U2,7*%
%TO.N,GND*%
X109525000Y-135810000D03*
%TO.P,U2,8*%
%TO.N,N/C*%
X114475000Y-135810000D03*
%TO.P,U2,9*%
%TO.N,GND*%
X114475000Y-134540000D03*
%TO.P,U2,10*%
X114475000Y-133270000D03*
%TO.P,U2,11*%
%TO.N,N/C*%
X114475000Y-132000000D03*
%TO.P,U2,12*%
%TO.N,GND*%
X114475000Y-130730000D03*
%TO.P,U2,13*%
X114475000Y-129460000D03*
%TO.P,U2,14*%
%TO.N,+5V*%
X114475000Y-128190000D03*
%TD*%
D10*
%TO.P,SW24,1*%
%TO.N,COL8*%
X196215000Y-54610000D03*
%TO.P,SW24,2*%
%TO.N,N$24*%
X202565000Y-52070000D03*
%TD*%
%TO.P,SW62,1*%
%TO.N,COL3*%
X165258800Y-111760000D03*
%TO.P,SW62,2*%
%TO.N,N$62*%
X171608800Y-109220000D03*
%TD*%
D17*
%TO.P,D105,1*%
%TO.N,GND*%
X297275000Y-28750000D03*
%TO.P,D105,2*%
%TO.N,LED_D4*%
X297275000Y-27250000D03*
%TO.P,D105,3*%
%TO.N,+5V*%
X302725000Y-27250000D03*
%TO.P,D105,4*%
%TO.N,N/C*%
X302725000Y-28750000D03*
%TD*%
D15*
%TO.P,C105,1*%
%TO.N,+5V*%
X302050000Y-32000000D03*
%TO.P,C105,2*%
%TO.N,GND*%
X303950000Y-32000000D03*
%TD*%
D10*
%TO.P,SW40,1*%
%TO.N,COL9*%
X220027500Y-73660000D03*
%TO.P,SW40,2*%
%TO.N,N$40*%
X226377500Y-71120000D03*
%TD*%
%TO.P,SW65,1*%
%TO.N,COL6*%
X281940000Y-111760000D03*
%TO.P,SW65,2*%
%TO.N,N$65*%
X288290000Y-109220000D03*
%TD*%
D19*
%TO.P,J1,1*%
%TO.N,GND*%
X95000000Y-26000000D03*
D20*
%TO.P,J1,2*%
%TO.N,+3V3*%
X95000000Y-28540000D03*
%TO.P,J1,3*%
%TO.N,I2C_SCL*%
X95000000Y-31080000D03*
%TO.P,J1,4*%
%TO.N,I2C_SDA*%
X95000000Y-33620000D03*
%TD*%
D15*
%TO.P,C106,1*%
%TO.N,+5V*%
X111050000Y-138000000D03*
%TO.P,C106,2*%
%TO.N,GND*%
X112950000Y-138000000D03*
%TD*%
D21*
%TO.P,ENC1,A*%
%TO.N,ENC_A*%
X315000000Y-24000000D03*
D22*
%TO.P,ENC1,B*%
%TO.N,ENC_B*%
X315000000Y-29000000D03*
%TO.P,ENC1,C*%
%TO.N,GND*%
X315000000Y-26500000D03*
D23*
%TO.P,ENC1,MP*%
X322500000Y-20900000D03*
%TO.N,N/C*%
X322500000Y-32100000D03*
D22*
%TO.P,ENC1,S1*%
%TO.N,COL14*%
X329500000Y-29000000D03*
%TO.P,ENC1,S2*%
%TO.N,N$15*%
X329500000Y-24000000D03*
%TD*%
D10*
%TO.P,SW44,1*%
%TO.N,COL13*%
X320040000Y-73660000D03*
%TO.P,SW44,2*%
%TO.N,N$44*%
X326390000Y-71120000D03*
%TD*%
%TO.P,SW64,1*%
%TO.N,COL5*%
X262890000Y-111760000D03*
%TO.P,SW64,2*%
%TO.N,N$64*%
X269240000Y-109220000D03*
%TD*%
%TO.P,SW38,1*%
%TO.N,COL7*%
X181927500Y-73660000D03*
%TO.P,SW38,2*%
%TO.N,N$38*%
X188277500Y-71120000D03*
%TD*%
%TO.P,SW49,1*%
%TO.N,COL4*%
X134302500Y-92710000D03*
%TO.P,SW49,2*%
%TO.N,N$49*%
X140652500Y-90170000D03*
%TD*%
%TO.P,SW14,1*%
%TO.N,COL13*%
X291465000Y-35560000D03*
%TO.P,SW14,2*%
%TO.N,N$14*%
X297815000Y-33020000D03*
%TD*%
%TO.P,SW51,1*%
%TO.N,COL6*%
X172402500Y-92710000D03*
%TO.P,SW51,2*%
%TO.N,N$51*%
X178752500Y-90170000D03*
%TD*%
%TO.P,SW9,1*%
%TO.N,COL8*%
X186690000Y-35560000D03*
%TO.P,SW9,2*%
%TO.N,N$9*%
X193040000Y-33020000D03*
%TD*%
%TO.P,SW54,1*%
%TO.N,COL9*%
X229552500Y-92710000D03*
%TO.P,SW54,2*%
%TO.N,N$54*%
X235902500Y-90170000D03*
%TD*%
%TO.P,SW37,1*%
%TO.N,COL6*%
X162877500Y-73660000D03*
%TO.P,SW37,2*%
%TO.N,N$37*%
X169227500Y-71120000D03*
%TD*%
D17*
%TO.P,D103,1*%
%TO.N,GND*%
X177275000Y-28750000D03*
%TO.P,D103,2*%
%TO.N,LED_D2*%
X177275000Y-27250000D03*
%TO.P,D103,3*%
%TO.N,+5V*%
X182725000Y-27250000D03*
%TO.P,D103,4*%
%TO.N,LED_D3*%
X182725000Y-28750000D03*
%TD*%
D10*
%TO.P,SW48,1*%
%TO.N,COL3*%
X115252500Y-92710000D03*
%TO.P,SW48,2*%
%TO.N,N$48*%
X121602500Y-90170000D03*
%TD*%
%TO.P,SW19,1*%
%TO.N,COL3*%
X100965000Y-54610000D03*
%TO.P,SW19,2*%
%TO.N,N$19*%
X107315000Y-52070000D03*
%TD*%
D17*
%TO.P,D101,1*%
%TO.N,GND*%
X57275000Y-28750000D03*
%TO.P,D101,2*%
%TO.N,LED_D0*%
X57275000Y-27250000D03*
%TO.P,D101,3*%
%TO.N,+5V*%
X62725000Y-27250000D03*
%TO.P,D101,4*%
%TO.N,LED_D1*%
X62725000Y-28750000D03*
%TD*%
D10*
%TO.P,SW31,1*%
%TO.N,COL0*%
X41433800Y-73660000D03*
%TO.P,SW31,2*%
%TO.N,N$31*%
X47783800Y-71120000D03*
%TD*%
D16*
%TO.P,R2,1*%
%TO.N,I2C_SCL*%
X85087500Y-20000000D03*
%TO.P,R2,2*%
%TO.N,+3V3*%
X86912500Y-20000000D03*
%TD*%
D10*
%TO.P,SW34,1*%
%TO.N,COL3*%
X105727500Y-73660000D03*
%TO.P,SW34,2*%
%TO.N,N$34*%
X112077500Y-71120000D03*
%TD*%
%TO.P,SW8,1*%
%TO.N,COL7*%
X167640000Y-35560000D03*
%TO.P,SW8,2*%
%TO.N,N$8*%
X173990000Y-33020000D03*
%TD*%
%TO.P,SW57,1*%
%TO.N,COL12*%
X300990000Y-92710000D03*
%TO.P,SW57,2*%
%TO.N,N$57*%
X307340000Y-90170000D03*
%TD*%
%TO.P,SW25,1*%
%TO.N,COL9*%
X215265000Y-54610000D03*
%TO.P,SW25,2*%
%TO.N,N$25*%
X221615000Y-52070000D03*
%TD*%
%TO.P,SW16,1*%
%TO.N,COL0*%
X39052500Y-54610000D03*
%TO.P,SW16,2*%
%TO.N,N$16*%
X45402500Y-52070000D03*
%TD*%
%TO.P,SW63,1*%
%TO.N,COL4*%
X243840000Y-111760000D03*
%TO.P,SW63,2*%
%TO.N,N$63*%
X250190000Y-109220000D03*
%TD*%
%TO.P,SW26,1*%
%TO.N,COL10*%
X234315000Y-54610000D03*
%TO.P,SW26,2*%
%TO.N,N$26*%
X240665000Y-52070000D03*
%TD*%
%TO.P,SW35,1*%
%TO.N,COL4*%
X124777500Y-73660000D03*
%TO.P,SW35,2*%
%TO.N,N$35*%
X131127500Y-71120000D03*
%TD*%
%TO.P,SW18,1*%
%TO.N,COL2*%
X81915000Y-54610000D03*
%TO.P,SW18,2*%
%TO.N,N$18*%
X88265000Y-52070000D03*
%TD*%
%TO.P,SW22,1*%
%TO.N,COL6*%
X158115000Y-54610000D03*
%TO.P,SW22,2*%
%TO.N,N$22*%
X164465000Y-52070000D03*
%TD*%
%TO.P,SW4,1*%
%TO.N,COL3*%
X91440000Y-35560000D03*
%TO.P,SW4,2*%
%TO.N,N$4*%
X97790000Y-33020000D03*
%TD*%
%TO.P,SW33,1*%
%TO.N,COL2*%
X86677500Y-73660000D03*
%TO.P,SW33,2*%
%TO.N,N$33*%
X93027500Y-71120000D03*
%TD*%
%TO.P,SW17,1*%
%TO.N,COL1*%
X62865000Y-54610000D03*
%TO.P,SW17,2*%
%TO.N,N$17*%
X69215000Y-52070000D03*
%TD*%
%TO.P,SW60,1*%
%TO.N,COL1*%
X60483800Y-111760000D03*
%TO.P,SW60,2*%
%TO.N,N$60*%
X66833800Y-109220000D03*
%TD*%
%TO.P,SW59,1*%
%TO.N,COL0*%
X36671300Y-111760000D03*
%TO.P,SW59,2*%
%TO.N,N$59*%
X43021300Y-109220000D03*
%TD*%
%TO.P,SW28,1*%
%TO.N,COL12*%
X272415000Y-54610000D03*
%TO.P,SW28,2*%
%TO.N,N$28*%
X278765000Y-52070000D03*
%TD*%
%TO.P,SW10,1*%
%TO.N,COL9*%
X205740000Y-35560000D03*
%TO.P,SW10,2*%
%TO.N,N$10*%
X212090000Y-33020000D03*
%TD*%
%TO.P,SW15,1*%
%TO.N,COL14*%
X320040000Y-35560000D03*
%TO.P,SW15,2*%
%TO.N,N$15*%
X326390000Y-33020000D03*
%TD*%
%TO.P,SW30,1*%
%TO.N,COL14*%
X320040000Y-54610000D03*
%TO.P,SW30,2*%
%TO.N,N$30*%
X326390000Y-52070000D03*
%TD*%
D17*
%TO.P,D104,1*%
%TO.N,GND*%
X237275000Y-28750000D03*
%TO.P,D104,2*%
%TO.N,LED_D3*%
X237275000Y-27250000D03*
%TO.P,D104,3*%
%TO.N,+5V*%
X242725000Y-27250000D03*
%TO.P,D104,4*%
%TO.N,LED_D4*%
X242725000Y-28750000D03*
%TD*%
D10*
%TO.P,SW66,1*%
%TO.N,COL7*%
X300990000Y-111760000D03*
%TO.P,SW66,2*%
%TO.N,N$66*%
X307340000Y-109220000D03*
%TD*%
%TO.P,SW47,1*%
%TO.N,COL2*%
X96202500Y-92710000D03*
%TO.P,SW47,2*%
%TO.N,N$47*%
X102552500Y-90170000D03*
%TD*%
%TO.P,SW52,1*%
%TO.N,COL7*%
X191452500Y-92710000D03*
%TO.P,SW52,2*%
%TO.N,N$52*%
X197802500Y-90170000D03*
%TD*%
%TO.P,SW11,1*%
%TO.N,COL10*%
X224790000Y-35560000D03*
%TO.P,SW11,2*%
%TO.N,N$11*%
X231140000Y-33020000D03*
%TD*%
D24*
%TO.P,D10,1*%
%TO.N,ROW0*%
X214630000Y-42100000D03*
D12*
%TO.P,D10,2*%
%TO.N,N$10*%
X214630000Y-34480000D03*
%TD*%
D24*
%TO.P,D65,1*%
%TO.N,ROW4*%
X290830000Y-118300000D03*
D12*
%TO.P,D65,2*%
%TO.N,N$65*%
X290830000Y-110680000D03*
%TD*%
D24*
%TO.P,D38,1*%
%TO.N,ROW2*%
X190817500Y-80200000D03*
D12*
%TO.P,D38,2*%
%TO.N,N$38*%
X190817500Y-72580000D03*
%TD*%
D24*
%TO.P,D37,1*%
%TO.N,ROW2*%
X171767500Y-80200000D03*
D12*
%TO.P,D37,2*%
%TO.N,N$37*%
X171767500Y-72580000D03*
%TD*%
D24*
%TO.P,D62,1*%
%TO.N,ROW4*%
X174148800Y-118300000D03*
D12*
%TO.P,D62,2*%
%TO.N,N$62*%
X174148800Y-110680000D03*
%TD*%
D24*
%TO.P,D67,1*%
%TO.N,ROW4*%
X328930000Y-118300000D03*
D12*
%TO.P,D67,2*%
%TO.N,N$67*%
X328930000Y-110680000D03*
%TD*%
D24*
%TO.P,D29,1*%
%TO.N,ROW1*%
X305117500Y-61150000D03*
D12*
%TO.P,D29,2*%
%TO.N,N$29*%
X305117500Y-53530000D03*
%TD*%
D24*
%TO.P,D4,1*%
%TO.N,ROW0*%
X100330000Y-42100000D03*
D12*
%TO.P,D4,2*%
%TO.N,N$4*%
X100330000Y-34480000D03*
%TD*%
D24*
%TO.P,D47,1*%
%TO.N,ROW3*%
X105092500Y-99250000D03*
D12*
%TO.P,D47,2*%
%TO.N,N$47*%
X105092500Y-91630000D03*
%TD*%
D24*
%TO.P,D41,1*%
%TO.N,ROW2*%
X247967500Y-80200000D03*
D12*
%TO.P,D41,2*%
%TO.N,N$41*%
X247967500Y-72580000D03*
%TD*%
D24*
%TO.P,D66,1*%
%TO.N,ROW4*%
X309880000Y-118300000D03*
D12*
%TO.P,D66,2*%
%TO.N,N$66*%
X309880000Y-110680000D03*
%TD*%
D24*
%TO.P,D25,1*%
%TO.N,ROW1*%
X224155000Y-61150000D03*
D12*
%TO.P,D25,2*%
%TO.N,N$25*%
X224155000Y-53530000D03*
%TD*%
D24*
%TO.P,D19,1*%
%TO.N,ROW1*%
X109855000Y-61150000D03*
D12*
%TO.P,D19,2*%
%TO.N,N$19*%
X109855000Y-53530000D03*
%TD*%
D24*
%TO.P,D64,1*%
%TO.N,ROW4*%
X271780000Y-118300000D03*
D12*
%TO.P,D64,2*%
%TO.N,N$64*%
X271780000Y-110680000D03*
%TD*%
D24*
%TO.P,D63,1*%
%TO.N,ROW4*%
X252730000Y-118300000D03*
D12*
%TO.P,D63,2*%
%TO.N,N$63*%
X252730000Y-110680000D03*
%TD*%
D24*
%TO.P,D7,1*%
%TO.N,ROW0*%
X157480000Y-42100000D03*
D12*
%TO.P,D7,2*%
%TO.N,N$7*%
X157480000Y-34480000D03*
%TD*%
D24*
%TO.P,D40,1*%
%TO.N,ROW2*%
X228917500Y-80200000D03*
D12*
%TO.P,D40,2*%
%TO.N,N$40*%
X228917500Y-72580000D03*
%TD*%
D24*
%TO.P,D3,1*%
%TO.N,ROW0*%
X81280000Y-42100000D03*
D12*
%TO.P,D3,2*%
%TO.N,N$3*%
X81280000Y-34480000D03*
%TD*%
D24*
%TO.P,D32,1*%
%TO.N,ROW2*%
X76517500Y-80200000D03*
D12*
%TO.P,D32,2*%
%TO.N,N$32*%
X76517500Y-72580000D03*
%TD*%
D24*
%TO.P,D43,1*%
%TO.N,ROW2*%
X297973800Y-80200000D03*
D12*
%TO.P,D43,2*%
%TO.N,N$43*%
X297973800Y-72580000D03*
%TD*%
D24*
%TO.P,D57,1*%
%TO.N,ROW3*%
X309880000Y-99250000D03*
D12*
%TO.P,D57,2*%
%TO.N,N$57*%
X309880000Y-91630000D03*
%TD*%
D24*
%TO.P,D11,1*%
%TO.N,ROW0*%
X233680000Y-42100000D03*
D12*
%TO.P,D11,2*%
%TO.N,N$11*%
X233680000Y-34480000D03*
%TD*%
D24*
%TO.P,D21,1*%
%TO.N,ROW1*%
X147955000Y-61150000D03*
D12*
%TO.P,D21,2*%
%TO.N,N$21*%
X147955000Y-53530000D03*
%TD*%
D24*
%TO.P,D12,1*%
%TO.N,ROW0*%
X252730000Y-42100000D03*
D12*
%TO.P,D12,2*%
%TO.N,N$12*%
X252730000Y-34480000D03*
%TD*%
D24*
%TO.P,D50,1*%
%TO.N,ROW3*%
X162242500Y-99250000D03*
D12*
%TO.P,D50,2*%
%TO.N,N$50*%
X162242500Y-91630000D03*
%TD*%
D24*
%TO.P,D56,1*%
%TO.N,ROW3*%
X283686300Y-99250000D03*
D12*
%TO.P,D56,2*%
%TO.N,N$56*%
X283686300Y-91630000D03*
%TD*%
D24*
%TO.P,D35,1*%
%TO.N,ROW2*%
X133667500Y-80200000D03*
D12*
%TO.P,D35,2*%
%TO.N,N$35*%
X133667500Y-72580000D03*
%TD*%
D24*
%TO.P,D2,1*%
%TO.N,ROW0*%
X62230000Y-42100000D03*
D12*
%TO.P,D2,2*%
%TO.N,N$2*%
X62230000Y-34480000D03*
%TD*%
D24*
%TO.P,D13,1*%
%TO.N,ROW0*%
X271780000Y-42100000D03*
D12*
%TO.P,D13,2*%
%TO.N,N$13*%
X271780000Y-34480000D03*
%TD*%
D24*
%TO.P,D49,1*%
%TO.N,ROW3*%
X143192500Y-99250000D03*
D12*
%TO.P,D49,2*%
%TO.N,N$49*%
X143192500Y-91630000D03*
%TD*%
D24*
%TO.P,D59,1*%
%TO.N,ROW4*%
X45561300Y-118300000D03*
D12*
%TO.P,D59,2*%
%TO.N,N$59*%
X45561300Y-110680000D03*
%TD*%
D24*
%TO.P,D33,1*%
%TO.N,ROW2*%
X95567500Y-80200000D03*
D12*
%TO.P,D33,2*%
%TO.N,N$33*%
X95567500Y-72580000D03*
%TD*%
D24*
%TO.P,D6,1*%
%TO.N,ROW0*%
X138430000Y-42100000D03*
D12*
%TO.P,D6,2*%
%TO.N,N$6*%
X138430000Y-34480000D03*
%TD*%
D24*
%TO.P,D16,1*%
%TO.N,ROW1*%
X47942500Y-61150000D03*
D12*
%TO.P,D16,2*%
%TO.N,N$16*%
X47942500Y-53530000D03*
%TD*%
D24*
%TO.P,D27,1*%
%TO.N,ROW1*%
X262255000Y-61150000D03*
D12*
%TO.P,D27,2*%
%TO.N,N$27*%
X262255000Y-53530000D03*
%TD*%
D24*
%TO.P,D30,1*%
%TO.N,ROW1*%
X328930000Y-61150000D03*
D12*
%TO.P,D30,2*%
%TO.N,N$30*%
X328930000Y-53530000D03*
%TD*%
D24*
%TO.P,D54,1*%
%TO.N,ROW3*%
X238442500Y-99250000D03*
D12*
%TO.P,D54,2*%
%TO.N,N$54*%
X238442500Y-91630000D03*
%TD*%
D24*
%TO.P,D42,1*%
%TO.N,ROW2*%
X267017500Y-80200000D03*
D12*
%TO.P,D42,2*%
%TO.N,N$42*%
X267017500Y-72580000D03*
%TD*%
D24*
%TO.P,D8,1*%
%TO.N,ROW0*%
X176530000Y-42100000D03*
D12*
%TO.P,D8,2*%
%TO.N,N$8*%
X176530000Y-34480000D03*
%TD*%
D24*
%TO.P,D55,1*%
%TO.N,ROW3*%
X257492500Y-99250000D03*
D12*
%TO.P,D55,2*%
%TO.N,N$55*%
X257492500Y-91630000D03*
%TD*%
D24*
%TO.P,D52,1*%
%TO.N,ROW3*%
X200342500Y-99250000D03*
D12*
%TO.P,D52,2*%
%TO.N,N$52*%
X200342500Y-91630000D03*
%TD*%
D24*
%TO.P,D5,1*%
%TO.N,ROW0*%
X119380000Y-42100000D03*
D12*
%TO.P,D5,2*%
%TO.N,N$5*%
X119380000Y-34480000D03*
%TD*%
D24*
%TO.P,D39,1*%
%TO.N,ROW2*%
X209867500Y-80200000D03*
D12*
%TO.P,D39,2*%
%TO.N,N$39*%
X209867500Y-72580000D03*
%TD*%
D24*
%TO.P,D44,1*%
%TO.N,ROW2*%
X328930000Y-80200000D03*
D12*
%TO.P,D44,2*%
%TO.N,N$44*%
X328930000Y-72580000D03*
%TD*%
D24*
%TO.P,D20,1*%
%TO.N,ROW1*%
X128905000Y-61150000D03*
D12*
%TO.P,D20,2*%
%TO.N,N$20*%
X128905000Y-53530000D03*
%TD*%
D24*
%TO.P,D58,1*%
%TO.N,ROW3*%
X328930000Y-99250000D03*
D12*
%TO.P,D58,2*%
%TO.N,N$58*%
X328930000Y-91630000D03*
%TD*%
D24*
%TO.P,D1,1*%
%TO.N,ROW0*%
X43180000Y-42100000D03*
D12*
%TO.P,D1,2*%
%TO.N,N$1*%
X43180000Y-34480000D03*
%TD*%
D24*
%TO.P,D26,1*%
%TO.N,ROW1*%
X243205000Y-61150000D03*
D12*
%TO.P,D26,2*%
%TO.N,N$26*%
X243205000Y-53530000D03*
%TD*%
D24*
%TO.P,D53,1*%
%TO.N,ROW3*%
X219392500Y-99250000D03*
D12*
%TO.P,D53,2*%
%TO.N,N$53*%
X219392500Y-91630000D03*
%TD*%
D24*
%TO.P,D61,1*%
%TO.N,ROW4*%
X93186300Y-118300000D03*
D12*
%TO.P,D61,2*%
%TO.N,N$61*%
X93186300Y-110680000D03*
%TD*%
D24*
%TO.P,D24,1*%
%TO.N,ROW1*%
X205105000Y-61150000D03*
D12*
%TO.P,D24,2*%
%TO.N,N$24*%
X205105000Y-53530000D03*
%TD*%
D24*
%TO.P,D48,1*%
%TO.N,ROW3*%
X124142500Y-99250000D03*
D12*
%TO.P,D48,2*%
%TO.N,N$48*%
X124142500Y-91630000D03*
%TD*%
D24*
%TO.P,D28,1*%
%TO.N,ROW1*%
X281305000Y-61150000D03*
D12*
%TO.P,D28,2*%
%TO.N,N$28*%
X281305000Y-53530000D03*
%TD*%
D24*
%TO.P,D22,1*%
%TO.N,ROW1*%
X167005000Y-61150000D03*
D12*
%TO.P,D22,2*%
%TO.N,N$22*%
X167005000Y-53530000D03*
%TD*%
D24*
%TO.P,D14,1*%
%TO.N,ROW0*%
X300355000Y-42100000D03*
D12*
%TO.P,D14,2*%
%TO.N,N$14*%
X300355000Y-34480000D03*
%TD*%
D24*
%TO.P,D45,1*%
%TO.N,ROW3*%
X55086300Y-99250000D03*
D12*
%TO.P,D45,2*%
%TO.N,N$45*%
X55086300Y-91630000D03*
%TD*%
D24*
%TO.P,D60,1*%
%TO.N,ROW4*%
X69373800Y-118300000D03*
D12*
%TO.P,D60,2*%
%TO.N,N$60*%
X69373800Y-110680000D03*
%TD*%
D24*
%TO.P,D9,1*%
%TO.N,ROW0*%
X195580000Y-42100000D03*
D12*
%TO.P,D9,2*%
%TO.N,N$9*%
X195580000Y-34480000D03*
%TD*%
D24*
%TO.P,D15,1*%
%TO.N,ROW0*%
X328930000Y-42100000D03*
D12*
%TO.P,D15,2*%
%TO.N,N$15*%
X328930000Y-34480000D03*
%TD*%
D24*
%TO.P,D46,1*%
%TO.N,ROW3*%
X86042500Y-99250000D03*
D12*
%TO.P,D46,2*%
%TO.N,N$46*%
X86042500Y-91630000D03*
%TD*%
D24*
%TO.P,D51,1*%
%TO.N,ROW3*%
X181292500Y-99250000D03*
D12*
%TO.P,D51,2*%
%TO.N,N$51*%
X181292500Y-91630000D03*
%TD*%
D24*
%TO.P,D23,1*%
%TO.N,ROW1*%
X186055000Y-61150000D03*
D12*
%TO.P,D23,2*%
%TO.N,N$23*%
X186055000Y-53530000D03*
%TD*%
D24*
%TO.P,D18,1*%
%TO.N,ROW1*%
X90805000Y-61150000D03*
D12*
%TO.P,D18,2*%
%TO.N,N$18*%
X90805000Y-53530000D03*
%TD*%
D24*
%TO.P,D31,1*%
%TO.N,ROW2*%
X50323800Y-80200000D03*
D12*
%TO.P,D31,2*%
%TO.N,N$31*%
X50323800Y-72580000D03*
%TD*%
D24*
%TO.P,D34,1*%
%TO.N,ROW2*%
X114617500Y-80200000D03*
D12*
%TO.P,D34,2*%
%TO.N,N$34*%
X114617500Y-72580000D03*
%TD*%
D24*
%TO.P,D36,1*%
%TO.N,ROW2*%
X152717500Y-80200000D03*
D12*
%TO.P,D36,2*%
%TO.N,N$36*%
X152717500Y-72580000D03*
%TD*%
D24*
%TO.P,D17,1*%
%TO.N,ROW1*%
X71755000Y-61150000D03*
D12*
%TO.P,D17,2*%
%TO.N,N$17*%
X71755000Y-53530000D03*
%TD*%
D25*
%TO.N,GND*%
X188022200Y-41544600D03*
%TO.N,ROW4*%
X99835600Y-118167400D03*
%TO.N,COL3*%
X136374000Y-101858500D03*
%TO.N,COL4*%
X227136400Y-130685800D03*
%TO.N,COL6*%
X172433300Y-119800500D03*
%TO.N,COL7*%
X184757500Y-86015000D03*
%TO.N,COL9*%
X229842100Y-98868400D03*
%TO.N,COL10*%
X263777400Y-97762100D03*
%TO.N,COL11*%
X262259600Y-81421100D03*
%TO.N,COL12*%
X277881800Y-62458000D03*
%TO.N,COL14*%
X298614800Y-60992100D03*
%TO.N,ENC_B*%
X209944700Y-97795600D03*
X264459900Y-80815700D03*
%TO.N,RGB_IN*%
X190370600Y-127782200D03*
%TO.N,I2C_SDA*%
X136177900Y-101036300D03*
%TO.N,I2C_SCL*%
X140433900Y-102044700D03*
%TO.N,+3V3*%
X152652900Y-102082700D03*
%TO.N,+5V*%
X122064000Y-30767300D03*
X182737000Y-26330500D03*
X122454400Y-26313600D03*
X182875700Y-128190000D03*
X180142700Y-31519700D03*
%TO.N,LED_D0*%
X82357600Y-40558900D03*
X107787600Y-128676600D03*
%TD*%
%TO.N,COL1*%
D26*
X194828500Y-132146600D02*
X195797800Y-133115900D01*
X103982300Y-127002400D02*
X190442100Y-127002400D01*
X190442100Y-127002400D02*
X194828500Y-131388800D01*
X60483800Y-111760000D02*
X60551000Y-111692800D01*
X196685700Y-133115900D02*
X197512700Y-132288900D01*
X69523600Y-112385600D02*
X74438400Y-117300400D01*
X195797800Y-133115900D02*
X196685700Y-133115900D01*
X90031400Y-117300400D02*
X90173500Y-117158300D01*
X197512700Y-131356200D02*
X197970600Y-130898300D01*
X90173500Y-117158300D02*
X94138200Y-117158300D01*
X65320600Y-111692800D02*
X66013400Y-112385600D01*
X74438400Y-117300400D02*
X90031400Y-117300400D01*
X94138200Y-117158300D02*
X103982300Y-127002400D01*
X66013400Y-112385600D02*
X69523600Y-112385600D01*
X197970600Y-130898300D02*
X200218300Y-130898300D01*
X194828500Y-131388800D02*
X194828500Y-132146600D01*
X60551000Y-111692800D02*
X65320600Y-111692800D01*
X197512700Y-132288900D02*
X197512700Y-131356200D01*
X200218300Y-130898300D02*
X201320000Y-132000000D01*
%TO.N,ROW0*%
X300355000Y-42100000D02*
X271780000Y-42100000D01*
X195507500Y-42172500D02*
X176602500Y-42172500D01*
X119380000Y-42100000D02*
X100330000Y-42100000D01*
X252730000Y-42100000D02*
X233680000Y-42100000D01*
X176602500Y-42172500D02*
X176530000Y-42100000D01*
X214630000Y-42100000D02*
X195580000Y-42100000D01*
X138430000Y-42100000D02*
X119380000Y-42100000D01*
X233680000Y-42100000D02*
X214630000Y-42100000D01*
X138430000Y-42100000D02*
X157480000Y-42100000D01*
X81280000Y-42100000D02*
X100330000Y-42100000D01*
X271780000Y-42100000D02*
X252730000Y-42100000D01*
X328930000Y-42100000D02*
X300355000Y-42100000D01*
X62230000Y-42100000D02*
X81280000Y-42100000D01*
X195580000Y-42100000D02*
X195507500Y-42172500D01*
X43180000Y-42100000D02*
X62230000Y-42100000D01*
X176530000Y-42100000D02*
X157480000Y-42100000D01*
%TO.N,ROW1*%
X205105000Y-61150000D02*
X224155000Y-61150000D01*
X304673700Y-61593800D02*
X305117500Y-61150000D01*
X167005000Y-61150000D02*
X186055000Y-61150000D01*
X281748800Y-61593800D02*
X304673700Y-61593800D01*
X147955000Y-61150000D02*
X167005000Y-61150000D01*
X186055000Y-61150000D02*
X205105000Y-61150000D01*
X128905000Y-61150000D02*
X109855000Y-61150000D01*
X328930000Y-61150000D02*
X305117500Y-61150000D01*
X262255000Y-61150000D02*
X281305000Y-61150000D01*
X147955000Y-61150000D02*
X128905000Y-61150000D01*
X224155000Y-61150000D02*
X243205000Y-61150000D01*
X71755000Y-61150000D02*
X90805000Y-61150000D01*
X281305000Y-61150000D02*
X281748800Y-61593800D01*
X90805000Y-61150000D02*
X109855000Y-61150000D01*
X243205000Y-61150000D02*
X262255000Y-61150000D01*
X47942500Y-61150000D02*
X71755000Y-61150000D01*
%TO.N,GND*%
X110566400Y-130095000D02*
X108545300Y-130095000D01*
X115787900Y-131632500D02*
X115787900Y-132316800D01*
X178538600Y-30537500D02*
X177275000Y-29273900D01*
X109126700Y-128190000D02*
X109525000Y-128190000D01*
X126429800Y-29273900D02*
X177275000Y-29273900D01*
X117275000Y-28853200D02*
X117275000Y-28750000D01*
X243950000Y-32000000D02*
X243950000Y-32231900D01*
X109734700Y-136019700D02*
X110856900Y-134897500D01*
X197248100Y-133531900D02*
X187611900Y-133531900D01*
X223067600Y-113107600D02*
X224180000Y-114220000D01*
X108545300Y-130095000D02*
X108218500Y-129768200D01*
X186080000Y-132000000D02*
X184961400Y-133118600D01*
X57275000Y-28885300D02*
X57275000Y-28750000D01*
X188147500Y-33101900D02*
X188147500Y-36349100D01*
X114885400Y-130730000D02*
X115787900Y-131632500D01*
X110856900Y-134226700D02*
X109900200Y-133270000D01*
X63950000Y-31707800D02*
X63950000Y-32000000D01*
X110590900Y-139053100D02*
X111896900Y-139053100D01*
X109525000Y-132000000D02*
X109919300Y-132000000D01*
X187915500Y-41437900D02*
X188022200Y-41544600D01*
X297275000Y-28750000D02*
X247200000Y-28750000D01*
X110802300Y-130330900D02*
X110566400Y-130095000D01*
X109734700Y-136019700D02*
X109734700Y-138196900D01*
X115787900Y-132316800D02*
X114834700Y-133270000D01*
X109525000Y-135810000D02*
X109734700Y-136019700D01*
X320598300Y-20901700D02*
X315000000Y-26500000D01*
X183950000Y-32000000D02*
X187045600Y-32000000D01*
X114113800Y-134540000D02*
X112950000Y-135703800D01*
X95000000Y-26000000D02*
X95575900Y-26000000D01*
X63950000Y-31707800D02*
X62277100Y-30034900D01*
X212592400Y-113107600D02*
X223067600Y-113107600D01*
X182487500Y-30537500D02*
X178538600Y-30537500D01*
X247200000Y-28750000D02*
X243950000Y-32000000D01*
X123950000Y-32000000D02*
X123950000Y-31753700D01*
X187247800Y-113052200D02*
X186080000Y-114220000D01*
X116589700Y-133118600D02*
X115787900Y-132316800D01*
X114475000Y-134540000D02*
X114113800Y-134540000D01*
X109734700Y-138196900D02*
X110590900Y-139053100D01*
X302915200Y-33034800D02*
X301459800Y-33034800D01*
X188147500Y-33101900D02*
X191871000Y-29378400D01*
X188147500Y-36349100D02*
X187915500Y-36581100D01*
X224180000Y-132000000D02*
X223030500Y-133149500D01*
X301459800Y-33034800D02*
X297275000Y-28850000D01*
X114475000Y-133270000D02*
X114475000Y-134540000D01*
X98901700Y-28750000D02*
X96151700Y-26000000D01*
X62277100Y-30034900D02*
X58424600Y-30034900D01*
X212629500Y-133149500D02*
X211480000Y-132000000D01*
X108218500Y-129098200D02*
X109126700Y-128190000D01*
X237275000Y-29378400D02*
X237275000Y-28750000D01*
X110802300Y-131117000D02*
X110802300Y-130330900D01*
X110856900Y-134897500D02*
X110856900Y-134226700D01*
X109900200Y-133270000D02*
X109525000Y-133270000D01*
X315000000Y-26500000D02*
X309500000Y-32000000D01*
X211480000Y-114220000D02*
X212592400Y-113107600D01*
X309500000Y-32000000D02*
X303950000Y-32000000D01*
X242738100Y-33443800D02*
X241340400Y-33443800D01*
X198780000Y-114220000D02*
X197612200Y-113052200D01*
X109919300Y-132000000D02*
X110802300Y-131117000D01*
X197612200Y-113052200D02*
X187247800Y-113052200D01*
X114475000Y-129460000D02*
X114475000Y-130730000D01*
X187611900Y-133531900D02*
X186080000Y-132000000D01*
X122313200Y-30116900D02*
X118538700Y-30116900D01*
X117275000Y-28750000D02*
X98901700Y-28750000D01*
X177275000Y-29273900D02*
X177275000Y-28750000D01*
X114834700Y-133270000D02*
X114475000Y-133270000D01*
X58424600Y-30034900D02*
X57275000Y-28885300D01*
X111896900Y-139053100D02*
X112950000Y-138000000D01*
X77124600Y-18533200D02*
X88109100Y-18533200D01*
X109525000Y-133270000D02*
X109525000Y-132000000D01*
X243950000Y-32231900D02*
X242738100Y-33443800D01*
X303950000Y-32000000D02*
X302915200Y-33034800D01*
X112950000Y-135703800D02*
X112950000Y-138000000D01*
X191871000Y-29378400D02*
X237275000Y-29378400D01*
X88109100Y-18533200D02*
X95575900Y-26000000D01*
X320598300Y-20900000D02*
X320598300Y-20901700D01*
X95575900Y-26000000D02*
X96151700Y-26000000D01*
X223030500Y-133149500D02*
X212629500Y-133149500D01*
X187915500Y-36581100D02*
X187915500Y-41437900D01*
X322500000Y-20900000D02*
X320598300Y-20900000D01*
X241340400Y-33443800D02*
X237275000Y-29378400D01*
X114475000Y-130730000D02*
X114885400Y-130730000D01*
X108218500Y-129768200D02*
X108218500Y-129098200D01*
X198780000Y-132000000D02*
X197248100Y-133531900D01*
X187045600Y-32000000D02*
X188147500Y-33101900D01*
X297275000Y-28850000D02*
X297275000Y-28750000D01*
X184961400Y-133118600D02*
X116589700Y-133118600D01*
X63950000Y-31707800D02*
X77124600Y-18533200D01*
X118538700Y-30116900D02*
X117275000Y-28853200D01*
X123950000Y-31753700D02*
X122313200Y-30116900D01*
X123950000Y-31753700D02*
X126429800Y-29273900D01*
X183950000Y-32000000D02*
X182487500Y-30537500D01*
%TO.N,ROW2*%
X247967500Y-80200000D02*
X267017500Y-80200000D01*
X95567500Y-80200000D02*
X76517500Y-80200000D01*
X50323800Y-80200000D02*
X76517500Y-80200000D01*
X228917500Y-80200000D02*
X247967500Y-80200000D01*
X133667500Y-80200000D02*
X114617500Y-80200000D01*
X133667500Y-80200000D02*
X152717500Y-80200000D01*
X328930000Y-80200000D02*
X297973800Y-80200000D01*
X152717500Y-80200000D02*
X171767500Y-80200000D01*
X190817500Y-80200000D02*
X209867500Y-80200000D01*
X209867500Y-80200000D02*
X228917500Y-80200000D01*
X114617500Y-80200000D02*
X95567500Y-80200000D01*
X171767500Y-80200000D02*
X190817500Y-80200000D01*
X267017500Y-80200000D02*
X297973800Y-80200000D01*
%TO.N,ROW3*%
X309880000Y-99250000D02*
X283686300Y-99250000D01*
X181292500Y-99250000D02*
X162242500Y-99250000D01*
X328930000Y-99250000D02*
X309880000Y-99250000D01*
X238442500Y-99250000D02*
X257492500Y-99250000D01*
X283686300Y-99250000D02*
X257492500Y-99250000D01*
X55086300Y-99250000D02*
X86042500Y-99250000D01*
X238212900Y-99479600D02*
X238442500Y-99250000D01*
X124142500Y-99250000D02*
X105092500Y-99250000D01*
X219622100Y-99479600D02*
X238212900Y-99479600D01*
X143192500Y-99250000D02*
X124142500Y-99250000D01*
X86042500Y-99250000D02*
X105092500Y-99250000D01*
X200342500Y-99250000D02*
X181292500Y-99250000D01*
X143192500Y-99250000D02*
X162242500Y-99250000D01*
X219392500Y-99250000D02*
X219622100Y-99479600D01*
X200342500Y-99250000D02*
X219392500Y-99250000D01*
%TO.N,ROW4*%
X93186300Y-118300000D02*
X69373800Y-118300000D01*
X187648000Y-118300000D02*
X190274700Y-115673300D01*
X230259400Y-115673300D02*
X232886100Y-118300000D01*
X232886100Y-118300000D02*
X252730000Y-118300000D01*
X99835600Y-118167400D02*
X174016200Y-118167400D01*
X271780000Y-118300000D02*
X290830000Y-118300000D01*
X69373800Y-118300000D02*
X45561300Y-118300000D01*
X174148800Y-118300000D02*
X187648000Y-118300000D01*
X271780000Y-118300000D02*
X252730000Y-118300000D01*
X328930000Y-118300000D02*
X309880000Y-118300000D01*
X174016200Y-118167400D02*
X174148800Y-118300000D01*
X190274700Y-115673300D02*
X230259400Y-115673300D01*
X309880000Y-118300000D02*
X290830000Y-118300000D01*
%TO.N,COL0*%
X49793800Y-98637500D02*
X46675200Y-95519000D01*
X36671300Y-111760000D02*
X49793800Y-98637500D01*
X196240000Y-132000000D02*
X190407000Y-126167000D01*
X68305600Y-101605500D02*
X52761700Y-101605500D01*
X46675200Y-95519000D02*
X46675200Y-93188900D01*
X103797900Y-126167000D02*
X94353400Y-116722500D01*
X89713900Y-116871400D02*
X83571500Y-116871400D01*
X190407000Y-126167000D02*
X103797900Y-126167000D01*
X83571500Y-116871400D02*
X68305600Y-101605500D01*
X46675200Y-93188900D02*
X46196300Y-92710000D01*
X52761700Y-101605500D02*
X49793800Y-98637500D01*
X94353400Y-116722500D02*
X89862800Y-116722500D01*
X89862800Y-116722500D02*
X89713900Y-116871400D01*
%TO.N,COL2*%
X89133100Y-111692800D02*
X89825900Y-112385600D01*
X93336100Y-112385600D02*
X99233900Y-118283400D01*
X103033800Y-122216400D02*
X194076400Y-122216400D01*
X89825900Y-112385600D02*
X93336100Y-112385600D01*
X99233900Y-118416500D02*
X103033800Y-122216400D01*
X194076400Y-122216400D02*
X203860000Y-132000000D01*
X84363500Y-111692800D02*
X89133100Y-111692800D01*
X99233900Y-118283400D02*
X99233900Y-118416500D01*
X84296300Y-111760000D02*
X84363500Y-111692800D01*
%TO.N,COL3*%
X165258800Y-111760000D02*
X146275500Y-111760000D01*
X146275500Y-111760000D02*
X136374000Y-101858500D01*
%TO.N,COL4*%
X208940000Y-132000000D02*
X210544100Y-133604100D01*
X225308500Y-131795900D02*
X226418600Y-130685800D01*
X224128500Y-133604100D02*
X225308500Y-132424100D01*
X226418600Y-130685800D02*
X227136400Y-130685800D01*
X225308500Y-132424100D02*
X225308500Y-131795900D01*
X210544100Y-133604100D02*
X224128500Y-133604100D01*
%TO.N,COL6*%
X204360500Y-119800500D02*
X172433300Y-119800500D01*
X216560000Y-132000000D02*
X204360500Y-119800500D01*
%TO.N,COL7*%
X191452500Y-92710000D02*
X184757500Y-86015000D01*
%TO.N,COL9*%
X229552500Y-92710000D02*
X229842100Y-92999600D01*
X229842100Y-92999600D02*
X229842100Y-98868400D01*
%TO.N,COL10*%
X248602500Y-92710000D02*
X248669700Y-92642800D01*
X254132100Y-93335600D02*
X259350900Y-93335600D01*
X248669700Y-92642800D02*
X253439300Y-92642800D01*
X259350900Y-93335600D02*
X263777400Y-97762100D01*
X253439300Y-92642800D02*
X254132100Y-93335600D01*
%TO.N,COL11*%
X274796300Y-92710000D02*
X273548500Y-92710000D01*
X273548500Y-92710000D02*
X262259600Y-81421100D01*
%TO.N,COL12*%
X289083800Y-73660000D02*
X277881800Y-62458000D01*
%TO.N,COL14*%
X299975900Y-60992100D02*
X298614800Y-60992100D01*
X321128300Y-34471700D02*
X320040000Y-35560000D01*
X329500000Y-29000000D02*
X329500000Y-31963100D01*
X301750000Y-59218000D02*
X299975900Y-60992100D01*
X309778200Y-54610000D02*
X305170200Y-59218000D01*
X326991400Y-34471700D02*
X321128300Y-34471700D01*
X329500000Y-31963100D02*
X326991400Y-34471700D01*
X320040000Y-54610000D02*
X309778200Y-54610000D01*
X305170200Y-59218000D02*
X301750000Y-59218000D01*
%TO.N,ENC_B*%
X244752900Y-87460100D02*
X251397300Y-80815700D01*
X209944700Y-97795600D02*
X218967600Y-97795600D01*
X251397300Y-80815700D02*
X264459900Y-80815700D01*
X218967600Y-97795600D02*
X229303100Y-87460100D01*
X229303100Y-87460100D02*
X244752900Y-87460100D01*
%TO.N,RGB_IN*%
X190176100Y-127587700D02*
X190370600Y-127782200D01*
X110510200Y-129460000D02*
X112382500Y-127587700D01*
X112382500Y-127587700D02*
X190176100Y-127587700D01*
X109525000Y-129460000D02*
X110510200Y-129460000D01*
%TO.N,I2C_SDA*%
X92707500Y-33620000D02*
X79087500Y-20000000D01*
X95000000Y-33620000D02*
X92707500Y-33620000D01*
X190676300Y-101036300D02*
X136177900Y-101036300D01*
X203860000Y-114220000D02*
X190676300Y-101036300D01*
%TO.N,I2C_SCL*%
X140999400Y-101479200D02*
X140433900Y-102044700D01*
X85087500Y-20000000D02*
X85087500Y-21167500D01*
X85087500Y-21167500D02*
X95000000Y-31080000D01*
X201320000Y-114220000D02*
X188579200Y-101479200D01*
X188579200Y-101479200D02*
X140999400Y-101479200D01*
%TO.N,+3V3*%
X178661500Y-115323100D02*
X189075000Y-115323100D01*
X81946400Y-18966100D02*
X80912500Y-20000000D01*
X86912500Y-20452500D02*
X86912500Y-20000000D01*
X175916000Y-112577600D02*
X178661500Y-115323100D01*
X190178100Y-114220000D02*
X191160000Y-114220000D01*
X189075000Y-115323100D02*
X190178100Y-114220000D01*
X170946500Y-112577600D02*
X175916000Y-112577600D01*
X95000000Y-28540000D02*
X86912500Y-20452500D01*
X152652900Y-102082700D02*
X160451600Y-102082700D01*
X160451600Y-102082700D02*
X170946500Y-112577600D01*
X86912500Y-20000000D02*
X85878600Y-18966100D01*
X85878600Y-18966100D02*
X81946400Y-18966100D01*
%TO.N,+5V*%
X71063200Y-17693700D02*
X62725000Y-26031900D01*
X302725000Y-27250000D02*
X302725000Y-27066500D01*
X242725000Y-27250000D02*
X243721100Y-28246100D01*
X62725000Y-26031900D02*
X62725000Y-27250000D01*
X122725000Y-27250000D02*
X122725000Y-26788500D01*
X242725000Y-26023700D02*
X183043800Y-26023700D01*
X113630200Y-17693700D02*
X71063200Y-17693700D01*
X181569700Y-31519700D02*
X182050000Y-32000000D01*
X182725000Y-26342500D02*
X182737000Y-26330500D01*
X114128100Y-128190000D02*
X114475000Y-128190000D01*
X122725000Y-26788500D02*
X122352300Y-26415700D01*
X111050000Y-138000000D02*
X112148800Y-136901200D01*
X122064000Y-30767300D02*
X122064000Y-31986000D01*
X55824600Y-29297000D02*
X57589300Y-31061700D01*
X302725000Y-27066500D02*
X301682200Y-26023700D01*
X122352300Y-26415700D02*
X113630200Y-17693700D01*
X122064000Y-31986000D02*
X122050000Y-32000000D01*
X114475000Y-128190000D02*
X182875700Y-128190000D01*
X61111700Y-31061700D02*
X62050000Y-32000000D01*
X57061600Y-26031900D02*
X55824600Y-27268900D01*
X180142700Y-31519700D02*
X181569700Y-31519700D01*
X112148800Y-136901200D02*
X112148800Y-130169300D01*
X302050000Y-32000000D02*
X303728300Y-30321700D01*
X242725000Y-26023700D02*
X242725000Y-27250000D01*
X57589300Y-31061700D02*
X61111700Y-31061700D01*
X112148800Y-130169300D02*
X114128100Y-128190000D01*
X62725000Y-26031900D02*
X57061600Y-26031900D01*
X183043800Y-26023700D02*
X182737000Y-26330500D01*
X303728300Y-30321700D02*
X303728300Y-28253300D01*
X243721100Y-29760900D02*
X242050000Y-31432000D01*
X303728300Y-28253300D02*
X302725000Y-27250000D01*
X301682200Y-26023700D02*
X242725000Y-26023700D01*
X242050000Y-31432000D02*
X242050000Y-32000000D01*
X55824600Y-27268900D02*
X55824600Y-29297000D01*
X243721100Y-28246100D02*
X243721100Y-29760900D01*
X182725000Y-27250000D02*
X182725000Y-26342500D01*
X122454400Y-26313600D02*
X122352300Y-26415700D01*
%TO.N,N$43*%
X296893800Y-72580000D02*
X295433800Y-71120000D01*
X297973800Y-72580000D02*
X296893800Y-72580000D01*
%TO.N,LED_D1*%
X108141500Y-18116500D02*
X117275000Y-27250000D01*
X62725000Y-28750000D02*
X73358500Y-18116500D01*
X73358500Y-18116500D02*
X108141500Y-18116500D01*
%TO.N,LED_D2*%
X124225000Y-27250000D02*
X177275000Y-27250000D01*
X122725000Y-28750000D02*
X124225000Y-27250000D01*
%TO.N,LED_D0*%
X82357600Y-40558900D02*
X82270900Y-40645600D01*
X107787600Y-130009000D02*
X108508600Y-130730000D01*
X56235400Y-28289600D02*
X57275000Y-27250000D01*
X63000000Y-32627900D02*
X63000000Y-31384400D01*
X82270900Y-40645600D02*
X71017700Y-40645600D01*
X62052200Y-30436600D02*
X57540400Y-30436600D01*
X63000000Y-31384400D02*
X62052200Y-30436600D01*
X71017700Y-40645600D02*
X63000000Y-32627900D01*
X56235400Y-29131600D02*
X56235400Y-28289600D01*
X57540400Y-30436600D02*
X56235400Y-29131600D01*
X107787600Y-128676600D02*
X107787600Y-130009000D01*
X108508600Y-130730000D02*
X109525000Y-130730000D01*
%TO.N,LED_D4*%
X247186600Y-27250000D02*
X297275000Y-27250000D01*
X242852700Y-32743600D02*
X242852700Y-31583900D01*
X242852700Y-31583900D02*
X247186600Y-27250000D01*
X242725000Y-28750000D02*
X242725000Y-29697800D01*
X241215100Y-32674400D02*
X241578000Y-33037300D01*
X241215100Y-31207700D02*
X241215100Y-32674400D01*
X241578000Y-33037300D02*
X242559000Y-33037300D01*
X242559000Y-33037300D02*
X242852700Y-32743600D01*
X242725000Y-29697800D02*
X241215100Y-31207700D01*
%TO.N,N$51*%
X181292500Y-91630000D02*
X180212500Y-91630000D01*
X180212500Y-91630000D02*
X178752500Y-90170000D01*
%TO.N,LED_D3*%
X184225000Y-27250000D02*
X182725000Y-28750000D01*
X237275000Y-27250000D02*
X184225000Y-27250000D01*
%TD*%
M02*
