%TF.GenerationSoftware,KiCad,Pcbnew,10.0.5*%
%TF.CreationDate,2026-08-27T16:41:22+05:30*%
%TF.ProjectId,dream-keyboard,64726561-6d2d-46b6-9579-626f6172642e,rev?*%
%TF.SameCoordinates,Original*%
%TF.FileFunction,Other,User*%
%FSLAX46Y46*%
G04 Gerber Fmt 4.6, Leading zero omitted, Abs format (unit mm)*
G04 Created by KiCad (PCBNEW 10.0.5) date 2026-08-27 16:41:22*
%MOMM*%
%LPD*%
G01*
G04 APERTURE LIST*
%ADD10C,0.050000*%
G04 APERTURE END LIST*
%TO.C,D10*%
D10*
X213380000Y-33430000D02*
X215880000Y-33430000D01*
X215880000Y-43150000D01*
X213380000Y-43150000D01*
X213380000Y-33430000D01*
%TO.C,D65*%
X289580000Y-109630000D02*
X292080000Y-109630000D01*
X292080000Y-119350000D01*
X289580000Y-119350000D01*
X289580000Y-109630000D01*
%TO.C,D38*%
X189567500Y-71530000D02*
X192067500Y-71530000D01*
X192067500Y-81250000D01*
X189567500Y-81250000D01*
X189567500Y-71530000D01*
%TO.C,D37*%
X170517500Y-71530000D02*
X173017500Y-71530000D01*
X173017500Y-81250000D01*
X170517500Y-81250000D01*
X170517500Y-71530000D01*
%TO.C,D62*%
X172898800Y-109630000D02*
X175398800Y-109630000D01*
X175398800Y-119350000D01*
X172898800Y-119350000D01*
X172898800Y-109630000D01*
%TO.C,D67*%
X327680000Y-109630000D02*
X330180000Y-109630000D01*
X330180000Y-119350000D01*
X327680000Y-119350000D01*
X327680000Y-109630000D01*
%TO.C,D29*%
X303867500Y-52480000D02*
X306367500Y-52480000D01*
X306367500Y-62200000D01*
X303867500Y-62200000D01*
X303867500Y-52480000D01*
%TO.C,D4*%
X99080000Y-33430000D02*
X101580000Y-33430000D01*
X101580000Y-43150000D01*
X99080000Y-43150000D01*
X99080000Y-33430000D01*
%TO.C,D47*%
X103842500Y-90580000D02*
X106342500Y-90580000D01*
X106342500Y-100300000D01*
X103842500Y-100300000D01*
X103842500Y-90580000D01*
%TO.C,D41*%
X246717500Y-71530000D02*
X249217500Y-71530000D01*
X249217500Y-81250000D01*
X246717500Y-81250000D01*
X246717500Y-71530000D01*
%TO.C,D66*%
X308630000Y-109630000D02*
X311130000Y-109630000D01*
X311130000Y-119350000D01*
X308630000Y-119350000D01*
X308630000Y-109630000D01*
%TO.C,D25*%
X222905000Y-52480000D02*
X225405000Y-52480000D01*
X225405000Y-62200000D01*
X222905000Y-62200000D01*
X222905000Y-52480000D01*
%TO.C,D19*%
X108605000Y-52480000D02*
X111105000Y-52480000D01*
X111105000Y-62200000D01*
X108605000Y-62200000D01*
X108605000Y-52480000D01*
%TO.C,D64*%
X270530000Y-109630000D02*
X273030000Y-109630000D01*
X273030000Y-119350000D01*
X270530000Y-119350000D01*
X270530000Y-109630000D01*
%TO.C,D63*%
X251480000Y-109630000D02*
X253980000Y-109630000D01*
X253980000Y-119350000D01*
X251480000Y-119350000D01*
X251480000Y-109630000D01*
%TO.C,D7*%
X156230000Y-33430000D02*
X158730000Y-33430000D01*
X158730000Y-43150000D01*
X156230000Y-43150000D01*
X156230000Y-33430000D01*
%TO.C,D40*%
X227667500Y-71530000D02*
X230167500Y-71530000D01*
X230167500Y-81250000D01*
X227667500Y-81250000D01*
X227667500Y-71530000D01*
%TO.C,D3*%
X80030000Y-33430000D02*
X82530000Y-33430000D01*
X82530000Y-43150000D01*
X80030000Y-43150000D01*
X80030000Y-33430000D01*
%TO.C,D32*%
X75267500Y-71530000D02*
X77767500Y-71530000D01*
X77767500Y-81250000D01*
X75267500Y-81250000D01*
X75267500Y-71530000D01*
%TO.C,D43*%
X296723800Y-71530000D02*
X299223800Y-71530000D01*
X299223800Y-81250000D01*
X296723800Y-81250000D01*
X296723800Y-71530000D01*
%TO.C,D57*%
X308630000Y-90580000D02*
X311130000Y-90580000D01*
X311130000Y-100300000D01*
X308630000Y-100300000D01*
X308630000Y-90580000D01*
%TO.C,D11*%
X232430000Y-33430000D02*
X234930000Y-33430000D01*
X234930000Y-43150000D01*
X232430000Y-43150000D01*
X232430000Y-33430000D01*
%TO.C,D21*%
X146705000Y-52480000D02*
X149205000Y-52480000D01*
X149205000Y-62200000D01*
X146705000Y-62200000D01*
X146705000Y-52480000D01*
%TO.C,D12*%
X251480000Y-33430000D02*
X253980000Y-33430000D01*
X253980000Y-43150000D01*
X251480000Y-43150000D01*
X251480000Y-33430000D01*
%TO.C,D50*%
X160992500Y-90580000D02*
X163492500Y-90580000D01*
X163492500Y-100300000D01*
X160992500Y-100300000D01*
X160992500Y-90580000D01*
%TO.C,D56*%
X282436300Y-90580000D02*
X284936300Y-90580000D01*
X284936300Y-100300000D01*
X282436300Y-100300000D01*
X282436300Y-90580000D01*
%TO.C,D35*%
X132417500Y-71530000D02*
X134917500Y-71530000D01*
X134917500Y-81250000D01*
X132417500Y-81250000D01*
X132417500Y-71530000D01*
%TO.C,D2*%
X60980000Y-33430000D02*
X63480000Y-33430000D01*
X63480000Y-43150000D01*
X60980000Y-43150000D01*
X60980000Y-33430000D01*
%TO.C,D13*%
X270530000Y-33430000D02*
X273030000Y-33430000D01*
X273030000Y-43150000D01*
X270530000Y-43150000D01*
X270530000Y-33430000D01*
%TO.C,D49*%
X141942500Y-90580000D02*
X144442500Y-90580000D01*
X144442500Y-100300000D01*
X141942500Y-100300000D01*
X141942500Y-90580000D01*
%TO.C,D59*%
X44311300Y-109630000D02*
X46811300Y-109630000D01*
X46811300Y-119350000D01*
X44311300Y-119350000D01*
X44311300Y-109630000D01*
%TO.C,D33*%
X94317500Y-71530000D02*
X96817500Y-71530000D01*
X96817500Y-81250000D01*
X94317500Y-81250000D01*
X94317500Y-71530000D01*
%TO.C,D6*%
X137180000Y-33430000D02*
X139680000Y-33430000D01*
X139680000Y-43150000D01*
X137180000Y-43150000D01*
X137180000Y-33430000D01*
%TO.C,D16*%
X46692500Y-52480000D02*
X49192500Y-52480000D01*
X49192500Y-62200000D01*
X46692500Y-62200000D01*
X46692500Y-52480000D01*
%TO.C,D27*%
X261005000Y-52480000D02*
X263505000Y-52480000D01*
X263505000Y-62200000D01*
X261005000Y-62200000D01*
X261005000Y-52480000D01*
%TO.C,D30*%
X327680000Y-52480000D02*
X330180000Y-52480000D01*
X330180000Y-62200000D01*
X327680000Y-62200000D01*
X327680000Y-52480000D01*
%TO.C,D54*%
X237192500Y-90580000D02*
X239692500Y-90580000D01*
X239692500Y-100300000D01*
X237192500Y-100300000D01*
X237192500Y-90580000D01*
%TO.C,D42*%
X265767500Y-71530000D02*
X268267500Y-71530000D01*
X268267500Y-81250000D01*
X265767500Y-81250000D01*
X265767500Y-71530000D01*
%TO.C,D8*%
X175280000Y-33430000D02*
X177780000Y-33430000D01*
X177780000Y-43150000D01*
X175280000Y-43150000D01*
X175280000Y-33430000D01*
%TO.C,D55*%
X256242500Y-90580000D02*
X258742500Y-90580000D01*
X258742500Y-100300000D01*
X256242500Y-100300000D01*
X256242500Y-90580000D01*
%TO.C,D52*%
X199092500Y-90580000D02*
X201592500Y-90580000D01*
X201592500Y-100300000D01*
X199092500Y-100300000D01*
X199092500Y-90580000D01*
%TO.C,D5*%
X118130000Y-33430000D02*
X120630000Y-33430000D01*
X120630000Y-43150000D01*
X118130000Y-43150000D01*
X118130000Y-33430000D01*
%TO.C,D39*%
X208617500Y-71530000D02*
X211117500Y-71530000D01*
X211117500Y-81250000D01*
X208617500Y-81250000D01*
X208617500Y-71530000D01*
%TO.C,D44*%
X327680000Y-71530000D02*
X330180000Y-71530000D01*
X330180000Y-81250000D01*
X327680000Y-81250000D01*
X327680000Y-71530000D01*
%TO.C,D20*%
X127655000Y-52480000D02*
X130155000Y-52480000D01*
X130155000Y-62200000D01*
X127655000Y-62200000D01*
X127655000Y-52480000D01*
%TO.C,D58*%
X327680000Y-90580000D02*
X330180000Y-90580000D01*
X330180000Y-100300000D01*
X327680000Y-100300000D01*
X327680000Y-90580000D01*
%TO.C,D1*%
X41930000Y-33430000D02*
X44430000Y-33430000D01*
X44430000Y-43150000D01*
X41930000Y-43150000D01*
X41930000Y-33430000D01*
%TO.C,D26*%
X241955000Y-52480000D02*
X244455000Y-52480000D01*
X244455000Y-62200000D01*
X241955000Y-62200000D01*
X241955000Y-52480000D01*
%TO.C,D53*%
X218142500Y-90580000D02*
X220642500Y-90580000D01*
X220642500Y-100300000D01*
X218142500Y-100300000D01*
X218142500Y-90580000D01*
%TO.C,D61*%
X91936300Y-109630000D02*
X94436300Y-109630000D01*
X94436300Y-119350000D01*
X91936300Y-119350000D01*
X91936300Y-109630000D01*
%TO.C,D24*%
X203855000Y-52480000D02*
X206355000Y-52480000D01*
X206355000Y-62200000D01*
X203855000Y-62200000D01*
X203855000Y-52480000D01*
%TO.C,D48*%
X122892500Y-90580000D02*
X125392500Y-90580000D01*
X125392500Y-100300000D01*
X122892500Y-100300000D01*
X122892500Y-90580000D01*
%TO.C,D28*%
X280055000Y-52480000D02*
X282555000Y-52480000D01*
X282555000Y-62200000D01*
X280055000Y-62200000D01*
X280055000Y-52480000D01*
%TO.C,D22*%
X165755000Y-52480000D02*
X168255000Y-52480000D01*
X168255000Y-62200000D01*
X165755000Y-62200000D01*
X165755000Y-52480000D01*
%TO.C,D14*%
X299105000Y-33430000D02*
X301605000Y-33430000D01*
X301605000Y-43150000D01*
X299105000Y-43150000D01*
X299105000Y-33430000D01*
%TO.C,D45*%
X53836300Y-90580000D02*
X56336300Y-90580000D01*
X56336300Y-100300000D01*
X53836300Y-100300000D01*
X53836300Y-90580000D01*
%TO.C,D60*%
X68123800Y-109630000D02*
X70623800Y-109630000D01*
X70623800Y-119350000D01*
X68123800Y-119350000D01*
X68123800Y-109630000D01*
%TO.C,D9*%
X194330000Y-33430000D02*
X196830000Y-33430000D01*
X196830000Y-43150000D01*
X194330000Y-43150000D01*
X194330000Y-33430000D01*
%TO.C,D15*%
X327680000Y-33430000D02*
X330180000Y-33430000D01*
X330180000Y-43150000D01*
X327680000Y-43150000D01*
X327680000Y-33430000D01*
%TO.C,D46*%
X84792500Y-90580000D02*
X87292500Y-90580000D01*
X87292500Y-100300000D01*
X84792500Y-100300000D01*
X84792500Y-90580000D01*
%TO.C,D51*%
X180042500Y-90580000D02*
X182542500Y-90580000D01*
X182542500Y-100300000D01*
X180042500Y-100300000D01*
X180042500Y-90580000D01*
%TO.C,D23*%
X184805000Y-52480000D02*
X187305000Y-52480000D01*
X187305000Y-62200000D01*
X184805000Y-62200000D01*
X184805000Y-52480000D01*
%TO.C,D18*%
X89555000Y-52480000D02*
X92055000Y-52480000D01*
X92055000Y-62200000D01*
X89555000Y-62200000D01*
X89555000Y-52480000D01*
%TO.C,D31*%
X49073800Y-71530000D02*
X51573800Y-71530000D01*
X51573800Y-81250000D01*
X49073800Y-81250000D01*
X49073800Y-71530000D01*
%TO.C,D34*%
X113367500Y-71530000D02*
X115867500Y-71530000D01*
X115867500Y-81250000D01*
X113367500Y-81250000D01*
X113367500Y-71530000D01*
%TO.C,D36*%
X151467500Y-71530000D02*
X153967500Y-71530000D01*
X153967500Y-81250000D01*
X151467500Y-81250000D01*
X151467500Y-71530000D01*
%TO.C,D17*%
X70505000Y-52480000D02*
X73005000Y-52480000D01*
X73005000Y-62200000D01*
X70505000Y-62200000D01*
X70505000Y-52480000D01*
%TD*%
M02*
