%TF.GenerationSoftware,KiCad,Pcbnew,10.0.5*%
%TF.CreationDate,2026-08-27T16:41:22+05:30*%
%TF.ProjectId,dream-keyboard,64726561-6d2d-46b6-9579-626f6172642e,rev?*%
%TF.SameCoordinates,Original*%
%TF.FileFunction,OtherDrawing,Comment*%
%FSLAX46Y46*%
G04 Gerber Fmt 4.6, Leading zero omitted, Abs format (unit mm)*
G04 Created by KiCad (PCBNEW 10.0.5) date 2026-08-27 16:41:22*
%MOMM*%
%LPD*%
G01*
G04 APERTURE LIST*
%ADD10C,0.120000*%
G04 APERTURE END LIST*
%TO.C,SW2*%
D10*
X47625000Y-28575000D02*
X47625000Y-47625000D01*
X47625000Y-47625000D02*
X66675000Y-47625000D01*
X66675000Y-28575000D02*
X47625000Y-28575000D01*
X66675000Y-47625000D02*
X66675000Y-28575000D01*
%TO.C,SW32*%
X61912500Y-66675000D02*
X61912500Y-85725000D01*
X61912500Y-85725000D02*
X80962500Y-85725000D01*
X80962500Y-66675000D02*
X61912500Y-66675000D01*
X80962500Y-85725000D02*
X80962500Y-66675000D01*
%TO.C,U1*%
X182680000Y-117410000D02*
G75*
G02*
X180580000Y-117410000I-1050000J0D01*
G01*
X180580000Y-117410000D02*
G75*
G02*
X182680000Y-117410000I1050000J0D01*
G01*
X182680000Y-128810000D02*
G75*
G02*
X180580000Y-128810000I-1050000J0D01*
G01*
X180580000Y-128810000D02*
G75*
G02*
X182680000Y-128810000I1050000J0D01*
G01*
X229680000Y-117410000D02*
G75*
G02*
X227580000Y-117410000I-1050000J0D01*
G01*
X227580000Y-117410000D02*
G75*
G02*
X229680000Y-117410000I1050000J0D01*
G01*
X229680000Y-128810000D02*
G75*
G02*
X227580000Y-128810000I-1050000J0D01*
G01*
X227580000Y-128810000D02*
G75*
G02*
X229680000Y-128810000I1050000J0D01*
G01*
%TO.C,SW23*%
X171450000Y-47625000D02*
X171450000Y-66675000D01*
X171450000Y-66675000D02*
X190500000Y-66675000D01*
X190500000Y-47625000D02*
X171450000Y-47625000D01*
X190500000Y-66675000D02*
X190500000Y-47625000D01*
%TO.C,SW58*%
X314325000Y-85725000D02*
X314325000Y-104775000D01*
X314325000Y-104775000D02*
X333375000Y-104775000D01*
X333375000Y-85725000D02*
X314325000Y-85725000D01*
X333375000Y-104775000D02*
X333375000Y-85725000D01*
%TO.C,SW45*%
X40481300Y-85725000D02*
X40481300Y-104775000D01*
X40481300Y-104775000D02*
X59531300Y-104775000D01*
X59531300Y-85725000D02*
X40481300Y-85725000D01*
X59531300Y-104775000D02*
X59531300Y-85725000D01*
%TO.C,SW41*%
X233362500Y-66675000D02*
X233362500Y-85725000D01*
X233362500Y-85725000D02*
X252412500Y-85725000D01*
X252412500Y-66675000D02*
X233362500Y-66675000D01*
X252412500Y-85725000D02*
X252412500Y-66675000D01*
%TO.C,SW50*%
X147637500Y-85725000D02*
X147637500Y-104775000D01*
X147637500Y-104775000D02*
X166687500Y-104775000D01*
X166687500Y-85725000D02*
X147637500Y-85725000D01*
X166687500Y-104775000D02*
X166687500Y-85725000D01*
%TO.C,SW43*%
X283368800Y-66675000D02*
X283368800Y-85725000D01*
X283368800Y-85725000D02*
X302418800Y-85725000D01*
X302418800Y-66675000D02*
X283368800Y-66675000D01*
X302418800Y-85725000D02*
X302418800Y-66675000D01*
%TO.C,SW56*%
X269081300Y-85725000D02*
X269081300Y-104775000D01*
X269081300Y-104775000D02*
X288131300Y-104775000D01*
X288131300Y-85725000D02*
X269081300Y-85725000D01*
X288131300Y-104775000D02*
X288131300Y-85725000D01*
%TO.C,SW6*%
X123825000Y-28575000D02*
X123825000Y-47625000D01*
X123825000Y-47625000D02*
X142875000Y-47625000D01*
X142875000Y-28575000D02*
X123825000Y-28575000D01*
X142875000Y-47625000D02*
X142875000Y-28575000D01*
%TO.C,SW39*%
X195262500Y-66675000D02*
X195262500Y-85725000D01*
X195262500Y-85725000D02*
X214312500Y-85725000D01*
X214312500Y-66675000D02*
X195262500Y-66675000D01*
X214312500Y-85725000D02*
X214312500Y-66675000D01*
%TO.C,SW3*%
X66675000Y-28575000D02*
X66675000Y-47625000D01*
X66675000Y-47625000D02*
X85725000Y-47625000D01*
X85725000Y-28575000D02*
X66675000Y-28575000D01*
X85725000Y-47625000D02*
X85725000Y-28575000D01*
%TO.C,SW55*%
X242887500Y-85725000D02*
X242887500Y-104775000D01*
X242887500Y-104775000D02*
X261937500Y-104775000D01*
X261937500Y-85725000D02*
X242887500Y-85725000D01*
X261937500Y-104775000D02*
X261937500Y-85725000D01*
%TO.C,SW67*%
X314325000Y-104775000D02*
X314325000Y-123825000D01*
X314325000Y-123825000D02*
X333375000Y-123825000D01*
X333375000Y-104775000D02*
X314325000Y-104775000D01*
X333375000Y-123825000D02*
X333375000Y-104775000D01*
%TO.C,SW21*%
X133350000Y-47625000D02*
X133350000Y-66675000D01*
X133350000Y-66675000D02*
X152400000Y-66675000D01*
X152400000Y-47625000D02*
X133350000Y-47625000D01*
X152400000Y-66675000D02*
X152400000Y-47625000D01*
%TO.C,SW13*%
X257175000Y-28575000D02*
X257175000Y-47625000D01*
X257175000Y-47625000D02*
X276225000Y-47625000D01*
X276225000Y-28575000D02*
X257175000Y-28575000D01*
X276225000Y-47625000D02*
X276225000Y-28575000D01*
%TO.C,SW53*%
X204787500Y-85725000D02*
X204787500Y-104775000D01*
X204787500Y-104775000D02*
X223837500Y-104775000D01*
X223837500Y-85725000D02*
X204787500Y-85725000D01*
X223837500Y-104775000D02*
X223837500Y-85725000D01*
%TO.C,SW12*%
X238125000Y-28575000D02*
X238125000Y-47625000D01*
X238125000Y-47625000D02*
X257175000Y-47625000D01*
X257175000Y-28575000D02*
X238125000Y-28575000D01*
X257175000Y-47625000D02*
X257175000Y-28575000D01*
%TO.C,SW36*%
X138112500Y-66675000D02*
X138112500Y-85725000D01*
X138112500Y-85725000D02*
X157162500Y-85725000D01*
X157162500Y-66675000D02*
X138112500Y-66675000D01*
X157162500Y-85725000D02*
X157162500Y-66675000D01*
%TO.C,SW46*%
X71437500Y-85725000D02*
X71437500Y-104775000D01*
X71437500Y-104775000D02*
X90487500Y-104775000D01*
X90487500Y-85725000D02*
X71437500Y-85725000D01*
X90487500Y-104775000D02*
X90487500Y-85725000D01*
%TO.C,SW29*%
X290512500Y-47625000D02*
X290512500Y-66675000D01*
X290512500Y-66675000D02*
X309562500Y-66675000D01*
X309562500Y-47625000D02*
X290512500Y-47625000D01*
X309562500Y-66675000D02*
X309562500Y-47625000D01*
%TO.C,SW42*%
X252412500Y-66675000D02*
X252412500Y-85725000D01*
X252412500Y-85725000D02*
X271462500Y-85725000D01*
X271462500Y-66675000D02*
X252412500Y-66675000D01*
X271462500Y-85725000D02*
X271462500Y-66675000D01*
%TO.C,SW7*%
X142875000Y-28575000D02*
X142875000Y-47625000D01*
X142875000Y-47625000D02*
X161925000Y-47625000D01*
X161925000Y-28575000D02*
X142875000Y-28575000D01*
X161925000Y-47625000D02*
X161925000Y-28575000D01*
%TO.C,SW20*%
X114300000Y-47625000D02*
X114300000Y-66675000D01*
X114300000Y-66675000D02*
X133350000Y-66675000D01*
X133350000Y-47625000D02*
X114300000Y-47625000D01*
X133350000Y-66675000D02*
X133350000Y-47625000D01*
%TO.C,SW27*%
X247650000Y-47625000D02*
X247650000Y-66675000D01*
X247650000Y-66675000D02*
X266700000Y-66675000D01*
X266700000Y-47625000D02*
X247650000Y-47625000D01*
X266700000Y-66675000D02*
X266700000Y-47625000D01*
%TO.C,SW1*%
X28575000Y-28575000D02*
X28575000Y-47625000D01*
X28575000Y-47625000D02*
X47625000Y-47625000D01*
X47625000Y-28575000D02*
X28575000Y-28575000D01*
X47625000Y-47625000D02*
X47625000Y-28575000D01*
%TO.C,SW5*%
X104775000Y-28575000D02*
X104775000Y-47625000D01*
X104775000Y-47625000D02*
X123825000Y-47625000D01*
X123825000Y-28575000D02*
X104775000Y-28575000D01*
X123825000Y-47625000D02*
X123825000Y-28575000D01*
%TO.C,SW61*%
X78581300Y-104775000D02*
X78581300Y-123825000D01*
X78581300Y-123825000D02*
X97631300Y-123825000D01*
X97631300Y-104775000D02*
X78581300Y-104775000D01*
X97631300Y-123825000D02*
X97631300Y-104775000D01*
%TO.C,SW24*%
X190500000Y-47625000D02*
X190500000Y-66675000D01*
X190500000Y-66675000D02*
X209550000Y-66675000D01*
X209550000Y-47625000D02*
X190500000Y-47625000D01*
X209550000Y-66675000D02*
X209550000Y-47625000D01*
%TO.C,SW62*%
X159543800Y-104775000D02*
X159543800Y-123825000D01*
X159543800Y-123825000D02*
X178593800Y-123825000D01*
X178593800Y-104775000D02*
X159543800Y-104775000D01*
X178593800Y-123825000D02*
X178593800Y-104775000D01*
%TO.C,SW40*%
X214312500Y-66675000D02*
X214312500Y-85725000D01*
X214312500Y-85725000D02*
X233362500Y-85725000D01*
X233362500Y-66675000D02*
X214312500Y-66675000D01*
X233362500Y-85725000D02*
X233362500Y-66675000D01*
%TO.C,SW65*%
X276225000Y-104775000D02*
X276225000Y-123825000D01*
X276225000Y-123825000D02*
X295275000Y-123825000D01*
X295275000Y-104775000D02*
X276225000Y-104775000D01*
X295275000Y-123825000D02*
X295275000Y-104775000D01*
%TO.C,SW44*%
X314325000Y-66675000D02*
X314325000Y-85725000D01*
X314325000Y-85725000D02*
X333375000Y-85725000D01*
X333375000Y-66675000D02*
X314325000Y-66675000D01*
X333375000Y-85725000D02*
X333375000Y-66675000D01*
%TO.C,SW64*%
X257175000Y-104775000D02*
X257175000Y-123825000D01*
X257175000Y-123825000D02*
X276225000Y-123825000D01*
X276225000Y-104775000D02*
X257175000Y-104775000D01*
X276225000Y-123825000D02*
X276225000Y-104775000D01*
%TO.C,SW38*%
X176212500Y-66675000D02*
X176212500Y-85725000D01*
X176212500Y-85725000D02*
X195262500Y-85725000D01*
X195262500Y-66675000D02*
X176212500Y-66675000D01*
X195262500Y-85725000D02*
X195262500Y-66675000D01*
%TO.C,SW49*%
X128587500Y-85725000D02*
X128587500Y-104775000D01*
X128587500Y-104775000D02*
X147637500Y-104775000D01*
X147637500Y-85725000D02*
X128587500Y-85725000D01*
X147637500Y-104775000D02*
X147637500Y-85725000D01*
%TO.C,SW14*%
X285750000Y-28575000D02*
X285750000Y-47625000D01*
X285750000Y-47625000D02*
X304800000Y-47625000D01*
X304800000Y-28575000D02*
X285750000Y-28575000D01*
X304800000Y-47625000D02*
X304800000Y-28575000D01*
%TO.C,SW51*%
X166687500Y-85725000D02*
X166687500Y-104775000D01*
X166687500Y-104775000D02*
X185737500Y-104775000D01*
X185737500Y-85725000D02*
X166687500Y-85725000D01*
X185737500Y-104775000D02*
X185737500Y-85725000D01*
%TO.C,SW9*%
X180975000Y-28575000D02*
X180975000Y-47625000D01*
X180975000Y-47625000D02*
X200025000Y-47625000D01*
X200025000Y-28575000D02*
X180975000Y-28575000D01*
X200025000Y-47625000D02*
X200025000Y-28575000D01*
%TO.C,SW54*%
X223837500Y-85725000D02*
X223837500Y-104775000D01*
X223837500Y-104775000D02*
X242887500Y-104775000D01*
X242887500Y-85725000D02*
X223837500Y-85725000D01*
X242887500Y-104775000D02*
X242887500Y-85725000D01*
%TO.C,SW37*%
X157162500Y-66675000D02*
X157162500Y-85725000D01*
X157162500Y-85725000D02*
X176212500Y-85725000D01*
X176212500Y-66675000D02*
X157162500Y-66675000D01*
X176212500Y-85725000D02*
X176212500Y-66675000D01*
%TO.C,SW48*%
X109537500Y-85725000D02*
X109537500Y-104775000D01*
X109537500Y-104775000D02*
X128587500Y-104775000D01*
X128587500Y-85725000D02*
X109537500Y-85725000D01*
X128587500Y-104775000D02*
X128587500Y-85725000D01*
%TO.C,SW19*%
X95250000Y-47625000D02*
X95250000Y-66675000D01*
X95250000Y-66675000D02*
X114300000Y-66675000D01*
X114300000Y-47625000D02*
X95250000Y-47625000D01*
X114300000Y-66675000D02*
X114300000Y-47625000D01*
%TO.C,SW31*%
X35718800Y-66675000D02*
X35718800Y-85725000D01*
X35718800Y-85725000D02*
X54768800Y-85725000D01*
X54768800Y-66675000D02*
X35718800Y-66675000D01*
X54768800Y-85725000D02*
X54768800Y-66675000D01*
%TO.C,SW34*%
X100012500Y-66675000D02*
X100012500Y-85725000D01*
X100012500Y-85725000D02*
X119062500Y-85725000D01*
X119062500Y-66675000D02*
X100012500Y-66675000D01*
X119062500Y-85725000D02*
X119062500Y-66675000D01*
%TO.C,SW8*%
X161925000Y-28575000D02*
X161925000Y-47625000D01*
X161925000Y-47625000D02*
X180975000Y-47625000D01*
X180975000Y-28575000D02*
X161925000Y-28575000D01*
X180975000Y-47625000D02*
X180975000Y-28575000D01*
%TO.C,SW57*%
X295275000Y-85725000D02*
X295275000Y-104775000D01*
X295275000Y-104775000D02*
X314325000Y-104775000D01*
X314325000Y-85725000D02*
X295275000Y-85725000D01*
X314325000Y-104775000D02*
X314325000Y-85725000D01*
%TO.C,SW25*%
X209550000Y-47625000D02*
X209550000Y-66675000D01*
X209550000Y-66675000D02*
X228600000Y-66675000D01*
X228600000Y-47625000D02*
X209550000Y-47625000D01*
X228600000Y-66675000D02*
X228600000Y-47625000D01*
%TO.C,SW16*%
X33337500Y-47625000D02*
X33337500Y-66675000D01*
X33337500Y-66675000D02*
X52387500Y-66675000D01*
X52387500Y-47625000D02*
X33337500Y-47625000D01*
X52387500Y-66675000D02*
X52387500Y-47625000D01*
%TO.C,SW63*%
X238125000Y-104775000D02*
X238125000Y-123825000D01*
X238125000Y-123825000D02*
X257175000Y-123825000D01*
X257175000Y-104775000D02*
X238125000Y-104775000D01*
X257175000Y-123825000D02*
X257175000Y-104775000D01*
%TO.C,SW26*%
X228600000Y-47625000D02*
X228600000Y-66675000D01*
X228600000Y-66675000D02*
X247650000Y-66675000D01*
X247650000Y-47625000D02*
X228600000Y-47625000D01*
X247650000Y-66675000D02*
X247650000Y-47625000D01*
%TO.C,SW35*%
X119062500Y-66675000D02*
X119062500Y-85725000D01*
X119062500Y-85725000D02*
X138112500Y-85725000D01*
X138112500Y-66675000D02*
X119062500Y-66675000D01*
X138112500Y-85725000D02*
X138112500Y-66675000D01*
%TO.C,SW18*%
X76200000Y-47625000D02*
X76200000Y-66675000D01*
X76200000Y-66675000D02*
X95250000Y-66675000D01*
X95250000Y-47625000D02*
X76200000Y-47625000D01*
X95250000Y-66675000D02*
X95250000Y-47625000D01*
%TO.C,SW22*%
X152400000Y-47625000D02*
X152400000Y-66675000D01*
X152400000Y-66675000D02*
X171450000Y-66675000D01*
X171450000Y-47625000D02*
X152400000Y-47625000D01*
X171450000Y-66675000D02*
X171450000Y-47625000D01*
%TO.C,SW4*%
X85725000Y-28575000D02*
X85725000Y-47625000D01*
X85725000Y-47625000D02*
X104775000Y-47625000D01*
X104775000Y-28575000D02*
X85725000Y-28575000D01*
X104775000Y-47625000D02*
X104775000Y-28575000D01*
%TO.C,SW33*%
X80962500Y-66675000D02*
X80962500Y-85725000D01*
X80962500Y-85725000D02*
X100012500Y-85725000D01*
X100012500Y-66675000D02*
X80962500Y-66675000D01*
X100012500Y-85725000D02*
X100012500Y-66675000D01*
%TO.C,SW17*%
X57150000Y-47625000D02*
X57150000Y-66675000D01*
X57150000Y-66675000D02*
X76200000Y-66675000D01*
X76200000Y-47625000D02*
X57150000Y-47625000D01*
X76200000Y-66675000D02*
X76200000Y-47625000D01*
%TO.C,SW60*%
X54768800Y-104775000D02*
X54768800Y-123825000D01*
X54768800Y-123825000D02*
X73818800Y-123825000D01*
X73818800Y-104775000D02*
X54768800Y-104775000D01*
X73818800Y-123825000D02*
X73818800Y-104775000D01*
%TO.C,SW59*%
X30956300Y-104775000D02*
X30956300Y-123825000D01*
X30956300Y-123825000D02*
X50006300Y-123825000D01*
X50006300Y-104775000D02*
X30956300Y-104775000D01*
X50006300Y-123825000D02*
X50006300Y-104775000D01*
%TO.C,SW28*%
X266700000Y-47625000D02*
X266700000Y-66675000D01*
X266700000Y-66675000D02*
X285750000Y-66675000D01*
X285750000Y-47625000D02*
X266700000Y-47625000D01*
X285750000Y-66675000D02*
X285750000Y-47625000D01*
%TO.C,SW10*%
X200025000Y-28575000D02*
X200025000Y-47625000D01*
X200025000Y-47625000D02*
X219075000Y-47625000D01*
X219075000Y-28575000D02*
X200025000Y-28575000D01*
X219075000Y-47625000D02*
X219075000Y-28575000D01*
%TO.C,SW15*%
X314325000Y-28575000D02*
X314325000Y-47625000D01*
X314325000Y-47625000D02*
X333375000Y-47625000D01*
X333375000Y-28575000D02*
X314325000Y-28575000D01*
X333375000Y-47625000D02*
X333375000Y-28575000D01*
%TO.C,SW30*%
X314325000Y-47625000D02*
X314325000Y-66675000D01*
X314325000Y-66675000D02*
X333375000Y-66675000D01*
X333375000Y-47625000D02*
X314325000Y-47625000D01*
X333375000Y-66675000D02*
X333375000Y-47625000D01*
%TO.C,SW66*%
X295275000Y-104775000D02*
X295275000Y-123825000D01*
X295275000Y-123825000D02*
X314325000Y-123825000D01*
X314325000Y-104775000D02*
X295275000Y-104775000D01*
X314325000Y-123825000D02*
X314325000Y-104775000D01*
%TO.C,SW47*%
X90487500Y-85725000D02*
X90487500Y-104775000D01*
X90487500Y-104775000D02*
X109537500Y-104775000D01*
X109537500Y-85725000D02*
X90487500Y-85725000D01*
X109537500Y-104775000D02*
X109537500Y-85725000D01*
%TO.C,SW52*%
X185737500Y-85725000D02*
X185737500Y-104775000D01*
X185737500Y-104775000D02*
X204787500Y-104775000D01*
X204787500Y-85725000D02*
X185737500Y-85725000D01*
X204787500Y-104775000D02*
X204787500Y-85725000D01*
%TO.C,SW11*%
X219075000Y-28575000D02*
X219075000Y-47625000D01*
X219075000Y-47625000D02*
X238125000Y-47625000D01*
X238125000Y-28575000D02*
X219075000Y-28575000D01*
X238125000Y-47625000D02*
X238125000Y-28575000D01*
%TD*%
M02*
