%TF.GenerationSoftware,KiCad,Pcbnew,10.0.5*%
%TF.CreationDate,2026-08-27T16:41:22+05:30*%
%TF.ProjectId,dream-keyboard,64726561-6d2d-46b6-9579-626f6172642e,rev?*%
%TF.SameCoordinates,Original*%
%TF.FileFunction,Other,Comment*%
%FSLAX46Y46*%
G04 Gerber Fmt 4.6, Leading zero omitted, Abs format (unit mm)*
G04 Created by KiCad (PCBNEW 10.0.5) date 2026-08-27 16:41:22*
%MOMM*%
%LPD*%
G01*
G04 APERTURE LIST*
%ADD10C,0.150000*%
G04 APERTURE END LIST*
D10*
X167119819Y-126848095D02*
X167929342Y-126848095D01*
X167929342Y-126848095D02*
X168024580Y-126800476D01*
X168024580Y-126800476D02*
X168072200Y-126752857D01*
X168072200Y-126752857D02*
X168119819Y-126657619D01*
X168119819Y-126657619D02*
X168119819Y-126467143D01*
X168119819Y-126467143D02*
X168072200Y-126371905D01*
X168072200Y-126371905D02*
X168024580Y-126324286D01*
X168024580Y-126324286D02*
X167929342Y-126276667D01*
X167929342Y-126276667D02*
X167119819Y-126276667D01*
X168072200Y-125848095D02*
X168119819Y-125705238D01*
X168119819Y-125705238D02*
X168119819Y-125467143D01*
X168119819Y-125467143D02*
X168072200Y-125371905D01*
X168072200Y-125371905D02*
X168024580Y-125324286D01*
X168024580Y-125324286D02*
X167929342Y-125276667D01*
X167929342Y-125276667D02*
X167834104Y-125276667D01*
X167834104Y-125276667D02*
X167738866Y-125324286D01*
X167738866Y-125324286D02*
X167691247Y-125371905D01*
X167691247Y-125371905D02*
X167643628Y-125467143D01*
X167643628Y-125467143D02*
X167596009Y-125657619D01*
X167596009Y-125657619D02*
X167548390Y-125752857D01*
X167548390Y-125752857D02*
X167500771Y-125800476D01*
X167500771Y-125800476D02*
X167405533Y-125848095D01*
X167405533Y-125848095D02*
X167310295Y-125848095D01*
X167310295Y-125848095D02*
X167215057Y-125800476D01*
X167215057Y-125800476D02*
X167167438Y-125752857D01*
X167167438Y-125752857D02*
X167119819Y-125657619D01*
X167119819Y-125657619D02*
X167119819Y-125419524D01*
X167119819Y-125419524D02*
X167167438Y-125276667D01*
X167596009Y-124514762D02*
X167643628Y-124371905D01*
X167643628Y-124371905D02*
X167691247Y-124324286D01*
X167691247Y-124324286D02*
X167786485Y-124276667D01*
X167786485Y-124276667D02*
X167929342Y-124276667D01*
X167929342Y-124276667D02*
X168024580Y-124324286D01*
X168024580Y-124324286D02*
X168072200Y-124371905D01*
X168072200Y-124371905D02*
X168119819Y-124467143D01*
X168119819Y-124467143D02*
X168119819Y-124848095D01*
X168119819Y-124848095D02*
X167119819Y-124848095D01*
X167119819Y-124848095D02*
X167119819Y-124514762D01*
X167119819Y-124514762D02*
X167167438Y-124419524D01*
X167167438Y-124419524D02*
X167215057Y-124371905D01*
X167215057Y-124371905D02*
X167310295Y-124324286D01*
X167310295Y-124324286D02*
X167405533Y-124324286D01*
X167405533Y-124324286D02*
X167500771Y-124371905D01*
X167500771Y-124371905D02*
X167548390Y-124419524D01*
X167548390Y-124419524D02*
X167596009Y-124514762D01*
X167596009Y-124514762D02*
X167596009Y-124848095D01*
X168024580Y-122514762D02*
X168072200Y-122562381D01*
X168072200Y-122562381D02*
X168119819Y-122705238D01*
X168119819Y-122705238D02*
X168119819Y-122800476D01*
X168119819Y-122800476D02*
X168072200Y-122943333D01*
X168072200Y-122943333D02*
X167976961Y-123038571D01*
X167976961Y-123038571D02*
X167881723Y-123086190D01*
X167881723Y-123086190D02*
X167691247Y-123133809D01*
X167691247Y-123133809D02*
X167548390Y-123133809D01*
X167548390Y-123133809D02*
X167357914Y-123086190D01*
X167357914Y-123086190D02*
X167262676Y-123038571D01*
X167262676Y-123038571D02*
X167167438Y-122943333D01*
X167167438Y-122943333D02*
X167119819Y-122800476D01*
X167119819Y-122800476D02*
X167119819Y-122705238D01*
X167119819Y-122705238D02*
X167167438Y-122562381D01*
X167167438Y-122562381D02*
X167215057Y-122514762D01*
X168119819Y-121657619D02*
X167596009Y-121657619D01*
X167596009Y-121657619D02*
X167500771Y-121705238D01*
X167500771Y-121705238D02*
X167453152Y-121800476D01*
X167453152Y-121800476D02*
X167453152Y-121990952D01*
X167453152Y-121990952D02*
X167500771Y-122086190D01*
X168072200Y-121657619D02*
X168119819Y-121752857D01*
X168119819Y-121752857D02*
X168119819Y-121990952D01*
X168119819Y-121990952D02*
X168072200Y-122086190D01*
X168072200Y-122086190D02*
X167976961Y-122133809D01*
X167976961Y-122133809D02*
X167881723Y-122133809D01*
X167881723Y-122133809D02*
X167786485Y-122086190D01*
X167786485Y-122086190D02*
X167738866Y-121990952D01*
X167738866Y-121990952D02*
X167738866Y-121752857D01*
X167738866Y-121752857D02*
X167691247Y-121657619D01*
X168119819Y-121181428D02*
X167119819Y-121181428D01*
X167500771Y-121181428D02*
X167453152Y-121086190D01*
X167453152Y-121086190D02*
X167453152Y-120895714D01*
X167453152Y-120895714D02*
X167500771Y-120800476D01*
X167500771Y-120800476D02*
X167548390Y-120752857D01*
X167548390Y-120752857D02*
X167643628Y-120705238D01*
X167643628Y-120705238D02*
X167929342Y-120705238D01*
X167929342Y-120705238D02*
X168024580Y-120752857D01*
X168024580Y-120752857D02*
X168072200Y-120800476D01*
X168072200Y-120800476D02*
X168119819Y-120895714D01*
X168119819Y-120895714D02*
X168119819Y-121086190D01*
X168119819Y-121086190D02*
X168072200Y-121181428D01*
X168119819Y-120133809D02*
X168072200Y-120229047D01*
X168072200Y-120229047D02*
X167976961Y-120276666D01*
X167976961Y-120276666D02*
X167119819Y-120276666D01*
X168072200Y-119371904D02*
X168119819Y-119467142D01*
X168119819Y-119467142D02*
X168119819Y-119657618D01*
X168119819Y-119657618D02*
X168072200Y-119752856D01*
X168072200Y-119752856D02*
X167976961Y-119800475D01*
X167976961Y-119800475D02*
X167596009Y-119800475D01*
X167596009Y-119800475D02*
X167500771Y-119752856D01*
X167500771Y-119752856D02*
X167453152Y-119657618D01*
X167453152Y-119657618D02*
X167453152Y-119467142D01*
X167453152Y-119467142D02*
X167500771Y-119371904D01*
X167500771Y-119371904D02*
X167596009Y-119324285D01*
X167596009Y-119324285D02*
X167691247Y-119324285D01*
X167691247Y-119324285D02*
X167786485Y-119800475D01*
X225269819Y-129348095D02*
X224269819Y-129348095D01*
X224269819Y-129348095D02*
X224269819Y-128967143D01*
X224269819Y-128967143D02*
X224317438Y-128871905D01*
X224317438Y-128871905D02*
X224365057Y-128824286D01*
X224365057Y-128824286D02*
X224460295Y-128776667D01*
X224460295Y-128776667D02*
X224603152Y-128776667D01*
X224603152Y-128776667D02*
X224698390Y-128824286D01*
X224698390Y-128824286D02*
X224746009Y-128871905D01*
X224746009Y-128871905D02*
X224793628Y-128967143D01*
X224793628Y-128967143D02*
X224793628Y-129348095D01*
X225269819Y-128205238D02*
X225222200Y-128300476D01*
X225222200Y-128300476D02*
X225174580Y-128348095D01*
X225174580Y-128348095D02*
X225079342Y-128395714D01*
X225079342Y-128395714D02*
X224793628Y-128395714D01*
X224793628Y-128395714D02*
X224698390Y-128348095D01*
X224698390Y-128348095D02*
X224650771Y-128300476D01*
X224650771Y-128300476D02*
X224603152Y-128205238D01*
X224603152Y-128205238D02*
X224603152Y-128062381D01*
X224603152Y-128062381D02*
X224650771Y-127967143D01*
X224650771Y-127967143D02*
X224698390Y-127919524D01*
X224698390Y-127919524D02*
X224793628Y-127871905D01*
X224793628Y-127871905D02*
X225079342Y-127871905D01*
X225079342Y-127871905D02*
X225174580Y-127919524D01*
X225174580Y-127919524D02*
X225222200Y-127967143D01*
X225222200Y-127967143D02*
X225269819Y-128062381D01*
X225269819Y-128062381D02*
X225269819Y-128205238D01*
X225222200Y-127490952D02*
X225269819Y-127395714D01*
X225269819Y-127395714D02*
X225269819Y-127205238D01*
X225269819Y-127205238D02*
X225222200Y-127110000D01*
X225222200Y-127110000D02*
X225126961Y-127062381D01*
X225126961Y-127062381D02*
X225079342Y-127062381D01*
X225079342Y-127062381D02*
X224984104Y-127110000D01*
X224984104Y-127110000D02*
X224936485Y-127205238D01*
X224936485Y-127205238D02*
X224936485Y-127348095D01*
X224936485Y-127348095D02*
X224888866Y-127443333D01*
X224888866Y-127443333D02*
X224793628Y-127490952D01*
X224793628Y-127490952D02*
X224746009Y-127490952D01*
X224746009Y-127490952D02*
X224650771Y-127443333D01*
X224650771Y-127443333D02*
X224603152Y-127348095D01*
X224603152Y-127348095D02*
X224603152Y-127205238D01*
X224603152Y-127205238D02*
X224650771Y-127110000D01*
X225222200Y-126681428D02*
X225269819Y-126586190D01*
X225269819Y-126586190D02*
X225269819Y-126395714D01*
X225269819Y-126395714D02*
X225222200Y-126300476D01*
X225222200Y-126300476D02*
X225126961Y-126252857D01*
X225126961Y-126252857D02*
X225079342Y-126252857D01*
X225079342Y-126252857D02*
X224984104Y-126300476D01*
X224984104Y-126300476D02*
X224936485Y-126395714D01*
X224936485Y-126395714D02*
X224936485Y-126538571D01*
X224936485Y-126538571D02*
X224888866Y-126633809D01*
X224888866Y-126633809D02*
X224793628Y-126681428D01*
X224793628Y-126681428D02*
X224746009Y-126681428D01*
X224746009Y-126681428D02*
X224650771Y-126633809D01*
X224650771Y-126633809D02*
X224603152Y-126538571D01*
X224603152Y-126538571D02*
X224603152Y-126395714D01*
X224603152Y-126395714D02*
X224650771Y-126300476D01*
X225269819Y-125824285D02*
X224603152Y-125824285D01*
X224269819Y-125824285D02*
X224317438Y-125871904D01*
X224317438Y-125871904D02*
X224365057Y-125824285D01*
X224365057Y-125824285D02*
X224317438Y-125776666D01*
X224317438Y-125776666D02*
X224269819Y-125824285D01*
X224269819Y-125824285D02*
X224365057Y-125824285D01*
X225269819Y-125348095D02*
X224269819Y-125348095D01*
X224650771Y-125348095D02*
X224603152Y-125252857D01*
X224603152Y-125252857D02*
X224603152Y-125062381D01*
X224603152Y-125062381D02*
X224650771Y-124967143D01*
X224650771Y-124967143D02*
X224698390Y-124919524D01*
X224698390Y-124919524D02*
X224793628Y-124871905D01*
X224793628Y-124871905D02*
X225079342Y-124871905D01*
X225079342Y-124871905D02*
X225174580Y-124919524D01*
X225174580Y-124919524D02*
X225222200Y-124967143D01*
X225222200Y-124967143D02*
X225269819Y-125062381D01*
X225269819Y-125062381D02*
X225269819Y-125252857D01*
X225269819Y-125252857D02*
X225222200Y-125348095D01*
X225269819Y-124300476D02*
X225222200Y-124395714D01*
X225222200Y-124395714D02*
X225126961Y-124443333D01*
X225126961Y-124443333D02*
X224269819Y-124443333D01*
X225222200Y-123538571D02*
X225269819Y-123633809D01*
X225269819Y-123633809D02*
X225269819Y-123824285D01*
X225269819Y-123824285D02*
X225222200Y-123919523D01*
X225222200Y-123919523D02*
X225126961Y-123967142D01*
X225126961Y-123967142D02*
X224746009Y-123967142D01*
X224746009Y-123967142D02*
X224650771Y-123919523D01*
X224650771Y-123919523D02*
X224603152Y-123824285D01*
X224603152Y-123824285D02*
X224603152Y-123633809D01*
X224603152Y-123633809D02*
X224650771Y-123538571D01*
X224650771Y-123538571D02*
X224746009Y-123490952D01*
X224746009Y-123490952D02*
X224841247Y-123490952D01*
X224841247Y-123490952D02*
X224936485Y-123967142D01*
X224984104Y-122348094D02*
X224984104Y-121871904D01*
X225269819Y-122443332D02*
X224269819Y-122109999D01*
X224269819Y-122109999D02*
X225269819Y-121776666D01*
X224603152Y-121443332D02*
X225269819Y-121443332D01*
X224698390Y-121443332D02*
X224650771Y-121395713D01*
X224650771Y-121395713D02*
X224603152Y-121300475D01*
X224603152Y-121300475D02*
X224603152Y-121157618D01*
X224603152Y-121157618D02*
X224650771Y-121062380D01*
X224650771Y-121062380D02*
X224746009Y-121014761D01*
X224746009Y-121014761D02*
X225269819Y-121014761D01*
X224603152Y-120681427D02*
X224603152Y-120300475D01*
X224269819Y-120538570D02*
X225126961Y-120538570D01*
X225126961Y-120538570D02*
X225222200Y-120490951D01*
X225222200Y-120490951D02*
X225269819Y-120395713D01*
X225269819Y-120395713D02*
X225269819Y-120300475D01*
X225222200Y-119586189D02*
X225269819Y-119681427D01*
X225269819Y-119681427D02*
X225269819Y-119871903D01*
X225269819Y-119871903D02*
X225222200Y-119967141D01*
X225222200Y-119967141D02*
X225126961Y-120014760D01*
X225126961Y-120014760D02*
X224746009Y-120014760D01*
X224746009Y-120014760D02*
X224650771Y-119967141D01*
X224650771Y-119967141D02*
X224603152Y-119871903D01*
X224603152Y-119871903D02*
X224603152Y-119681427D01*
X224603152Y-119681427D02*
X224650771Y-119586189D01*
X224650771Y-119586189D02*
X224746009Y-119538570D01*
X224746009Y-119538570D02*
X224841247Y-119538570D01*
X224841247Y-119538570D02*
X224936485Y-120014760D01*
X224603152Y-119109998D02*
X225269819Y-119109998D01*
X224698390Y-119109998D02*
X224650771Y-119062379D01*
X224650771Y-119062379D02*
X224603152Y-118967141D01*
X224603152Y-118967141D02*
X224603152Y-118824284D01*
X224603152Y-118824284D02*
X224650771Y-118729046D01*
X224650771Y-118729046D02*
X224746009Y-118681427D01*
X224746009Y-118681427D02*
X225269819Y-118681427D01*
X224603152Y-118205236D02*
X225269819Y-118205236D01*
X224698390Y-118205236D02*
X224650771Y-118157617D01*
X224650771Y-118157617D02*
X224603152Y-118062379D01*
X224603152Y-118062379D02*
X224603152Y-117919522D01*
X224603152Y-117919522D02*
X224650771Y-117824284D01*
X224650771Y-117824284D02*
X224746009Y-117776665D01*
X224746009Y-117776665D02*
X225269819Y-117776665D01*
X225269819Y-116871903D02*
X224746009Y-116871903D01*
X224746009Y-116871903D02*
X224650771Y-116919522D01*
X224650771Y-116919522D02*
X224603152Y-117014760D01*
X224603152Y-117014760D02*
X224603152Y-117205236D01*
X224603152Y-117205236D02*
X224650771Y-117300474D01*
X225222200Y-116871903D02*
X225269819Y-116967141D01*
X225269819Y-116967141D02*
X225269819Y-117205236D01*
X225269819Y-117205236D02*
X225222200Y-117300474D01*
X225222200Y-117300474D02*
X225126961Y-117348093D01*
X225126961Y-117348093D02*
X225031723Y-117348093D01*
X225031723Y-117348093D02*
X224936485Y-117300474D01*
X224936485Y-117300474D02*
X224888866Y-117205236D01*
X224888866Y-117205236D02*
X224888866Y-116967141D01*
X224888866Y-116967141D02*
X224841247Y-116871903D01*
X227174819Y-126324285D02*
X226174819Y-126324285D01*
X227174819Y-125752857D02*
X226603390Y-126181428D01*
X226174819Y-125752857D02*
X226746247Y-126324285D01*
X227127200Y-124943333D02*
X227174819Y-125038571D01*
X227174819Y-125038571D02*
X227174819Y-125229047D01*
X227174819Y-125229047D02*
X227127200Y-125324285D01*
X227127200Y-125324285D02*
X227031961Y-125371904D01*
X227031961Y-125371904D02*
X226651009Y-125371904D01*
X226651009Y-125371904D02*
X226555771Y-125324285D01*
X226555771Y-125324285D02*
X226508152Y-125229047D01*
X226508152Y-125229047D02*
X226508152Y-125038571D01*
X226508152Y-125038571D02*
X226555771Y-124943333D01*
X226555771Y-124943333D02*
X226651009Y-124895714D01*
X226651009Y-124895714D02*
X226746247Y-124895714D01*
X226746247Y-124895714D02*
X226841485Y-125371904D01*
X227127200Y-124086190D02*
X227174819Y-124181428D01*
X227174819Y-124181428D02*
X227174819Y-124371904D01*
X227174819Y-124371904D02*
X227127200Y-124467142D01*
X227127200Y-124467142D02*
X227031961Y-124514761D01*
X227031961Y-124514761D02*
X226651009Y-124514761D01*
X226651009Y-124514761D02*
X226555771Y-124467142D01*
X226555771Y-124467142D02*
X226508152Y-124371904D01*
X226508152Y-124371904D02*
X226508152Y-124181428D01*
X226508152Y-124181428D02*
X226555771Y-124086190D01*
X226555771Y-124086190D02*
X226651009Y-124038571D01*
X226651009Y-124038571D02*
X226746247Y-124038571D01*
X226746247Y-124038571D02*
X226841485Y-124514761D01*
X226508152Y-123609999D02*
X227508152Y-123609999D01*
X226555771Y-123609999D02*
X226508152Y-123514761D01*
X226508152Y-123514761D02*
X226508152Y-123324285D01*
X226508152Y-123324285D02*
X226555771Y-123229047D01*
X226555771Y-123229047D02*
X226603390Y-123181428D01*
X226603390Y-123181428D02*
X226698628Y-123133809D01*
X226698628Y-123133809D02*
X226984342Y-123133809D01*
X226984342Y-123133809D02*
X227079580Y-123181428D01*
X227079580Y-123181428D02*
X227127200Y-123229047D01*
X227127200Y-123229047D02*
X227174819Y-123324285D01*
X227174819Y-123324285D02*
X227174819Y-123514761D01*
X227174819Y-123514761D02*
X227127200Y-123609999D01*
X226174819Y-121752856D02*
X226174819Y-121562380D01*
X226174819Y-121562380D02*
X226222438Y-121467142D01*
X226222438Y-121467142D02*
X226317676Y-121371904D01*
X226317676Y-121371904D02*
X226508152Y-121324285D01*
X226508152Y-121324285D02*
X226841485Y-121324285D01*
X226841485Y-121324285D02*
X227031961Y-121371904D01*
X227031961Y-121371904D02*
X227127200Y-121467142D01*
X227127200Y-121467142D02*
X227174819Y-121562380D01*
X227174819Y-121562380D02*
X227174819Y-121752856D01*
X227174819Y-121752856D02*
X227127200Y-121848094D01*
X227127200Y-121848094D02*
X227031961Y-121943332D01*
X227031961Y-121943332D02*
X226841485Y-121990951D01*
X226841485Y-121990951D02*
X226508152Y-121990951D01*
X226508152Y-121990951D02*
X226317676Y-121943332D01*
X226317676Y-121943332D02*
X226222438Y-121848094D01*
X226222438Y-121848094D02*
X226174819Y-121752856D01*
X226508152Y-120467142D02*
X227174819Y-120467142D01*
X226508152Y-120895713D02*
X227031961Y-120895713D01*
X227031961Y-120895713D02*
X227127200Y-120848094D01*
X227127200Y-120848094D02*
X227174819Y-120752856D01*
X227174819Y-120752856D02*
X227174819Y-120609999D01*
X227174819Y-120609999D02*
X227127200Y-120514761D01*
X227127200Y-120514761D02*
X227079580Y-120467142D01*
X226508152Y-120133808D02*
X226508152Y-119752856D01*
X226174819Y-119990951D02*
X227031961Y-119990951D01*
X227031961Y-119990951D02*
X227127200Y-119943332D01*
X227127200Y-119943332D02*
X227174819Y-119848094D01*
X227174819Y-119848094D02*
X227174819Y-119752856D01*
M02*
